CSLSans-Regular.ufo
<glyph name="quotedbl" format="2">
  <advance width="419"/>
  <unicode hex="0022"/>
  <outline>
    <contour>
      <point x="262" y="460" type="line"/>
      <point x="262" y="740" type="line"/>
      <point x="334" y="740" type="line"/>
      <point x="334" y="460" type="line"/>
    </contour>
    <contour>
      <point x="85" y="460" type="line"/>
      <point x="85" y="740" type="line"/>
      <point x="157" y="740" type="line"/>
      <point x="157" y="460" type="line"/>
    </contour>
  </outline>
</glyph>
<glyph name="dollar" format="2">
  <advance width="598"/>
  <unicode hex="0024"/>
  <outline>
    <contour>
      <point x="331" y="71" type="line"/>
      <point x="460" y="93"/>
      <point x="460" y="195" type="qcurve" smooth="yes"/>
      <point x="460" y="246"/>
      <point x="400" y="301"/>
      <point x="331" y="317" type="qcurve"/>
    </contour>
    <contour>
      <point x="271" y="627" type="line"/>
      <point x="216" y="620"/>
      <point x="152" y="568"/>
      <point x="152" y="524" type="qcurve" smooth="yes"/>
      <point x="152" y="473"/>
      <point x="211" y="421"/>
      <point x="271" y="406" type="qcurve"/>
    </contour>
    <contour>
      <point x="270" y="-82" type="line"/>
      <point x="270" y="0" type="line"/>
      <point x="131" y="11"/>
      <point x="52" y="119" type="qcurve"/>
      <point x="111" y="172" type="line"/>
      <point x="172" y="86"/>
      <point x="271" y="71" type="qcurve"/>
      <point x="271" y="328" type="line"/>
      <point x="169" y="350"/>
      <point x="73" y="440"/>
      <point x="73" y="518" type="qcurve" smooth="yes"/>
      <point x="73" y="598"/>
      <point x="181" y="691"/>
      <point x="270" y="698" type="qcurve"/>
      <point x="270" y="780" type="line"/>
      <point x="332" y="780" type="line"/>
      <point x="332" y="699" type="line"/>
      <point x="466" y="687"/>
      <point x="535" y="586" type="qcurve"/>
      <point x="474" y="540" type="line"/>
      <point x="426" y="612"/>
      <point x="331" y="627" type="qcurve"/>
      <point x="331" y="393" type="line"/>
      <point x="340" y="391" type="line" smooth="yes"/>
      <point x="444" y="369"/>
      <point x="539" y="279"/>
      <point x="539" y="200" type="qcurve" smooth="yes"/>
      <point x="539" y="114"/>
      <point x="429" y="10"/>
      <point x="332" y="0" type="qcurve"/>
      <point x="332" y="-82" type="line"/>
    </contour>
  </outline>
</glyph>
<glyph name="period" format="2">
  <advance width="272"/>
  <unicode hex="002E"/>
  <outline>
    <contour>
      <point x="136" y="-12" type="qcurve" smooth="yes"/>
      <point x="75" y="-12"/>
      <point x="75" y="46" type="qcurve" smooth="yes"/>
      <point x="75" y="59" type="line" smooth="yes"/>
      <point x="75" y="117"/>
      <point x="136" y="117" type="qcurve" smooth="yes"/>
      <point x="197" y="117"/>
      <point x="197" y="59" type="qcurve" smooth="yes"/>
      <point x="197" y="46" type="line" smooth="yes"/>
      <point x="197" y="-12"/>
    </contour>
  </outline>
</glyph>
<glyph name="seven" format="2">
  <advance width="600"/>
  <unicode hex="0037"/>
  <outline>
    <contour>
      <point x="265" y="0" type="line"/>
      <point x="175" y="0" type="line"/>
      <point x="442" y="626" type="line"/>
      <point x="69" y="626" type="line"/>
      <point x="69" y="698" type="line"/>
      <point x="527" y="698" type="line"/>
      <point x="527" y="624" type="line"/>
    </contour>
  </outline>
</glyph>
<glyph name="nine" format="2">
  <advance width="600"/>
  <unicode hex="0039"/>
  <outline>
    <contour>
      <point x="176" y="0" type="line"/>
      <point x="288" y="80"/>
      <point x="418" y="243"/>
      <point x="446" y="362" type="qcurve"/>
      <point x="441" y="364" type="line"/>
      <point x="386" y="264"/>
      <point x="273" y="264" type="qcurve" smooth="yes"/>
      <point x="183" y="264"/>
      <point x="67" y="379"/>
      <point x="67" y="479" type="qcurve" smooth="yes"/>
      <point x="67" y="581"/>
      <point x="193" y="710"/>
      <point x="299" y="710" type="qcurve" smooth="yes"/>
      <point x="407" y="710"/>
      <point x="471" y="639" type="qcurve"/>
      <point x="533" y="567"/>
      <point x="533" y="442" type="qcurve" smooth="yes"/>
      <point x="533" y="297"/>
      <point x="451" y="171" type="qcurve"/>
      <point x="373" y="56"/>
      <point x="284" y="0" type="qcurve"/>
    </contour>
    <contour>
      <point x="300" y="335" type="qcurve"/>
      <point x="446" y="340"/>
      <point x="446" y="482" type="qcurve" smooth="yes"/>
      <point x="446" y="490" type="line" smooth="yes"/>
      <point x="446" y="561"/>
      <point x="369" y="637"/>
      <point x="300" y="637" type="qcurve"/>
      <point x="154" y="633"/>
      <point x="154" y="490" type="qcurve" smooth="yes"/>
      <point x="154" y="482" type="line" smooth="yes"/>
      <point x="154" y="411"/>
      <point x="231" y="335"/>
    </contour>
  </outline>
</glyph>
<glyph name="colon" format="2">
  <advance width="292"/>
  <unicode hex="003A"/>
  <outline>
    <contour>
      <point x="146" y="-12" type="qcurve" smooth="yes"/>
      <point x="85" y="-12"/>
      <point x="85" y="46" type="qcurve" smooth="yes"/>
      <point x="85" y="59" type="line" smooth="yes"/>
      <point x="85" y="117"/>
      <point x="146" y="117" type="qcurve" smooth="yes"/>
      <point x="207" y="117"/>
      <point x="207" y="59" type="qcurve" smooth="yes"/>
      <point x="207" y="46" type="line" smooth="yes"/>
      <point x="207" y="-12"/>
    </contour>
    <contour>
      <point x="146" y="394" type="qcurve" smooth="yes"/>
      <point x="85" y="394"/>
      <point x="85" y="452" type="qcurve" smooth="yes"/>
      <point x="85" y="465" type="line" smooth="yes"/>
      <point x="85" y="523"/>
      <point x="146" y="523" type="qcurve" smooth="yes"/>
      <point x="207" y="523"/>
      <point x="207" y="465" type="qcurve" smooth="yes"/>
      <point x="207" y="452" type="line" smooth="yes"/>
      <point x="207" y="394"/>
    </contour>
  </outline>
</glyph>
<glyph name="semicolon" format="2">
  <advance width="300"/>
  <unicode hex="003B"/>
  <outline>
    <contour>
      <point x="53" y="-133" type="line"/>
      <point x="112" y="-74"/>
      <point x="128" y="-9" type="qcurve"/>
      <point x="89" y="4"/>
      <point x="89" y="44" type="qcurve" smooth="yes"/>
      <point x="89" y="58" type="line" smooth="yes"/>
      <point x="89" y="117"/>
      <point x="150" y="117" type="qcurve" smooth="yes"/>
      <point x="211" y="117"/>
      <point x="211" y="58" type="qcurve" smooth="yes"/>
      <point x="211" y="44" type="line" smooth="yes"/>
      <point x="211" y="3"/>
      <point x="163" y="-95"/>
      <point x="120" y="-133" type="qcurve"/>
    </contour>
    <contour>
      <point x="150" y="394" type="qcurve" smooth="yes"/>
      <point x="89" y="394"/>
      <point x="89" y="452" type="qcurve" smooth="yes"/>
      <point x="89" y="465" type="line" smooth="yes"/>
      <point x="89" y="523"/>
      <point x="150" y="523" type="qcurve" smooth="yes"/>
      <point x="211" y="523"/>
      <point x="211" y="465" type="qcurve" smooth="yes"/>
      <point x="211" y="452" type="line" smooth="yes"/>
      <point x="211" y="394"/>
    </contour>
  </outline>
</glyph>
<glyph name="question" format="2">
  <advance width="477"/>
  <unicode hex="003F"/>
  <outline>
    <contour>
      <point x="179" y="208" type="line"/>
      <point x="179" y="372" type="line"/>
      <point x="354" y="385"/>
      <point x="354" y="511" type="qcurve" smooth="yes"/>
      <point x="354" y="525" type="line" smooth="yes"/>
      <point x="354" y="576"/>
      <point x="290" y="637"/>
      <point x="236" y="637" type="qcurve" smooth="yes"/>
      <point x="178" y="637"/>
      <point x="109" y="572"/>
      <point x="97" y="520" type="qcurve"/>
      <point x="23" y="548" type="line"/>
      <point x="41" y="615"/>
      <point x="149" y="710"/>
      <point x="239" y="710" type="qcurve" smooth="yes"/>
      <point x="332" y="710"/>
      <point x="440" y="608"/>
      <point x="440" y="521" type="qcurve" smooth="yes"/>
      <point x="440" y="432"/>
      <point x="381" y="377" type="qcurve"/>
      <point x="325" y="328"/>
      <point x="256" y="316" type="qcurve"/>
      <point x="256" y="208" type="line"/>
    </contour>
    <contour>
      <point x="218" y="-12" type="qcurve" smooth="yes"/>
      <point x="157" y="-12"/>
      <point x="157" y="46" type="qcurve" smooth="yes"/>
      <point x="157" y="59" type="line" smooth="yes"/>
      <point x="157" y="117"/>
      <point x="218" y="117" type="qcurve" smooth="yes"/>
      <point x="279" y="117"/>
      <point x="279" y="59" type="qcurve" smooth="yes"/>
      <point x="279" y="46" type="line" smooth="yes"/>
      <point x="279" y="-12"/>
    </contour>
  </outline>
</glyph>
<glyph name="Q" format="2">
  <advance width="708"/>
  <unicode hex="0051"/>
  <outline>
    <contour>
      <point x="354" y="63" type="qcurve" smooth="yes"/>
      <point x="399" y="63"/>
      <point x="437" y="79" type="qcurve" smooth="yes"/>
      <point x="463" y="90"/>
      <point x="485" y="108" type="qcurve"/>
      <point x="314" y="267" type="line"/>
      <point x="418" y="269" type="line"/>
      <point x="530" y="164" type="line"/>
      <point x="539" y="179"/>
      <point x="545" y="197" type="qcurve" smooth="yes"/>
      <point x="560" y="239"/>
      <point x="560" y="291" type="qcurve" smooth="yes"/>
      <point x="560" y="407" type="line" smooth="yes"/>
      <point x="560" y="459"/>
      <point x="530" y="543"/>
      <point x="475" y="603"/>
      <point x="399" y="635"/>
      <point x="354" y="635" type="qcurve" smooth="yes"/>
      <point x="309" y="635"/>
      <point x="233" y="603"/>
      <point x="178" y="543"/>
      <point x="148" y="459"/>
      <point x="148" y="407" type="qcurve" smooth="yes"/>
      <point x="148" y="291" type="line" smooth="yes"/>
      <point x="148" y="239"/>
      <point x="178" y="155"/>
      <point x="233" y="95"/>
      <point x="309" y="63"/>
    </contour>
    <contour>
      <point x="614" y="-12" type="line"/>
      <point x="543" y="54" type="line"/>
      <point x="513" y="28"/>
      <point x="476" y="12" type="qcurve" smooth="yes"/>
      <point x="421" y="-12"/>
      <point x="354" y="-12" type="qcurve" smooth="yes"/>
      <point x="286" y="-12"/>
      <point x="177" y="35"/>
      <point x="100" y="126"/>
      <point x="58" y="261"/>
      <point x="58" y="349" type="qcurve" smooth="yes"/>
      <point x="58" y="437"/>
      <point x="100" y="571"/>
      <point x="177" y="663"/>
      <point x="286" y="710"/>
      <point x="354" y="710" type="qcurve" smooth="yes"/>
      <point x="421" y="710"/>
      <point x="531" y="663"/>
      <point x="608" y="571"/>
      <point x="650" y="437"/>
      <point x="650" y="349" type="qcurve" smooth="yes"/>
      <point x="650" y="261"/>
      <point x="629" y="194" type="qcurve" smooth="yes"/>
      <point x="614" y="145"/>
      <point x="590" y="108" type="qcurve"/>
      <point x="718" y="-12" type="line"/>
    </contour>
  </outline>
</glyph>
<glyph name="l" format="2">
  <advance width="272"/>
  <unicode hex="006C"/>
  <outline>
    <contour>
      <point x="170" y="0" type="line" smooth="yes"/>
      <point x="128" y="0"/>
      <point x="85" y="47"/>
      <point x="85" y="83" type="qcurve" smooth="yes"/>
      <point x="85" y="740" type="line"/>
      <point x="165" y="740" type="line"/>
      <point x="165" y="70" type="line"/>
      <point x="241" y="70" type="line"/>
      <point x="241" y="0" type="line"/>
    </contour>
  </outline>
</glyph>
<glyph name="q" format="2">
  <advance width="580"/>
  <unicode hex="0071"/>
  <outline>
    <contour>
      <point x="415" y="-200" type="line"/>
      <point x="415" y="84" type="line"/>
      <point x="411" y="84" type="line"/>
      <point x="364" y="-12"/>
      <point x="260" y="-12" type="qcurve" smooth="yes"/>
      <point x="164" y="-12"/>
      <point x="50" y="134"/>
      <point x="50" y="258" type="qcurve" smooth="yes"/>
      <point x="50" y="383"/>
      <point x="164" y="528"/>
      <point x="260" y="528" type="qcurve" smooth="yes"/>
      <point x="368" y="528"/>
      <point x="411" y="432" type="qcurve"/>
      <point x="415" y="432" type="line"/>
      <point x="415" y="516" type="line"/>
      <point x="495" y="516" type="line"/>
      <point x="495" y="-200" type="line"/>
    </contour>
    <contour>
      <point x="282" y="60" type="qcurve" smooth="yes"/>
      <point x="336" y="60"/>
      <point x="415" y="116"/>
      <point x="415" y="165" type="qcurve" smooth="yes"/>
      <point x="415" y="357" type="line" smooth="yes"/>
      <point x="415" y="399"/>
      <point x="336" y="456"/>
      <point x="282" y="456" type="qcurve" smooth="yes"/>
      <point x="214" y="456"/>
      <point x="136" y="371"/>
      <point x="136" y="302" type="qcurve" smooth="yes"/>
      <point x="136" y="214" type="line" smooth="yes"/>
      <point x="136" y="145"/>
      <point x="214" y="60"/>
    </contour>
  </outline>
</glyph>
<glyph name="r" format="2">
  <advance width="367"/>
  <unicode hex="0072"/>
  <outline>
    <contour>
      <point x="85" y="0" type="line"/>
      <point x="85" y="516" type="line"/>
      <point x="165" y="516" type="line"/>
      <point x="165" y="421" type="line"/>
      <point x="170" y="421" type="line"/>
      <point x="184" y="459"/>
      <point x="256" y="516"/>
      <point x="319" y="516" type="qcurve" smooth="yes"/>
      <point x="350" y="516" type="line"/>
      <point x="350" y="436" type="line"/>
      <point x="303" y="436" type="line" smooth="yes"/>
      <point x="238" y="436"/>
      <point x="165" y="387"/>
      <point x="165" y="350" type="qcurve" smooth="yes"/>
      <point x="165" y="0" type="line"/>
    </contour>
  </outline>
</glyph>
<glyph name="section" format="2">
  <advance width="586"/>
  <unicode hex="00A7"/>
  <outline>
    <contour>
      <point x="277" y="-155" type="qcurve" smooth="yes"/>
      <point x="177" y="-155"/>
      <point x="110" y="-99" type="qcurve"/>
      <point x="156" y="-43" type="line"/>
      <point x="202" y="-86"/>
      <point x="278" y="-86" type="qcurve" smooth="yes"/>
      <point x="334" y="-86"/>
      <point x="396" y="-39"/>
      <point x="396" y="2" type="qcurve" smooth="yes"/>
      <point x="396" y="40"/>
      <point x="341" y="85"/>
      <point x="292" y="99" type="qcurve" smooth="yes"/>
      <point x="229" y="118" type="line" smooth="yes"/>
      <point x="76" y="164"/>
      <point x="76" y="271" type="qcurve" smooth="yes"/>
      <point x="76" y="367"/>
      <point x="185" y="414" type="qcurve"/>
      <point x="185" y="421" type="line"/>
      <point x="111" y="469"/>
      <point x="111" y="552" type="qcurve" smooth="yes"/>
      <point x="111" y="624"/>
      <point x="220" y="710"/>
      <point x="308" y="710" type="qcurve" smooth="yes"/>
      <point x="409" y="710"/>
      <point x="476" y="654" type="qcurve"/>
      <point x="429" y="598" type="line"/>
      <point x="384" y="641"/>
      <point x="307" y="641" type="qcurve" smooth="yes"/>
      <point x="251" y="641"/>
      <point x="189" y="594"/>
      <point x="189" y="553" type="qcurve" smooth="yes"/>
      <point x="189" y="515"/>
      <point x="244" y="470"/>
      <point x="293" y="456" type="qcurve" smooth="yes"/>
      <point x="356" y="437" type="line" smooth="yes"/>
      <point x="510" y="391"/>
      <point x="510" y="284" type="qcurve" smooth="yes"/>
      <point x="510" y="188"/>
      <point x="400" y="141" type="qcurve"/>
      <point x="400" y="135" type="line"/>
      <point x="475" y="90"/>
      <point x="475" y="4" type="qcurve" smooth="yes"/>
      <point x="475" y="-69"/>
      <point x="366" y="-155"/>
    </contour>
    <contour>
      <point x="365" y="152" type="line"/>
      <point x="431" y="199"/>
      <point x="431" y="263" type="qcurve" smooth="yes"/>
      <point x="431" y="305"/>
      <point x="374" y="358"/>
      <point x="314" y="375" type="qcurve" smooth="yes"/>
      <point x="244" y="394"/>
      <point x="220" y="403" type="qcurve"/>
      <point x="155" y="358"/>
      <point x="155" y="292" type="qcurve" smooth="yes"/>
      <point x="155" y="250"/>
      <point x="211" y="197"/>
      <point x="271" y="180" type="qcurve" smooth="yes"/>
      <point x="344" y="160"/>
      <point x="358" y="155" type="qcurve"/>
    </contour>
  </outline>
</glyph>
<glyph name="guillemotleft" format="2">
  <advance width="513"/>
  <unicode hex="00AB"/>
  <outline>
    <contour>
      <point x="36" y="246" type="line"/>
      <point x="36" y="322" type="line"/>
      <point x="228" y="488" type="line"/>
      <point x="252" y="434" type="line"/>
      <point x="115" y="284" type="line"/>
      <point x="252" y="134" type="line"/>
      <point x="228" y="80" type="line"/>
    </contour>
    <contour>
      <point x="245" y="246" type="line"/>
      <point x="245" y="322" type="line"/>
      <point x="437" y="488" type="line"/>
      <point x="461" y="434" type="line"/>
      <point x="324" y="284" type="line"/>
      <point x="461" y="134" type="line"/>
      <point x="437" y="80" type="line"/>
    </contour>
  </outline>
</glyph>
<glyph name="softhyphen" format="2">
  <advance width="399"/>
  <unicode hex="00AD"/>
  <outline>
    <contour>
      <point x="69" y="261" type="line"/>
      <point x="69" y="347" type="line"/>
      <point x="330" y="347" type="line"/>
      <point x="330" y="261" type="line"/>
    </contour>
  </outline>
</glyph>
<glyph name="degree" format="2">
  <advance width="468"/>
  <unicode hex="00B0"/>
  <outline>
    <contour>
      <point x="234" y="430" type="qcurve" smooth="yes"/>
      <point x="279" y="430"/>
      <point x="332" y="493"/>
      <point x="332" y="538" type="qcurve" smooth="yes"/>
      <point x="332" y="583"/>
      <point x="279" y="646"/>
      <point x="234" y="646" type="qcurve" smooth="yes"/>
      <point x="189" y="646"/>
      <point x="136" y="583"/>
      <point x="136" y="538" type="qcurve" smooth="yes"/>
      <point x="136" y="493"/>
      <point x="189" y="430"/>
    </contour>
    <contour>
      <point x="234" y="366" type="qcurve" smooth="yes"/>
      <point x="162" y="366"/>
      <point x="66" y="465"/>
      <point x="66" y="538" type="qcurve" smooth="yes"/>
      <point x="66" y="612"/>
      <point x="162" y="710"/>
      <point x="234" y="710" type="qcurve" smooth="yes"/>
      <point x="306" y="710"/>
      <point x="402" y="612"/>
      <point x="402" y="538" type="qcurve" smooth="yes"/>
      <point x="402" y="465"/>
      <point x="306" y="366"/>
    </contour>
  </outline>
</glyph>
<glyph name="u00B2" format="2">
  <advance width="346"/>
  <unicode hex="00B2"/>
  <outline>
    <contour>
      <point x="39" y="329" type="line"/>
      <point x="39" y="386" type="line"/>
      <point x="169" y="491" type="line" smooth="yes"/>
      <point x="198" y="515"/>
      <point x="231" y="562"/>
      <point x="231" y="595" type="qcurve" smooth="yes"/>
      <point x="231" y="652"/>
      <point x="166" y="652" type="qcurve" smooth="yes"/>
      <point x="131" y="652"/>
      <point x="96" y="619"/>
      <point x="88" y="594" type="qcurve"/>
      <point x="34" y="614" type="line"/>
      <point x="46" y="651"/>
      <point x="110" y="704"/>
      <point x="170" y="704" type="qcurve" smooth="yes"/>
      <point x="232" y="704"/>
      <point x="298" y="643"/>
      <point x="298" y="595" type="qcurve" smooth="yes"/>
      <point x="298" y="551"/>
      <point x="246" y="486"/>
      <point x="203" y="454" type="qcurve" smooth="yes"/>
      <point x="106" y="379" type="line"/>
      <point x="311" y="379" type="line"/>
      <point x="311" y="329" type="line"/>
    </contour>
  </outline>
</glyph>
<glyph name="mu" format="2">
  <advance width="573"/>
  <unicode hex="00B5"/>
  <outline>
    <contour>
      <point x="85" y="-200" type="line"/>
      <point x="85" y="516" type="line"/>
      <point x="165" y="516" type="line"/>
      <point x="165" y="199" type="line"/>
      <point x="168" y="60"/>
      <point x="282" y="60" type="qcurve" smooth="yes"/>
      <point x="330" y="60"/>
      <point x="369" y="85" type="qcurve"/>
      <point x="408" y="108"/>
      <point x="408" y="160" type="qcurve" smooth="yes"/>
      <point x="408" y="516" type="line"/>
      <point x="488" y="516" type="line"/>
      <point x="488" y="0" type="line"/>
      <point x="408" y="0" type="line"/>
      <point x="408" y="84" type="line"/>
      <point x="404" y="84" type="line"/>
      <point x="389" y="47"/>
      <point x="356" y="18" type="qcurve"/>
      <point x="318" y="-12"/>
      <point x="262" y="-12" type="qcurve" smooth="yes"/>
      <point x="189" y="-12"/>
      <point x="161" y="40" type="qcurve"/>
      <point x="158" y="40" type="line"/>
      <point x="165" y="-45" type="line"/>
      <point x="165" y="-200" type="line"/>
    </contour>
  </outline>
</glyph>
<glyph name="onesuperior" format="2">
  <advance width="329"/>
  <unicode hex="00B9"/>
  <outline>
    <contour>
      <point x="227" y="329" type="line"/>
      <point x="164" y="329" type="line"/>
      <point x="164" y="644" type="line"/>
      <point x="84" y="602" type="line"/>
      <point x="84" y="659" type="line"/>
      <point x="159" y="698" type="line"/>
      <point x="227" y="698" type="line"/>
    </contour>
  </outline>
</glyph>
<glyph name="threequarters" format="2">
  <advance width="824"/>
  <unicode hex="00BE"/>
  <outline>
    <contour>
      <point x="160" y="323" type="qcurve" smooth="yes"/>
      <point x="105" y="323"/>
      <point x="42" y="362"/>
      <point x="24" y="389" type="qcurve"/>
      <point x="71" y="423" type="line"/>
      <point x="85" y="401"/>
      <point x="125" y="373"/>
      <point x="160" y="373" type="qcurve"/>
      <point x="237" y="376"/>
      <point x="237" y="434" type="qcurve" smooth="yes"/>
      <point x="237" y="440" type="line" smooth="yes"/>
      <point x="237" y="495"/>
      <point x="160" y="495" type="qcurve" smooth="yes"/>
      <point x="115" y="495" type="line"/>
      <point x="115" y="546" type="line"/>
      <point x="155" y="546" type="line" smooth="yes"/>
      <point x="230" y="546"/>
      <point x="230" y="602" type="qcurve"/>
      <point x="225" y="654"/>
      <point x="165" y="654" type="qcurve" smooth="yes"/>
      <point x="112" y="654"/>
      <point x="82" y="609" type="qcurve"/>
      <point x="39" y="643" type="line"/>
      <point x="79" y="704"/>
      <point x="167" y="704" type="qcurve" smooth="yes"/>
      <point x="224" y="704"/>
      <point x="297" y="654"/>
      <point x="297" y="609" type="qcurve" smooth="yes"/>
      <point x="297" y="573"/>
      <point x="252" y="531"/>
      <point x="219" y="524" type="qcurve"/>
      <point x="219" y="521" type="line"/>
      <point x="254" y="515"/>
      <point x="303" y="471"/>
      <point x="303" y="431" type="qcurve" smooth="yes"/>
      <point x="303" y="382"/>
      <point x="226" y="323"/>
    </contour>
    <contour>
      <point x="148" y="0" type="line"/>
      <point x="634" y="698" type="line"/>
      <point x="701" y="698" type="line"/>
      <point x="215" y="0" type="line"/>
    </contour>
    <contour>
      <point x="687" y="0" type="line"/>
      <point x="687" y="72" type="line"/>
      <point x="498" y="72" type="line"/>
      <point x="498" y="124" type="line"/>
      <point x="662" y="369" type="line"/>
      <point x="747" y="369" type="line"/>
      <point x="747" y="120" type="line"/>
      <point x="803" y="120" type="line"/>
      <point x="803" y="72" type="line"/>
      <point x="747" y="72" type="line"/>
      <point x="747" y="0" type="line"/>
    </contour>
    <contour>
      <point x="687" y="312" type="line"/>
      <point x="683" y="312" type="line"/>
      <point x="553" y="120" type="line"/>
      <point x="687" y="120" type="line"/>
    </contour>
  </outline>
</glyph>
<glyph name="Atilde" format="2">
  <advance width="641"/>
  <unicode hex="00C3"/>
  <outline>
    <contour>
      <point x="321" y="620" type="line"/>
      <point x="316" y="620" type="line"/>
      <point x="198" y="280" type="line"/>
      <point x="439" y="280" type="line"/>
    </contour>
    <contour>
      <point x="530" y="0" type="line"/>
      <point x="460" y="206" type="line"/>
      <point x="178" y="206" type="line"/>
      <point x="108" y="0" type="line"/>
      <point x="23" y="0" type="line"/>
      <point x="267" y="698" type="line"/>
      <point x="374" y="698" type="line"/>
      <point x="618" y="0" type="line"/>
    </contour>
    <contour>
      <point x="395" y="782" type="qcurve" smooth="yes"/>
      <point x="371" y="782"/>
      <point x="336" y="796"/>
      <point x="322" y="805" type="qcurve"/>
      <point x="272" y="832"/>
      <point x="245" y="832" type="qcurve" smooth="yes"/>
      <point x="228" y="832"/>
      <point x="202" y="818"/>
      <point x="187" y="805" type="qcurve"/>
      <point x="154" y="845" type="line"/>
      <point x="189" y="898"/>
      <point x="249" y="898" type="qcurve" smooth="yes"/>
      <point x="273" y="898"/>
      <point x="308" y="884"/>
      <point x="322" y="875" type="qcurve"/>
      <point x="372" y="848"/>
      <point x="399" y="848" type="qcurve" smooth="yes"/>
      <point x="416" y="848"/>
      <point x="442" y="862"/>
      <point x="457" y="875" type="qcurve"/>
      <point x="490" y="835" type="line"/>
      <point x="455" y="782"/>
    </contour>
  </outline>
</glyph>
<glyph name="Eth" format="2">
  <advance width="674"/>
  <unicode hex="00D0"/>
  <outline>
    <contour>
      <point x="96" y="0" type="line"/>
      <point x="96" y="337" type="line"/>
      <point x="17" y="337" type="line"/>
      <point x="17" y="401" type="line"/>
      <point x="96" y="401" type="line"/>
      <point x="96" y="698" type="line"/>
      <point x="330" y="698" type="line" smooth="yes"/>
      <point x="461" y="698"/>
      <point x="616" y="523"/>
      <point x="616" y="349" type="qcurve" smooth="yes"/>
      <point x="616" y="175"/>
      <point x="461" y="0"/>
      <point x="330" y="0" type="qcurve" smooth="yes"/>
    </contour>
    <contour>
      <point x="330" y="74" type="line" smooth="yes"/>
      <point x="416" y="74"/>
      <point x="526" y="189"/>
      <point x="526" y="292" type="qcurve" smooth="yes"/>
      <point x="526" y="406" type="line" smooth="yes"/>
      <point x="526" y="510"/>
      <point x="416" y="624"/>
      <point x="330" y="624" type="qcurve" smooth="yes"/>
      <point x="180" y="624" type="line"/>
      <point x="180" y="401" type="line"/>
      <point x="317" y="401" type="line"/>
      <point x="317" y="337" type="line"/>
      <point x="180" y="337" type="line"/>
      <point x="180" y="74" type="line"/>
    </contour>
  </outline>
</glyph>
<glyph name="Ntilde" format="2">
  <advance width="707"/>
  <unicode hex="00D1"/>
  <outline>
    <contour>
      <point x="426" y="782" type="qcurve" smooth="yes"/>
      <point x="402" y="782"/>
      <point x="367" y="796"/>
      <point x="353" y="805" type="qcurve"/>
      <point x="303" y="832"/>
      <point x="276" y="832" type="qcurve" smooth="yes"/>
      <point x="259" y="832"/>
      <point x="233" y="818"/>
      <point x="218" y="805" type="qcurve"/>
      <point x="185" y="845" type="line"/>
      <point x="220" y="898"/>
      <point x="280" y="898" type="qcurve" smooth="yes"/>
      <point x="304" y="898"/>
      <point x="339" y="884"/>
      <point x="353" y="875" type="qcurve"/>
      <point x="403" y="848"/>
      <point x="430" y="848" type="qcurve" smooth="yes"/>
      <point x="447" y="848"/>
      <point x="473" y="862"/>
      <point x="488" y="875" type="qcurve"/>
      <point x="521" y="835" type="line"/>
      <point x="486" y="782"/>
    </contour>
    <contour>
      <point x="517" y="0" type="line"/>
      <point x="262" y="426" type="line"/>
      <point x="178" y="581" type="line"/>
      <point x="175" y="581" type="line"/>
      <point x="175" y="0" type="line"/>
      <point x="93" y="0" type="line"/>
      <point x="93" y="698" type="line"/>
      <point x="190" y="698" type="line"/>
      <point x="445" y="272" type="line"/>
      <point x="529" y="117" type="line"/>
      <point x="532" y="117" type="line"/>
      <point x="532" y="698" type="line"/>
      <point x="614" y="698" type="line"/>
      <point x="614" y="0" type="line"/>
    </contour>
  </outline>
</glyph>
<glyph name="Oslash" format="2">
  <advance width="708"/>
  <unicode hex="00D8"/>
  <outline>
    <contour>
      <point x="354" y="63" type="qcurve" smooth="yes"/>
      <point x="444" y="63"/>
      <point x="560" y="188"/>
      <point x="560" y="291" type="qcurve" smooth="yes"/>
      <point x="560" y="407" type="line" smooth="yes"/>
      <point x="560" y="484"/>
      <point x="528" y="538" type="qcurve"/>
      <point x="226" y="106" type="line"/>
      <point x="278" y="63"/>
    </contour>
    <contour>
      <point x="482" y="592" type="line"/>
      <point x="431" y="635"/>
      <point x="354" y="635" type="qcurve" smooth="yes"/>
      <point x="264" y="635"/>
      <point x="148" y="511"/>
      <point x="148" y="407" type="qcurve" smooth="yes"/>
      <point x="148" y="291" type="line" smooth="yes"/>
      <point x="148" y="215"/>
      <point x="180" y="160" type="qcurve"/>
    </contour>
    <contour>
      <point x="64" y="-8" type="line"/>
      <point x="132" y="89" type="line"/>
      <point x="58" y="180"/>
      <point x="58" y="349" type="qcurve" smooth="yes"/>
      <point x="58" y="525"/>
      <point x="139" y="617" type="qcurve"/>
      <point x="218" y="710"/>
      <point x="354" y="710" type="qcurve" smooth="yes"/>
      <point x="456" y="710"/>
      <point x="527" y="657" type="qcurve"/>
      <point x="587" y="743" type="line"/>
      <point x="644" y="706" type="line"/>
      <point x="576" y="609" type="line"/>
      <point x="650" y="519"/>
      <point x="650" y="349" type="qcurve" smooth="yes"/>
      <point x="650" y="174"/>
      <point x="488" y="-12"/>
      <point x="354" y="-12" type="qcurve" smooth="yes"/>
      <point x="252" y="-12"/>
      <point x="181" y="41" type="qcurve"/>
      <point x="121" y="-45" type="line"/>
    </contour>
  </outline>
</glyph>
<glyph name="Uacute" format="2">
  <advance width="678"/>
  <unicode hex="00DA"/>
  <outline>
    <contour>
      <point x="292" y="779" type="line"/>
      <point x="377" y="949" type="line"/>
      <point x="450" y="914" type="line"/>
      <point x="344" y="755" type="line"/>
    </contour>
    <contour>
      <point x="336" y="-12" type="qcurve" smooth="yes"/>
      <point x="197" y="-12"/>
      <point x="142" y="61" type="qcurve"/>
      <point x="88" y="130"/>
      <point x="88" y="286" type="qcurve" smooth="yes"/>
      <point x="88" y="698" type="line"/>
      <point x="172" y="698" type="line"/>
      <point x="172" y="266" type="line" smooth="yes"/>
      <point x="172" y="166"/>
      <point x="246" y="63"/>
      <point x="339" y="63" type="qcurve" smooth="yes"/>
      <point x="432" y="63"/>
      <point x="506" y="166"/>
      <point x="506" y="266" type="qcurve" smooth="yes"/>
      <point x="506" y="698" type="line"/>
      <point x="590" y="698" type="line"/>
      <point x="590" y="286" type="line" smooth="yes"/>
      <point x="590" y="135"/>
      <point x="476" y="-12"/>
    </contour>
  </outline>
</glyph>
<glyph name="Ucircumflex" format="2">
  <advance width="678"/>
  <unicode hex="00DB"/>
  <outline>
    <contour>
      <point x="337" y="878" type="line"/>
      <point x="220" y="761" type="line"/>
      <point x="176" y="792" type="line"/>
      <point x="287" y="935" type="line"/>
      <point x="387" y="935" type="line"/>
      <point x="498" y="792" type="line"/>
      <point x="454" y="761" type="line"/>
    </contour>
    <contour>
      <point x="336" y="-12" type="qcurve" smooth="yes"/>
      <point x="197" y="-12"/>
      <point x="142" y="61" type="qcurve"/>
      <point x="88" y="130"/>
      <point x="88" y="286" type="qcurve" smooth="yes"/>
      <point x="88" y="698" type="line"/>
      <point x="172" y="698" type="line"/>
      <point x="172" y="266" type="line" smooth="yes"/>
      <point x="172" y="166"/>
      <point x="246" y="63"/>
      <point x="339" y="63" type="qcurve" smooth="yes"/>
      <point x="432" y="63"/>
      <point x="506" y="166"/>
      <point x="506" y="266" type="qcurve" smooth="yes"/>
      <point x="506" y="698" type="line"/>
      <point x="590" y="698" type="line"/>
      <point x="590" y="286" type="line" smooth="yes"/>
      <point x="590" y="135"/>
      <point x="476" y="-12"/>
    </contour>
  </outline>
</glyph>
<glyph name="Udieresis" format="2">
  <advance width="678"/>
  <unicode hex="00DC"/>
  <outline>
    <contour>
      <point x="336" y="-12" type="qcurve" smooth="yes"/>
      <point x="197" y="-12"/>
      <point x="142" y="61" type="qcurve"/>
      <point x="88" y="130"/>
      <point x="88" y="286" type="qcurve" smooth="yes"/>
      <point x="88" y="698" type="line"/>
      <point x="172" y="698" type="line"/>
      <point x="172" y="266" type="line" smooth="yes"/>
      <point x="172" y="166"/>
      <point x="246" y="63"/>
      <point x="339" y="63" type="qcurve" smooth="yes"/>
      <point x="432" y="63"/>
      <point x="506" y="166"/>
      <point x="506" y="266" type="qcurve" smooth="yes"/>
      <point x="506" y="698" type="line"/>
      <point x="590" y="698" type="line"/>
      <point x="590" y="286" type="line" smooth="yes"/>
      <point x="590" y="135"/>
      <point x="476" y="-12"/>
    </contour>
    <contour>
      <point x="244" y="788" type="qcurve" smooth="yes"/>
      <point x="194" y="788"/>
      <point x="194" y="835" type="qcurve" smooth="yes"/>
      <point x="194" y="847" type="line" smooth="yes"/>
      <point x="194" y="894"/>
      <point x="244" y="894" type="qcurve" smooth="yes"/>
      <point x="294" y="894"/>
      <point x="294" y="847" type="qcurve" smooth="yes"/>
      <point x="294" y="835" type="line" smooth="yes"/>
      <point x="294" y="788"/>
    </contour>
    <contour>
      <point x="430" y="788" type="qcurve" smooth="yes"/>
      <point x="380" y="788"/>
      <point x="380" y="835" type="qcurve" smooth="yes"/>
      <point x="380" y="847" type="line" smooth="yes"/>
      <point x="380" y="894"/>
      <point x="430" y="894" type="qcurve" smooth="yes"/>
      <point x="480" y="894"/>
      <point x="480" y="847" type="qcurve" smooth="yes"/>
      <point x="480" y="835" type="line" smooth="yes"/>
      <point x="480" y="788"/>
    </contour>
  </outline>
</glyph>
<glyph name="Yacute" format="2">
  <advance width="593"/>
  <unicode hex="00DD"/>
  <outline>
    <contour>
      <point x="253" y="0" type="line"/>
      <point x="253" y="276" type="line"/>
      <point x="13" y="698" type="line"/>
      <point x="109" y="698" type="line"/>
      <point x="295" y="362" type="line"/>
      <point x="298" y="362" type="line"/>
      <point x="484" y="698" type="line"/>
      <point x="580" y="698" type="line"/>
      <point x="337" y="279" type="line"/>
      <point x="337" y="0" type="line"/>
    </contour>
    <contour>
      <point x="253" y="779" type="line"/>
      <point x="338" y="949" type="line"/>
      <point x="411" y="914" type="line"/>
      <point x="305" y="755" type="line"/>
    </contour>
  </outline>
</glyph>
<glyph name="Thorn" format="2">
  <advance width="606"/>
  <unicode hex="00DE"/>
  <outline>
    <contour>
      <point x="371" y="229" type="line"/>
      <point x="476" y="233"/>
      <point x="476" y="329" type="qcurve" smooth="yes"/>
      <point x="476" y="379" type="line"/>
      <point x="472" y="479"/>
      <point x="371" y="479" type="qcurve" smooth="yes"/>
      <point x="177" y="479" type="line"/>
      <point x="177" y="229" type="line"/>
    </contour>
    <contour>
      <point x="93" y="0" type="line"/>
      <point x="93" y="698" type="line"/>
      <point x="177" y="698" type="line"/>
      <point x="177" y="554" type="line"/>
      <point x="371" y="554" type="line" smooth="yes"/>
      <point x="465" y="554"/>
      <point x="566" y="446"/>
      <point x="566" y="354" type="qcurve" smooth="yes"/>
      <point x="566" y="262"/>
      <point x="465" y="154"/>
      <point x="371" y="154" type="qcurve" smooth="yes"/>
      <point x="177" y="154" type="line"/>
      <point x="177" y="0" type="line"/>
    </contour>
  </outline>
</glyph>
<glyph name="eth" format="2">
  <advance width="555"/>
  <unicode hex="00F0"/>
  <outline>
    <contour>
      <point x="276" y="57" type="qcurve" smooth="yes"/>
      <point x="341" y="57"/>
      <point x="419" y="141"/>
      <point x="419" y="213" type="qcurve" smooth="yes"/>
      <point x="419" y="279" type="line" smooth="yes"/>
      <point x="419" y="351"/>
      <point x="341" y="435"/>
      <point x="276" y="435" type="qcurve" smooth="yes"/>
      <point x="211" y="435"/>
      <point x="133" y="351"/>
      <point x="133" y="279" type="qcurve" smooth="yes"/>
      <point x="133" y="213" type="line" smooth="yes"/>
      <point x="133" y="141"/>
      <point x="211" y="57"/>
    </contour>
    <contour>
      <point x="276" y="-12" type="qcurve" smooth="yes"/>
      <point x="170" y="-12"/>
      <point x="47" y="132"/>
      <point x="47" y="246" type="qcurve" smooth="yes"/>
      <point x="47" y="360"/>
      <point x="170" y="504"/>
      <point x="276" y="504" type="qcurve" smooth="yes"/>
      <point x="374" y="504"/>
      <point x="406" y="406" type="qcurve"/>
      <point x="410" y="408" type="line"/>
      <point x="383" y="524"/>
      <point x="282" y="615" type="qcurve"/>
      <point x="203" y="559" type="line"/>
      <point x="172" y="600" type="line"/>
      <point x="242" y="650" type="line"/>
      <point x="177" y="701"/>
      <point x="111" y="740" type="qcurve"/>
      <point x="234" y="740" type="line"/>
      <point x="265" y="722"/>
      <point x="300" y="692" type="qcurve"/>
      <point x="385" y="753" type="line"/>
      <point x="418" y="712" type="line"/>
      <point x="340" y="656" type="line"/>
      <point x="405" y="595"/>
      <point x="454" y="499" type="qcurve"/>
      <point x="505" y="395"/>
      <point x="505" y="271" type="qcurve" smooth="yes"/>
      <point x="505" y="132"/>
      <point x="377" y="-12"/>
    </contour>
  </outline>
</glyph>
<glyph name="odieresis" format="2">
  <advance width="560"/>
  <unicode hex="00F6"/>
  <outline>
    <contour>
      <point x="188" y="618" type="qcurve" smooth="yes"/>
      <point x="139" y="618"/>
      <point x="139" y="664" type="qcurve" smooth="yes"/>
      <point x="139" y="675" type="line" smooth="yes"/>
      <point x="139" y="721"/>
      <point x="188" y="721" type="qcurve" smooth="yes"/>
      <point x="237" y="721"/>
      <point x="237" y="675" type="qcurve" smooth="yes"/>
      <point x="237" y="664" type="line" smooth="yes"/>
      <point x="237" y="618"/>
    </contour>
    <contour>
      <point x="374" y="618" type="qcurve" smooth="yes"/>
      <point x="325" y="618"/>
      <point x="325" y="664" type="qcurve" smooth="yes"/>
      <point x="325" y="675" type="line" smooth="yes"/>
      <point x="325" y="721"/>
      <point x="374" y="721" type="qcurve" smooth="yes"/>
      <point x="423" y="721"/>
      <point x="423" y="675" type="qcurve" smooth="yes"/>
      <point x="423" y="664" type="line" smooth="yes"/>
      <point x="423" y="618"/>
    </contour>
    <contour>
      <point x="280" y="-12" type="qcurve" smooth="yes"/>
      <point x="177" y="-12"/>
      <point x="112" y="62" type="qcurve" smooth="yes"/>
      <point x="47" y="134"/>
      <point x="47" y="258" type="qcurve" smooth="yes"/>
      <point x="47" y="380"/>
      <point x="177" y="528"/>
      <point x="280" y="528" type="qcurve" smooth="yes"/>
      <point x="384" y="528"/>
      <point x="513" y="380"/>
      <point x="513" y="258" type="qcurve" smooth="yes"/>
      <point x="513" y="134"/>
      <point x="448" y="62" type="qcurve"/>
      <point x="384" y="-12"/>
    </contour>
    <contour>
      <point x="280" y="59" type="qcurve" smooth="yes"/>
      <point x="345" y="59"/>
      <point x="427" y="139"/>
      <point x="427" y="221" type="qcurve" smooth="yes"/>
      <point x="427" y="295" type="line" smooth="yes"/>
      <point x="427" y="377"/>
      <point x="345" y="457"/>
      <point x="280" y="457" type="qcurve" smooth="yes"/>
      <point x="215" y="457"/>
      <point x="133" y="377"/>
      <point x="133" y="295" type="qcurve" smooth="yes"/>
      <point x="133" y="221" type="line" smooth="yes"/>
      <point x="133" y="139"/>
      <point x="215" y="59"/>
    </contour>
  </outline>
</glyph>
<glyph name="ugrave" format="2">
  <advance width="568"/>
  <unicode hex="00F9"/>
  <outline>
    <contour>
      <point x="170" y="744" type="line"/>
      <point x="243" y="779" type="line"/>
      <point x="328" y="609" type="line"/>
      <point x="276" y="585" type="line"/>
    </contour>
    <contour>
      <point x="254" y="-12" type="qcurve" smooth="yes"/>
      <point x="174" y="-12"/>
      <point x="80" y="91"/>
      <point x="80" y="185" type="qcurve" smooth="yes"/>
      <point x="80" y="516" type="line"/>
      <point x="160" y="516" type="line"/>
      <point x="160" y="199" type="line" smooth="yes"/>
      <point x="160" y="60"/>
      <point x="278" y="60" type="qcurve" smooth="yes"/>
      <point x="326" y="60"/>
      <point x="365" y="84" type="qcurve"/>
      <point x="403" y="110"/>
      <point x="403" y="159" type="qcurve" smooth="yes"/>
      <point x="403" y="516" type="line"/>
      <point x="483" y="516" type="line"/>
      <point x="483" y="0" type="line"/>
      <point x="403" y="0" type="line"/>
      <point x="403" y="84" type="line"/>
      <point x="399" y="84" type="line"/>
      <point x="361" y="-12"/>
    </contour>
  </outline>
</glyph>
<glyph name="udieresis" format="2">
  <advance width="568"/>
  <unicode hex="00FC"/>
  <outline>
    <contour>
      <point x="190" y="618" type="qcurve" smooth="yes"/>
      <point x="141" y="618"/>
      <point x="141" y="664" type="qcurve" smooth="yes"/>
      <point x="141" y="675" type="line" smooth="yes"/>
      <point x="141" y="721"/>
      <point x="190" y="721" type="qcurve" smooth="yes"/>
      <point x="239" y="721"/>
      <point x="239" y="675" type="qcurve" smooth="yes"/>
      <point x="239" y="664" type="line" smooth="yes"/>
      <point x="239" y="618"/>
    </contour>
    <contour>
      <point x="376" y="618" type="qcurve" smooth="yes"/>
      <point x="327" y="618"/>
      <point x="327" y="664" type="qcurve" smooth="yes"/>
      <point x="327" y="675" type="line" smooth="yes"/>
      <point x="327" y="721"/>
      <point x="376" y="721" type="qcurve" smooth="yes"/>
      <point x="425" y="721"/>
      <point x="425" y="675" type="qcurve" smooth="yes"/>
      <point x="425" y="664" type="line" smooth="yes"/>
      <point x="425" y="618"/>
    </contour>
    <contour>
      <point x="254" y="-12" type="qcurve" smooth="yes"/>
      <point x="174" y="-12"/>
      <point x="80" y="91"/>
      <point x="80" y="185" type="qcurve" smooth="yes"/>
      <point x="80" y="516" type="line"/>
      <point x="160" y="516" type="line"/>
      <point x="160" y="199" type="line" smooth="yes"/>
      <point x="160" y="60"/>
      <point x="278" y="60" type="qcurve" smooth="yes"/>
      <point x="326" y="60"/>
      <point x="365" y="84" type="qcurve"/>
      <point x="403" y="110"/>
      <point x="403" y="159" type="qcurve" smooth="yes"/>
      <point x="403" y="516" type="line"/>
      <point x="483" y="516" type="line"/>
      <point x="483" y="0" type="line"/>
      <point x="403" y="0" type="line"/>
      <point x="403" y="84" type="line"/>
      <point x="399" y="84" type="line"/>
      <point x="361" y="-12"/>
    </contour>
  </outline>
</glyph>
<glyph name="Abreve" format="2">
  <advance width="641"/>
  <unicode hex="0102"/>
  <outline>
    <contour>
      <point x="321" y="620" type="line"/>
      <point x="316" y="620" type="line"/>
      <point x="198" y="280" type="line"/>
      <point x="439" y="280" type="line"/>
    </contour>
    <contour>
      <point x="530" y="0" type="line"/>
      <point x="460" y="206" type="line"/>
      <point x="178" y="206" type="line"/>
      <point x="108" y="0" type="line"/>
      <point x="23" y="0" type="line"/>
      <point x="267" y="698" type="line"/>
      <point x="374" y="698" type="line"/>
      <point x="618" y="0" type="line"/>
    </contour>
    <contour>
      <point x="322" y="766" type="qcurve" smooth="yes"/>
      <point x="203" y="766"/>
      <point x="170" y="891" type="qcurve"/>
      <point x="215" y="913" type="line"/>
      <point x="236" y="880" type="line"/>
      <point x="248" y="858"/>
      <point x="284" y="829"/>
      <point x="322" y="829" type="qcurve" smooth="yes"/>
      <point x="360" y="829"/>
      <point x="395" y="857"/>
      <point x="408" y="880" type="qcurve"/>
      <point x="429" y="913" type="line"/>
      <point x="474" y="891" type="line"/>
      <point x="463" y="847"/>
      <point x="432" y="808" type="qcurve"/>
      <point x="395" y="766"/>
    </contour>
  </outline>
</glyph>
<glyph name="Cdot" format="2">
  <advance width="621"/>
  <unicode hex="010A"/>
  <outline>
    <contour>
      <point x="338" y="780" type="qcurve" smooth="yes"/>
      <point x="282" y="780"/>
      <point x="282" y="833" type="qcurve" smooth="yes"/>
      <point x="282" y="847" type="line" smooth="yes"/>
      <point x="282" y="900"/>
      <point x="338" y="900" type="qcurve" smooth="yes"/>
      <point x="394" y="900"/>
      <point x="394" y="847" type="qcurve" smooth="yes"/>
      <point x="394" y="833" type="line" smooth="yes"/>
      <point x="394" y="780"/>
    </contour>
    <contour>
      <point x="339" y="-12" type="qcurve" smooth="yes"/>
      <point x="206" y="-12"/>
      <point x="58" y="169"/>
      <point x="58" y="345" type="qcurve" smooth="yes"/>
      <point x="58" y="521"/>
      <point x="206" y="710"/>
      <point x="339" y="710" type="qcurve" smooth="yes"/>
      <point x="510" y="710"/>
      <point x="579" y="557" type="qcurve"/>
      <point x="511" y="516" type="line"/>
      <point x="490" y="571"/>
      <point x="404" y="635"/>
      <point x="339" y="635" type="qcurve" smooth="yes"/>
      <point x="249" y="635"/>
      <point x="148" y="505"/>
      <point x="148" y="397" type="qcurve" smooth="yes"/>
      <point x="148" y="293" type="line" smooth="yes"/>
      <point x="148" y="185"/>
      <point x="248" y="63"/>
      <point x="339" y="63" type="qcurve" smooth="yes"/>
      <point x="406" y="63"/>
      <point x="496" y="131"/>
      <point x="517" y="189" type="qcurve"/>
      <point x="584" y="147" type="line"/>
      <point x="551" y="72"/>
      <point x="427" y="-12"/>
    </contour>
  </outline>
</glyph>
<glyph name="ccaron" format="2">
  <advance width="503"/>
  <unicode hex="010D"/>
  <outline>
    <contour>
      <point x="227" y="599" type="line"/>
      <point x="116" y="742" type="line"/>
      <point x="160" y="773" type="line"/>
      <point x="277" y="656" type="line"/>
      <point x="394" y="773" type="line"/>
      <point x="438" y="742" type="line"/>
      <point x="327" y="599" type="line"/>
    </contour>
    <contour>
      <point x="277" y="-12" type="qcurve" smooth="yes"/>
      <point x="169" y="-12"/>
      <point x="47" y="134"/>
      <point x="47" y="258" type="qcurve" smooth="yes"/>
      <point x="47" y="383"/>
      <point x="169" y="528"/>
      <point x="277" y="528" type="qcurve" smooth="yes"/>
      <point x="420" y="528"/>
      <point x="470" y="407" type="qcurve"/>
      <point x="403" y="373" type="line"/>
      <point x="373" y="457"/>
      <point x="277" y="457" type="qcurve" smooth="yes"/>
      <point x="205" y="457"/>
      <point x="133" y="370"/>
      <point x="133" y="302" type="qcurve" smooth="yes"/>
      <point x="133" y="214" type="line" smooth="yes"/>
      <point x="133" y="146"/>
      <point x="206" y="59"/>
      <point x="277" y="59" type="qcurve" smooth="yes"/>
      <point x="375" y="59"/>
      <point x="417" y="149" type="qcurve"/>
      <point x="475" y="110" type="line"/>
      <point x="450" y="53"/>
      <point x="351" y="-12"/>
    </contour>
  </outline>
</glyph>
<glyph name="ebreve" format="2">
  <advance width="549"/>
  <unicode hex="0115"/>
  <outline>
    <contour>
      <point x="280" y="596" type="qcurve" smooth="yes"/>
      <point x="161" y="596"/>
      <point x="128" y="721" type="qcurve"/>
      <point x="173" y="743" type="line"/>
      <point x="194" y="710" type="line"/>
      <point x="206" y="688"/>
      <point x="242" y="659"/>
      <point x="280" y="659" type="qcurve" smooth="yes"/>
      <point x="318" y="659"/>
      <point x="353" y="687"/>
      <point x="366" y="710" type="qcurve"/>
      <point x="387" y="743" type="line"/>
      <point x="432" y="721" type="line"/>
      <point x="421" y="677"/>
      <point x="390" y="638" type="qcurve"/>
      <point x="353" y="596"/>
    </contour>
    <contour>
      <point x="279" y="-12" type="qcurve" smooth="yes"/>
      <point x="173" y="-12"/>
      <point x="111" y="62" type="qcurve"/>
      <point x="47" y="134"/>
      <point x="47" y="258" type="qcurve" smooth="yes"/>
      <point x="47" y="380"/>
      <point x="173" y="528"/>
      <point x="279" y="528" type="qcurve" smooth="yes"/>
      <point x="380" y="528"/>
      <point x="442" y="457" type="qcurve"/>
      <point x="502" y="386"/>
      <point x="502" y="276" type="qcurve" smooth="yes"/>
      <point x="502" y="238" type="line"/>
      <point x="131" y="238" type="line"/>
      <point x="131" y="214" type="line" smooth="yes"/>
      <point x="131" y="148"/>
      <point x="212" y="58"/>
      <point x="284" y="58" type="qcurve" smooth="yes"/>
      <point x="382" y="58"/>
      <point x="426" y="147" type="qcurve"/>
      <point x="483" y="106" type="line"/>
      <point x="458" y="52"/>
      <point x="352" y="-12"/>
    </contour>
    <contour>
      <point x="416" y="309" type="line" smooth="yes"/>
      <point x="416" y="378"/>
      <point x="341" y="461"/>
      <point x="279" y="461" type="qcurve" smooth="yes"/>
      <point x="213" y="461"/>
      <point x="131" y="373"/>
      <point x="131" y="305" type="qcurve" smooth="yes"/>
      <point x="131" y="298" type="line"/>
      <point x="416" y="298" type="line"/>
    </contour>
  </outline>
</glyph>
<glyph name="Edotaccent" format="2">
  <advance width="583"/>
  <unicode hex="0116"/>
  <outline>
    <contour>
      <point x="93" y="0" type="line"/>
      <point x="93" y="698" type="line"/>
      <point x="519" y="698" type="line"/>
      <point x="519" y="624" type="line"/>
      <point x="177" y="624" type="line"/>
      <point x="177" y="390" type="line"/>
      <point x="499" y="390" type="line"/>
      <point x="499" y="316" type="line"/>
      <point x="177" y="316" type="line"/>
      <point x="177" y="74" type="line"/>
      <point x="519" y="74" type="line"/>
      <point x="519" y="0" type="line"/>
    </contour>
    <contour>
      <point x="304" y="780" type="qcurve" smooth="yes"/>
      <point x="248" y="780"/>
      <point x="248" y="833" type="qcurve" smooth="yes"/>
      <point x="248" y="847" type="line" smooth="yes"/>
      <point x="248" y="900"/>
      <point x="304" y="900" type="qcurve" smooth="yes"/>
      <point x="360" y="900"/>
      <point x="360" y="847" type="qcurve" smooth="yes"/>
      <point x="360" y="833" type="line" smooth="yes"/>
      <point x="360" y="780"/>
    </contour>
  </outline>
</glyph>
<glyph name="hcircumflex" format="2">
  <advance width="568"/>
  <unicode hex="0125"/>
  <outline>
    <contour>
      <point x="128" y="866" type="line"/>
      <point x="11" y="749" type="line"/>
      <point x="-33" y="780" type="line"/>
      <point x="78" y="923" type="line"/>
      <point x="178" y="923" type="line"/>
      <point x="289" y="780" type="line"/>
      <point x="245" y="749" type="line"/>
    </contour>
    <contour>
      <point x="408" y="0" type="line"/>
      <point x="408" y="317" type="line" smooth="yes"/>
      <point x="408" y="456"/>
      <point x="291" y="456" type="qcurve" smooth="yes"/>
      <point x="243" y="456"/>
      <point x="165" y="408"/>
      <point x="165" y="358" type="qcurve" smooth="yes"/>
      <point x="165" y="0" type="line"/>
      <point x="85" y="0" type="line"/>
      <point x="85" y="740" type="line"/>
      <point x="165" y="740" type="line"/>
      <point x="165" y="432" type="line"/>
      <point x="169" y="432" type="line"/>
      <point x="208" y="528"/>
      <point x="315" y="528" type="qcurve" smooth="yes"/>
      <point x="395" y="528"/>
      <point x="488" y="425"/>
      <point x="488" y="331" type="qcurve" smooth="yes"/>
      <point x="488" y="0" type="line"/>
    </contour>
  </outline>
</glyph>
<glyph name="itilde" format="2">
  <advance width="250"/>
  <unicode hex="0129"/>
  <outline>
    <contour>
      <point x="85" y="0" type="line"/>
      <point x="85" y="516" type="line"/>
      <point x="165" y="516" type="line"/>
      <point x="165" y="0" type="line"/>
    </contour>
    <contour>
      <point x="199" y="612" type="qcurve" smooth="yes"/>
      <point x="175" y="612"/>
      <point x="140" y="626"/>
      <point x="126" y="635" type="qcurve"/>
      <point x="76" y="662"/>
      <point x="49" y="662" type="qcurve" smooth="yes"/>
      <point x="32" y="662"/>
      <point x="6" y="648"/>
      <point x="-9" y="635" type="qcurve"/>
      <point x="-42" y="675" type="line"/>
      <point x="-7" y="728"/>
      <point x="53" y="728" type="qcurve" smooth="yes"/>
      <point x="77" y="728"/>
      <point x="112" y="714"/>
      <point x="126" y="705" type="qcurve"/>
      <point x="176" y="678"/>
      <point x="203" y="678" type="qcurve" smooth="yes"/>
      <point x="220" y="678"/>
      <point x="246" y="692"/>
      <point x="261" y="705" type="qcurve"/>
      <point x="294" y="665" type="line"/>
      <point x="259" y="612"/>
    </contour>
  </outline>
</glyph>
<glyph name="imacron" format="2">
  <advance width="250"/>
  <unicode hex="012B"/>
  <outline>
    <contour>
      <point x="85" y="0" type="line"/>
      <point x="85" y="516" type="line"/>
      <point x="165" y="516" type="line"/>
      <point x="165" y="0" type="line"/>
    </contour>
    <contour>
      <point x="-14" y="637" type="line"/>
      <point x="-14" y="705" type="line"/>
      <point x="266" y="705" type="line"/>
      <point x="266" y="637" type="line"/>
    </contour>
  </outline>
</glyph>
<glyph name="Iogonek" format="2">
  <advance width="270"/>
  <unicode hex="012E"/>
  <outline>
    <contour>
      <point x="110" y="-207" type="qcurve" smooth="yes"/>
      <point x="71" y="-207"/>
      <point x="15" y="-171"/>
      <point x="15" y="-131" type="qcurve" smooth="yes"/>
      <point x="15" y="-93"/>
      <point x="68" y="-36"/>
      <point x="116" y="-5" type="qcurve"/>
      <point x="115" y="0" type="line"/>
      <point x="93" y="0" type="line"/>
      <point x="93" y="698" type="line"/>
      <point x="177" y="698" type="line"/>
      <point x="177" y="0" type="line"/>
      <point x="115" y="-57"/>
      <point x="79" y="-106"/>
      <point x="79" y="-123" type="qcurve" smooth="yes"/>
      <point x="79" y="-153"/>
      <point x="110" y="-153" type="qcurve" smooth="yes"/>
      <point x="139" y="-153"/>
      <point x="158" y="-129" type="qcurve"/>
      <point x="198" y="-168" type="line"/>
      <point x="189" y="-184"/>
      <point x="145" y="-207"/>
    </contour>
  </outline>
</glyph>
<glyph name="iogonek" format="2">
  <advance width="250"/>
  <unicode hex="012F"/>
  <outline>
    <contour>
      <point x="98" y="-207" type="qcurve" smooth="yes"/>
      <point x="59" y="-207"/>
      <point x="3" y="-171"/>
      <point x="3" y="-131" type="qcurve" smooth="yes"/>
      <point x="3" y="-93"/>
      <point x="64" y="-33"/>
      <point x="105" y="-4" type="qcurve"/>
      <point x="103" y="0" type="line"/>
      <point x="85" y="0" type="line"/>
      <point x="85" y="516" type="line"/>
      <point x="165" y="516" type="line"/>
      <point x="165" y="0" type="line"/>
      <point x="103" y="-57"/>
      <point x="67" y="-106"/>
      <point x="67" y="-123" type="qcurve" smooth="yes"/>
      <point x="67" y="-153"/>
      <point x="98" y="-153" type="qcurve" smooth="yes"/>
      <point x="127" y="-153"/>
      <point x="146" y="-129" type="qcurve"/>
      <point x="186" y="-168" type="line"/>
      <point x="177" y="-184"/>
      <point x="133" y="-207"/>
    </contour>
    <contour>
      <point x="125" y="637" type="qcurve" smooth="yes"/>
      <point x="76" y="637"/>
      <point x="76" y="682" type="qcurve" smooth="yes"/>
      <point x="76" y="695" type="line" smooth="yes"/>
      <point x="76" y="740"/>
      <point x="125" y="740" type="qcurve" smooth="yes"/>
      <point x="174" y="740"/>
      <point x="174" y="695" type="qcurve" smooth="yes"/>
      <point x="174" y="682" type="line" smooth="yes"/>
      <point x="174" y="637"/>
    </contour>
  </outline>
</glyph>
<glyph name="Idotaccent" format="2">
  <advance width="270"/>
  <unicode hex="0130"/>
  <outline>
    <contour>
      <point x="136" y="780" type="qcurve" smooth="yes"/>
      <point x="80" y="780"/>
      <point x="80" y="833" type="qcurve" smooth="yes"/>
      <point x="80" y="847" type="line" smooth="yes"/>
      <point x="80" y="900"/>
      <point x="136" y="900" type="qcurve" smooth="yes"/>
      <point x="192" y="900"/>
      <point x="192" y="847" type="qcurve" smooth="yes"/>
      <point x="192" y="833" type="line" smooth="yes"/>
      <point x="192" y="780"/>
    </contour>
    <contour>
      <point x="93" y="0" type="line"/>
      <point x="93" y="698" type="line"/>
      <point x="177" y="698" type="line"/>
      <point x="177" y="0" type="line"/>
    </contour>
  </outline>
</glyph>
<glyph name="ij" format="2">
  <advance width="496"/>
  <unicode hex="0133"/>
  <outline>
    <contour>
      <point x="247" y="-200" type="line"/>
      <point x="247" y="-130" type="line"/>
      <point x="331" y="-130" type="line"/>
      <point x="331" y="516" type="line"/>
      <point x="411" y="516" type="line"/>
      <point x="411" y="-80" type="line" smooth="yes"/>
      <point x="411" y="-134"/>
      <point x="357" y="-200"/>
      <point x="299" y="-200" type="qcurve" smooth="yes"/>
    </contour>
    <contour>
      <point x="125" y="637" type="qcurve" smooth="yes"/>
      <point x="76" y="637"/>
      <point x="76" y="682" type="qcurve" smooth="yes"/>
      <point x="76" y="695" type="line" smooth="yes"/>
      <point x="76" y="740"/>
      <point x="125" y="740" type="qcurve" smooth="yes"/>
      <point x="174" y="740"/>
      <point x="174" y="695" type="qcurve" smooth="yes"/>
      <point x="174" y="682" type="line" smooth="yes"/>
      <point x="174" y="637"/>
    </contour>
    <contour>
      <point x="371" y="637" type="qcurve" smooth="yes"/>
      <point x="322" y="637"/>
      <point x="322" y="682" type="qcurve" smooth="yes"/>
      <point x="322" y="695" type="line" smooth="yes"/>
      <point x="322" y="740"/>
      <point x="371" y="740" type="qcurve" smooth="yes"/>
      <point x="420" y="740"/>
      <point x="420" y="695" type="qcurve" smooth="yes"/>
      <point x="420" y="682" type="line" smooth="yes"/>
      <point x="420" y="637"/>
    </contour>
    <contour>
      <point x="85" y="0" type="line"/>
      <point x="85" y="516" type="line"/>
      <point x="165" y="516" type="line"/>
      <point x="165" y="0" type="line"/>
    </contour>
  </outline>
</glyph>
<glyph name="jcircumflex" format="2">
  <advance width="250"/>
  <unicode hex="0135"/>
  <outline>
    <contour>
      <point x="126" y="708" type="line"/>
      <point x="9" y="591" type="line"/>
      <point x="-35" y="622" type="line"/>
      <point x="76" y="765" type="line"/>
      <point x="176" y="765" type="line"/>
      <point x="287" y="622" type="line"/>
      <point x="243" y="591" type="line"/>
    </contour>
    <contour>
      <point x="1" y="-200" type="line"/>
      <point x="1" y="-130" type="line"/>
      <point x="85" y="-130" type="line"/>
      <point x="85" y="516" type="line"/>
      <point x="165" y="516" type="line"/>
      <point x="165" y="-80" type="line" smooth="yes"/>
      <point x="165" y="-134"/>
      <point x="111" y="-200"/>
      <point x="53" y="-200" type="qcurve" smooth="yes"/>
    </contour>
  </outline>
</glyph>
<glyph name="Kcedilla" format="2">
  <advance width="634"/>
  <unicode hex="0136"/>
  <outline>
    <contour>
      <point x="508" y="0" type="line"/>
      <point x="276" y="343" type="line"/>
      <point x="177" y="233" type="line"/>
      <point x="177" y="0" type="line"/>
      <point x="93" y="0" type="line"/>
      <point x="93" y="698" type="line"/>
      <point x="177" y="698" type="line"/>
      <point x="177" y="327" type="line"/>
      <point x="180" y="327" type="line"/>
      <point x="335" y="513"/>
      <point x="491" y="698" type="qcurve"/>
      <point x="594" y="698" type="line"/>
      <point x="334" y="399" type="line"/>
      <point x="612" y="0" type="line"/>
    </contour>
    <contour>
      <point x="269" y="-245" type="line"/>
      <point x="289" y="-225"/>
      <point x="313" y="-190"/>
      <point x="320" y="-167" type="qcurve"/>
      <point x="285" y="-157"/>
      <point x="285" y="-123" type="qcurve" smooth="yes"/>
      <point x="285" y="-113" type="line"/>
      <point x="287" y="-66"/>
      <point x="336" y="-66" type="qcurve"/>
      <point x="387" y="-69"/>
      <point x="387" y="-113" type="qcurve" smooth="yes"/>
      <point x="387" y="-124" type="line" smooth="yes"/>
      <point x="387" y="-188"/>
      <point x="327" y="-245" type="qcurve"/>
    </contour>
  </outline>
</glyph>
<glyph name="u013B" format="2">
  <advance width="501"/>
  <unicode hex="013B"/>
  <outline>
    <contour>
      <point x="231" y="-245" type="line"/>
      <point x="251" y="-225"/>
      <point x="275" y="-190"/>
      <point x="282" y="-167" type="qcurve"/>
      <point x="247" y="-157"/>
      <point x="247" y="-123" type="qcurve" smooth="yes"/>
      <point x="247" y="-113" type="line"/>
      <point x="249" y="-66"/>
      <point x="298" y="-66" type="qcurve"/>
      <point x="349" y="-69"/>
      <point x="349" y="-113" type="qcurve" smooth="yes"/>
      <point x="349" y="-124" type="line" smooth="yes"/>
      <point x="349" y="-188"/>
      <point x="289" y="-245" type="qcurve"/>
    </contour>
    <contour>
      <point x="93" y="0" type="line"/>
      <point x="93" y="698" type="line"/>
      <point x="177" y="698" type="line"/>
      <point x="177" y="74" type="line"/>
      <point x="474" y="74" type="line"/>
      <point x="474" y="0" type="line"/>
    </contour>
  </outline>
</glyph>
<glyph name="lcedilla" format="2">
  <advance width="272"/>
  <unicode hex="013C"/>
  <outline>
    <contour>
      <point x="241" y="0" type="line"/>
      <point x="170" y="0" type="line" smooth="yes"/>
      <point x="129" y="0"/>
      <point x="85" y="47"/>
      <point x="85" y="83" type="qcurve" smooth="yes"/>
      <point x="85" y="740" type="line"/>
      <point x="165" y="740" type="line"/>
      <point x="165" y="70" type="line"/>
      <point x="241" y="70" type="line"/>
    </contour>
    <contour>
      <point x="155" y="-245" type="qcurve"/>
      <point x="97" y="-245" type="line"/>
      <point x="117" y="-225"/>
      <point x="141" y="-190"/>
      <point x="148" y="-167" type="qcurve"/>
      <point x="113" y="-156"/>
      <point x="113" y="-123" type="qcurve" smooth="yes"/>
      <point x="113" y="-113" type="line" smooth="yes"/>
      <point x="113" y="-69"/>
      <point x="164" y="-66" type="qcurve"/>
      <point x="214" y="-66"/>
      <point x="215" y="-113" type="qcurve"/>
      <point x="215" y="-124" type="line" smooth="yes"/>
      <point x="215" y="-159"/>
      <point x="180" y="-222"/>
    </contour>
  </outline>
</glyph>
<glyph name="lcaron" format="2">
  <advance width="274"/>
  <unicode hex="013E"/>
  <outline>
    <contour>
      <point x="170" y="0" type="line" smooth="yes"/>
      <point x="128" y="0"/>
      <point x="85" y="47"/>
      <point x="85" y="83" type="qcurve" smooth="yes"/>
      <point x="85" y="740" type="line"/>
      <point x="165" y="740" type="line"/>
      <point x="165" y="70" type="line"/>
      <point x="241" y="70" type="line"/>
      <point x="241" y="0" type="line"/>
    </contour>
    <contour>
      <point x="221" y="555" type="line"/>
      <point x="233" y="740" type="line"/>
      <point x="326" y="740" type="line"/>
      <point x="274" y="555" type="line"/>
    </contour>
  </outline>
</glyph>
<glyph name="Ldot" format="2">
  <advance width="501"/>
  <unicode hex="013F"/>
  <outline>
    <contour>
      <point x="93" y="0" type="line"/>
      <point x="93" y="698" type="line"/>
      <point x="177" y="698" type="line"/>
      <point x="177" y="74" type="line"/>
      <point x="474" y="74" type="line"/>
      <point x="474" y="0" type="line"/>
    </contour>
    <contour>
      <point x="385" y="293" type="qcurve" smooth="yes"/>
      <point x="334" y="293"/>
      <point x="334" y="339" type="qcurve" smooth="yes"/>
      <point x="334" y="350" type="line" smooth="yes"/>
      <point x="334" y="396"/>
      <point x="385" y="396" type="qcurve" smooth="yes"/>
      <point x="436" y="396"/>
      <point x="436" y="350" type="qcurve" smooth="yes"/>
      <point x="436" y="339" type="line" smooth="yes"/>
      <point x="436" y="293"/>
    </contour>
  </outline>
</glyph>
<glyph name="nacute" format="2">
  <advance width="568"/>
  <unicode hex="0144"/>
  <outline>
    <contour>
      <point x="408" y="0" type="line"/>
      <point x="408" y="317" type="line" smooth="yes"/>
      <point x="408" y="456"/>
      <point x="291" y="456" type="qcurve" smooth="yes"/>
      <point x="243" y="456"/>
      <point x="165" y="408"/>
      <point x="165" y="358" type="qcurve" smooth="yes"/>
      <point x="165" y="0" type="line"/>
      <point x="85" y="0" type="line"/>
      <point x="85" y="516" type="line"/>
      <point x="165" y="516" type="line"/>
      <point x="165" y="432" type="line"/>
      <point x="169" y="432" type="line"/>
      <point x="208" y="528"/>
      <point x="315" y="528" type="qcurve" smooth="yes"/>
      <point x="395" y="528"/>
      <point x="488" y="425"/>
      <point x="488" y="331" type="qcurve" smooth="yes"/>
      <point x="488" y="0" type="line"/>
    </contour>
    <contour>
      <point x="244" y="609" type="line"/>
      <point x="329" y="779" type="line"/>
      <point x="402" y="744" type="line"/>
      <point x="296" y="585" type="line"/>
    </contour>
  </outline>
</glyph>
<glyph name="ncaron" format="2">
  <advance width="568"/>
  <unicode hex="0148"/>
  <outline>
    <contour>
      <point x="239" y="599" type="line"/>
      <point x="128" y="742" type="line"/>
      <point x="172" y="773" type="line"/>
      <point x="289" y="656" type="line"/>
      <point x="406" y="773" type="line"/>
      <point x="450" y="742" type="line"/>
      <point x="339" y="599" type="line"/>
    </contour>
    <contour>
      <point x="408" y="0" type="line"/>
      <point x="408" y="317" type="line" smooth="yes"/>
      <point x="408" y="456"/>
      <point x="291" y="456" type="qcurve" smooth="yes"/>
      <point x="243" y="456"/>
      <point x="165" y="408"/>
      <point x="165" y="358" type="qcurve" smooth="yes"/>
      <point x="165" y="0" type="line"/>
      <point x="85" y="0" type="line"/>
      <point x="85" y="516" type="line"/>
      <point x="165" y="516" type="line"/>
      <point x="165" y="432" type="line"/>
      <point x="169" y="432" type="line"/>
      <point x="208" y="528"/>
      <point x="315" y="528" type="qcurve" smooth="yes"/>
      <point x="395" y="528"/>
      <point x="488" y="425"/>
      <point x="488" y="331" type="qcurve" smooth="yes"/>
      <point x="488" y="0" type="line"/>
    </contour>
  </outline>
</glyph>
<glyph name="Omacron" format="2">
  <advance width="708"/>
  <unicode hex="014C"/>
  <outline>
    <contour>
      <point x="354" y="63" type="qcurve" smooth="yes"/>
      <point x="444" y="63"/>
      <point x="560" y="188"/>
      <point x="560" y="291" type="qcurve" smooth="yes"/>
      <point x="560" y="407" type="line" smooth="yes"/>
      <point x="560" y="511"/>
      <point x="444" y="635"/>
      <point x="354" y="635" type="qcurve" smooth="yes"/>
      <point x="264" y="635"/>
      <point x="148" y="511"/>
      <point x="148" y="407" type="qcurve" smooth="yes"/>
      <point x="148" y="291" type="line" smooth="yes"/>
      <point x="148" y="188"/>
      <point x="264" y="63"/>
    </contour>
    <contour>
      <point x="354" y="-12" type="qcurve" smooth="yes"/>
      <point x="218" y="-12"/>
      <point x="139" y="81" type="qcurve"/>
      <point x="58" y="174"/>
      <point x="58" y="349" type="qcurve" smooth="yes"/>
      <point x="58" y="525"/>
      <point x="139" y="617" type="qcurve"/>
      <point x="218" y="710"/>
      <point x="354" y="710" type="qcurve" smooth="yes"/>
      <point x="488" y="710"/>
      <point x="650" y="525"/>
      <point x="650" y="349" type="qcurve" smooth="yes"/>
      <point x="650" y="174"/>
      <point x="488" y="-12"/>
    </contour>
    <contour>
      <point x="214" y="807" type="line"/>
      <point x="214" y="875" type="line"/>
      <point x="494" y="875" type="line"/>
      <point x="494" y="807" type="line"/>
    </contour>
  </outline>
</glyph>
<glyph name="ohungarumlaut" format="2">
  <advance width="560"/>
  <unicode hex="0151"/>
  <outline>
    <contour>
      <point x="280" y="59" type="qcurve" smooth="yes"/>
      <point x="345" y="59"/>
      <point x="427" y="139"/>
      <point x="427" y="221" type="qcurve" smooth="yes"/>
      <point x="427" y="295" type="line" smooth="yes"/>
      <point x="427" y="377"/>
      <point x="345" y="457"/>
      <point x="280" y="457" type="qcurve" smooth="yes"/>
      <point x="215" y="457"/>
      <point x="133" y="377"/>
      <point x="133" y="295" type="qcurve" smooth="yes"/>
      <point x="133" y="221" type="line" smooth="yes"/>
      <point x="133" y="139"/>
      <point x="215" y="59"/>
    </contour>
    <contour>
      <point x="280" y="-12" type="qcurve" smooth="yes"/>
      <point x="177" y="-12"/>
      <point x="112" y="62" type="qcurve" smooth="yes"/>
      <point x="47" y="134"/>
      <point x="47" y="258" type="qcurve" smooth="yes"/>
      <point x="47" y="380"/>
      <point x="177" y="528"/>
      <point x="280" y="528" type="qcurve" smooth="yes"/>
      <point x="384" y="528"/>
      <point x="513" y="380"/>
      <point x="513" y="258" type="qcurve" smooth="yes"/>
      <point x="513" y="134"/>
      <point x="448" y="62" type="qcurve"/>
      <point x="384" y="-12"/>
    </contour>
    <contour>
      <point x="160" y="608" type="line"/>
      <point x="245" y="778" type="line"/>
      <point x="314" y="745" type="line"/>
      <point x="208" y="586" type="line"/>
    </contour>
    <contour>
      <point x="320" y="608" type="line"/>
      <point x="405" y="778" type="line"/>
      <point x="474" y="745" type="line"/>
      <point x="368" y="586" type="line"/>
    </contour>
  </outline>
</glyph>
<glyph name="oe" format="2">
  <advance width="931"/>
  <unicode hex="0153"/>
  <outline>
    <contour>
      <point x="667" y="-12" type="qcurve" smooth="yes"/>
      <point x="591" y="-12"/>
      <point x="496" y="55"/>
      <point x="473" y="103" type="qcurve"/>
      <point x="468" y="103" type="line"/>
      <point x="444" y="52"/>
      <point x="345" y="-12"/>
      <point x="280" y="-12" type="qcurve" smooth="yes"/>
      <point x="177" y="-12"/>
      <point x="112" y="62" type="qcurve" smooth="yes"/>
      <point x="47" y="134"/>
      <point x="47" y="258" type="qcurve" smooth="yes"/>
      <point x="47" y="380"/>
      <point x="177" y="528"/>
      <point x="280" y="528" type="qcurve" smooth="yes"/>
      <point x="346" y="528"/>
      <point x="444" y="469"/>
      <point x="468" y="413" type="qcurve"/>
      <point x="474" y="413" type="line"/>
      <point x="496" y="467"/>
      <point x="592" y="528"/>
      <point x="661" y="528" type="qcurve" smooth="yes"/>
      <point x="763" y="528"/>
      <point x="824" y="458" type="qcurve"/>
      <point x="884" y="386"/>
      <point x="884" y="276" type="qcurve" smooth="yes"/>
      <point x="884" y="238" type="line"/>
      <point x="513" y="238" type="line"/>
      <point x="513" y="214" type="line" smooth="yes"/>
      <point x="513" y="148"/>
      <point x="594" y="58"/>
      <point x="666" y="58" type="qcurve" smooth="yes"/>
      <point x="767" y="58"/>
      <point x="809" y="147" type="qcurve"/>
      <point x="865" y="106" type="line"/>
      <point x="840" y="52"/>
      <point x="739" y="-12"/>
    </contour>
    <contour>
      <point x="798" y="309" type="line" smooth="yes"/>
      <point x="798" y="378"/>
      <point x="723" y="461"/>
      <point x="661" y="461" type="qcurve" smooth="yes"/>
      <point x="595" y="461"/>
      <point x="513" y="373"/>
      <point x="513" y="305" type="qcurve" smooth="yes"/>
      <point x="513" y="298" type="line"/>
      <point x="798" y="298" type="line"/>
    </contour>
    <contour>
      <point x="280" y="59" type="qcurve" smooth="yes"/>
      <point x="345" y="59"/>
      <point x="427" y="139"/>
      <point x="427" y="221" type="qcurve" smooth="yes"/>
      <point x="427" y="295" type="line" smooth="yes"/>
      <point x="427" y="377"/>
      <point x="345" y="457"/>
      <point x="280" y="457" type="qcurve" smooth="yes"/>
      <point x="215" y="457"/>
      <point x="133" y="377"/>
      <point x="133" y="295" type="qcurve" smooth="yes"/>
      <point x="133" y="221" type="line" smooth="yes"/>
      <point x="133" y="139"/>
      <point x="215" y="59"/>
    </contour>
  </outline>
</glyph>
<glyph name="Rcaron" format="2">
  <advance width="640"/>
  <unicode hex="0158"/>
  <outline>
    <contour>
      <point x="257" y="769" type="line"/>
      <point x="146" y="912" type="line"/>
      <point x="190" y="943" type="line"/>
      <point x="307" y="826" type="line"/>
      <point x="424" y="943" type="line"/>
      <point x="468" y="912" type="line"/>
      <point x="357" y="769" type="line"/>
    </contour>
    <contour>
      <point x="491" y="0" type="line"/>
      <point x="340" y="300" type="line"/>
      <point x="177" y="300" type="line"/>
      <point x="177" y="0" type="line"/>
      <point x="93" y="0" type="line"/>
      <point x="93" y="698" type="line"/>
      <point x="371" y="698" type="line" smooth="yes"/>
      <point x="463" y="698"/>
      <point x="566" y="596"/>
      <point x="566" y="500" type="qcurve" smooth="yes"/>
      <point x="566" y="423"/>
      <point x="495" y="324"/>
      <point x="426" y="308" type="qcurve"/>
      <point x="586" y="0" type="line"/>
    </contour>
    <contour>
      <point x="371" y="372" type="line"/>
      <point x="476" y="376"/>
      <point x="476" y="472" type="qcurve" smooth="yes"/>
      <point x="476" y="524" type="line"/>
      <point x="472" y="624"/>
      <point x="371" y="624" type="qcurve" smooth="yes"/>
      <point x="177" y="624" type="line"/>
      <point x="177" y="372" type="line"/>
    </contour>
  </outline>
</glyph>
<glyph name="Sacute" format="2">
  <advance width="581"/>
  <unicode hex="015A"/>
  <outline>
    <contour>
      <point x="289" y="-12" type="qcurve" smooth="yes"/>
      <point x="130" y="-12"/>
      <point x="42" y="110" type="qcurve"/>
      <point x="104" y="162" type="line"/>
      <point x="140" y="113"/>
      <point x="231" y="62"/>
      <point x="292" y="62" type="qcurve" smooth="yes"/>
      <point x="367" y="62"/>
      <point x="446" y="134"/>
      <point x="446" y="194" type="qcurve" smooth="yes"/>
      <point x="446" y="244"/>
      <point x="385" y="299"/>
      <point x="317" y="314" type="qcurve" smooth="yes"/>
      <point x="260" y="327" type="line" smooth="yes"/>
      <point x="164" y="348"/>
      <point x="63" y="438"/>
      <point x="63" y="519" type="qcurve" smooth="yes"/>
      <point x="63" y="611"/>
      <point x="192" y="710"/>
      <point x="294" y="710" type="qcurve" smooth="yes"/>
      <point x="447" y="710"/>
      <point x="525" y="596" type="qcurve"/>
      <point x="462" y="550" type="line"/>
      <point x="433" y="590"/>
      <point x="351" y="636"/>
      <point x="290" y="636" type="qcurve" smooth="yes"/>
      <point x="223" y="636"/>
      <point x="146" y="579"/>
      <point x="146" y="522" type="qcurve" smooth="yes"/>
      <point x="146" y="472"/>
      <point x="211" y="420"/>
      <point x="277" y="406" type="qcurve" smooth="yes"/>
      <point x="334" y="393" type="line"/>
      <point x="529" y="354"/>
      <point x="529" y="198" type="qcurve" smooth="yes"/>
      <point x="529" y="102"/>
      <point x="402" y="-12"/>
    </contour>
    <contour>
      <point x="244" y="779" type="line"/>
      <point x="329" y="949" type="line"/>
      <point x="402" y="914" type="line"/>
      <point x="296" y="755" type="line"/>
    </contour>
  </outline>
</glyph>
<glyph name="utilde" format="2">
  <advance width="568"/>
  <unicode hex="0169"/>
  <outline>
    <contour>
      <point x="356" y="612" type="qcurve" smooth="yes"/>
      <point x="332" y="612"/>
      <point x="297" y="626"/>
      <point x="283" y="635" type="qcurve"/>
      <point x="233" y="662"/>
      <point x="206" y="662" type="qcurve" smooth="yes"/>
      <point x="189" y="662"/>
      <point x="163" y="648"/>
      <point x="148" y="635" type="qcurve"/>
      <point x="115" y="675" type="line"/>
      <point x="150" y="728"/>
      <point x="210" y="728" type="qcurve" smooth="yes"/>
      <point x="234" y="728"/>
      <point x="269" y="714"/>
      <point x="283" y="705" type="qcurve"/>
      <point x="333" y="678"/>
      <point x="360" y="678" type="qcurve" smooth="yes"/>
      <point x="377" y="678"/>
      <point x="403" y="692"/>
      <point x="418" y="705" type="qcurve"/>
      <point x="451" y="665" type="line"/>
      <point x="416" y="612"/>
    </contour>
    <contour>
      <point x="254" y="-12" type="qcurve" smooth="yes"/>
      <point x="174" y="-12"/>
      <point x="80" y="91"/>
      <point x="80" y="185" type="qcurve" smooth="yes"/>
      <point x="80" y="516" type="line"/>
      <point x="160" y="516" type="line"/>
      <point x="160" y="199" type="line" smooth="yes"/>
      <point x="160" y="60"/>
      <point x="278" y="60" type="qcurve" smooth="yes"/>
      <point x="326" y="60"/>
      <point x="365" y="84" type="qcurve"/>
      <point x="403" y="110"/>
      <point x="403" y="159" type="qcurve" smooth="yes"/>
      <point x="403" y="516" type="line"/>
      <point x="483" y="516" type="line"/>
      <point x="483" y="0" type="line"/>
      <point x="403" y="0" type="line"/>
      <point x="403" y="84" type="line"/>
      <point x="399" y="84" type="line"/>
      <point x="361" y="-12"/>
    </contour>
  </outline>
</glyph>
<glyph name="ubreve" format="2">
  <advance width="568"/>
  <unicode hex="016D"/>
  <outline>
    <contour>
      <point x="254" y="-12" type="qcurve" smooth="yes"/>
      <point x="174" y="-12"/>
      <point x="80" y="91"/>
      <point x="80" y="185" type="qcurve" smooth="yes"/>
      <point x="80" y="516" type="line"/>
      <point x="160" y="516" type="line"/>
      <point x="160" y="199" type="line" smooth="yes"/>
      <point x="160" y="60"/>
      <point x="278" y="60" type="qcurve" smooth="yes"/>
      <point x="326" y="60"/>
      <point x="365" y="84" type="qcurve"/>
      <point x="403" y="110"/>
      <point x="403" y="159" type="qcurve" smooth="yes"/>
      <point x="403" y="516" type="line"/>
      <point x="483" y="516" type="line"/>
      <point x="483" y="0" type="line"/>
      <point x="403" y="0" type="line"/>
      <point x="403" y="84" type="line"/>
      <point x="399" y="84" type="line"/>
      <point x="361" y="-12"/>
    </contour>
    <contour>
      <point x="283" y="596" type="qcurve" smooth="yes"/>
      <point x="164" y="596"/>
      <point x="131" y="721" type="qcurve"/>
      <point x="176" y="743" type="line"/>
      <point x="197" y="710" type="line"/>
      <point x="209" y="688"/>
      <point x="245" y="659"/>
      <point x="283" y="659" type="qcurve" smooth="yes"/>
      <point x="321" y="659"/>
      <point x="356" y="687"/>
      <point x="369" y="710" type="qcurve"/>
      <point x="390" y="743" type="line"/>
      <point x="435" y="721" type="line"/>
      <point x="424" y="677"/>
      <point x="393" y="638" type="qcurve"/>
      <point x="356" y="596"/>
    </contour>
  </outline>
</glyph>
<glyph name="Uring" format="2">
  <advance width="678"/>
  <unicode hex="016E"/>
  <outline>
    <contour>
      <point x="337" y="795" type="qcurve"/>
      <point x="395" y="798"/>
      <point x="395" y="850" type="qcurve" smooth="yes"/>
      <point x="395" y="872" type="line"/>
      <point x="391" y="927"/>
      <point x="337" y="927" type="qcurve"/>
      <point x="279" y="925"/>
      <point x="279" y="872" type="qcurve" smooth="yes"/>
      <point x="279" y="850" type="line"/>
      <point x="283" y="795"/>
    </contour>
    <contour>
      <point x="336" y="-12" type="qcurve" smooth="yes"/>
      <point x="197" y="-12"/>
      <point x="142" y="61" type="qcurve"/>
      <point x="88" y="130"/>
      <point x="88" y="286" type="qcurve" smooth="yes"/>
      <point x="88" y="698" type="line"/>
      <point x="172" y="698" type="line"/>
      <point x="172" y="266" type="line" smooth="yes"/>
      <point x="172" y="166"/>
      <point x="246" y="63"/>
      <point x="339" y="63" type="qcurve" smooth="yes"/>
      <point x="432" y="63"/>
      <point x="506" y="166"/>
      <point x="506" y="266" type="qcurve" smooth="yes"/>
      <point x="506" y="698" type="line"/>
      <point x="590" y="698" type="line"/>
      <point x="590" y="286" type="line" smooth="yes"/>
      <point x="590" y="135"/>
      <point x="476" y="-12"/>
    </contour>
    <contour>
      <point x="337" y="746" type="qcurve" smooth="yes"/>
      <point x="289" y="746"/>
      <point x="221" y="812"/>
      <point x="221" y="861" type="qcurve" smooth="yes"/>
      <point x="221" y="911"/>
      <point x="289" y="976"/>
      <point x="337" y="976" type="qcurve" smooth="yes"/>
      <point x="385" y="976"/>
      <point x="420" y="944" type="qcurve"/>
      <point x="453" y="911"/>
      <point x="453" y="861" type="qcurve" smooth="yes"/>
      <point x="453" y="812"/>
      <point x="385" y="746"/>
    </contour>
  </outline>
</glyph>
<glyph name="Uhungarumlaut" format="2">
  <advance width="678"/>
  <unicode hex="0170"/>
  <outline>
    <contour>
      <point x="336" y="-12" type="qcurve" smooth="yes"/>
      <point x="197" y="-12"/>
      <point x="142" y="61" type="qcurve"/>
      <point x="88" y="130"/>
      <point x="88" y="286" type="qcurve" smooth="yes"/>
      <point x="88" y="698" type="line"/>
      <point x="172" y="698" type="line"/>
      <point x="172" y="266" type="line" smooth="yes"/>
      <point x="172" y="166"/>
      <point x="246" y="63"/>
      <point x="339" y="63" type="qcurve" smooth="yes"/>
      <point x="432" y="63"/>
      <point x="506" y="166"/>
      <point x="506" y="266" type="qcurve" smooth="yes"/>
      <point x="506" y="698" type="line"/>
      <point x="590" y="698" type="line"/>
      <point x="590" y="286" type="line" smooth="yes"/>
      <point x="590" y="135"/>
      <point x="476" y="-12"/>
    </contour>
    <contour>
      <point x="216" y="778" type="line"/>
      <point x="301" y="948" type="line"/>
      <point x="370" y="915" type="line"/>
      <point x="264" y="756" type="line"/>
    </contour>
    <contour>
      <point x="376" y="778" type="line"/>
      <point x="461" y="948" type="line"/>
      <point x="530" y="915" type="line"/>
      <point x="424" y="756" type="line"/>
    </contour>
  </outline>
</glyph>
<glyph name="udblacute" format="2">
  <advance width="568"/>
  <unicode hex="0171"/>
  <outline>
    <contour>
      <point x="162" y="608" type="line"/>
      <point x="247" y="778" type="line"/>
      <point x="316" y="745" type="line"/>
      <point x="210" y="586" type="line"/>
    </contour>
    <contour>
      <point x="322" y="608" type="line"/>
      <point x="407" y="778" type="line"/>
      <point x="476" y="745" type="line"/>
      <point x="370" y="586" type="line"/>
    </contour>
    <contour>
      <point x="254" y="-12" type="qcurve" smooth="yes"/>
      <point x="174" y="-12"/>
      <point x="80" y="91"/>
      <point x="80" y="185" type="qcurve" smooth="yes"/>
      <point x="80" y="516" type="line"/>
      <point x="160" y="516" type="line"/>
      <point x="160" y="199" type="line" smooth="yes"/>
      <point x="160" y="60"/>
      <point x="278" y="60" type="qcurve" smooth="yes"/>
      <point x="326" y="60"/>
      <point x="365" y="84" type="qcurve"/>
      <point x="403" y="110"/>
      <point x="403" y="159" type="qcurve" smooth="yes"/>
      <point x="403" y="516" type="line"/>
      <point x="483" y="516" type="line"/>
      <point x="483" y="0" type="line"/>
      <point x="403" y="0" type="line"/>
      <point x="403" y="84" type="line"/>
      <point x="399" y="84" type="line"/>
      <point x="361" y="-12"/>
    </contour>
  </outline>
</glyph>
<glyph name="Uogonek" format="2">
  <advance width="678"/>
  <unicode hex="0172"/>
  <outline>
    <contour>
      <point x="420" y="-207" type="qcurve" smooth="yes"/>
      <point x="382" y="-207"/>
      <point x="325" y="-171"/>
      <point x="325" y="-133" type="qcurve" smooth="yes"/>
      <point x="325" y="-80"/>
      <point x="396" y="-32" type="qcurve"/>
      <point x="441" y="0" type="line"/>
      <point x="437" y="5" type="line"/>
      <point x="390" y="-12"/>
      <point x="336" y="-12" type="qcurve" smooth="yes"/>
      <point x="197" y="-12"/>
      <point x="142" y="61" type="qcurve"/>
      <point x="88" y="130"/>
      <point x="88" y="286" type="qcurve" smooth="yes"/>
      <point x="88" y="698" type="line"/>
      <point x="172" y="698" type="line"/>
      <point x="172" y="266" type="line" smooth="yes"/>
      <point x="172" y="166"/>
      <point x="246" y="63"/>
      <point x="339" y="63" type="qcurve" smooth="yes"/>
      <point x="432" y="63"/>
      <point x="506" y="166"/>
      <point x="506" y="266" type="qcurve" smooth="yes"/>
      <point x="506" y="698" type="line"/>
      <point x="590" y="698" type="line"/>
      <point x="590" y="286" type="line" smooth="yes"/>
      <point x="590" y="186"/>
      <point x="567" y="121" type="qcurve" smooth="yes"/>
      <point x="542" y="53"/>
      <point x="475" y="-12" type="qcurve" smooth="yes"/>
      <point x="426" y="-59"/>
      <point x="389" y="-103"/>
      <point x="389" y="-123" type="qcurve" smooth="yes"/>
      <point x="389" y="-153"/>
      <point x="420" y="-153" type="qcurve" smooth="yes"/>
      <point x="449" y="-153"/>
      <point x="468" y="-129" type="qcurve"/>
      <point x="508" y="-168" type="line"/>
      <point x="499" y="-184"/>
      <point x="455" y="-207"/>
    </contour>
  </outline>
</glyph>
<glyph name="wcircumflex" format="2">
  <advance width="768"/>
  <unicode hex="0175"/>
  <outline>
    <contour>
      <point x="384" y="708" type="line"/>
      <point x="267" y="591" type="line"/>
      <point x="223" y="622" type="line"/>
      <point x="334" y="765" type="line"/>
      <point x="434" y="765" type="line"/>
      <point x="545" y="622" type="line"/>
      <point x="501" y="591" type="line"/>
    </contour>
    <contour>
      <point x="501" y="0" type="line"/>
      <point x="384" y="405" type="line"/>
      <point x="382" y="405" type="line"/>
      <point x="325" y="202"/>
      <point x="266" y="0" type="qcurve"/>
      <point x="169" y="0" type="line"/>
      <point x="31" y="516" type="line"/>
      <point x="109" y="516" type="line"/>
      <point x="219" y="67" type="line"/>
      <point x="221" y="67" type="line"/>
      <point x="349" y="516" type="line"/>
      <point x="420" y="516" type="line"/>
      <point x="487" y="293"/>
      <point x="551" y="67" type="qcurve"/>
      <point x="553" y="67" type="line"/>
      <point x="606" y="293"/>
      <point x="662" y="516" type="qcurve"/>
      <point x="737" y="516" type="line"/>
      <point x="600" y="0" type="line"/>
    </contour>
  </outline>
</glyph>
<glyph name="ycircumflex" format="2">
  <advance width="499"/>
  <unicode hex="0177"/>
  <outline>
    <contour>
      <point x="251" y="708" type="line"/>
      <point x="134" y="591" type="line"/>
      <point x="90" y="622" type="line"/>
      <point x="201" y="765" type="line"/>
      <point x="301" y="765" type="line"/>
      <point x="412" y="622" type="line"/>
      <point x="368" y="591" type="line"/>
    </contour>
    <contour>
      <point x="90" y="-200" type="line"/>
      <point x="90" y="-130" type="line"/>
      <point x="171" y="-130" type="line"/>
      <point x="210" y="-20" type="line"/>
      <point x="17" y="516" type="line"/>
      <point x="97" y="516" type="line"/>
      <point x="221" y="165" type="line"/>
      <point x="245" y="81" type="line"/>
      <point x="250" y="81" type="line"/>
      <point x="278" y="165"/>
      <point x="403" y="516" type="qcurve"/>
      <point x="482" y="516" type="line"/>
      <point x="251" y="-120" type="line" smooth="yes"/>
      <point x="235" y="-166"/>
      <point x="187" y="-200"/>
      <point x="131" y="-200" type="qcurve" smooth="yes"/>
    </contour>
  </outline>
</glyph>
<glyph name="zacute" format="2">
  <advance width="464"/>
  <unicode hex="017A"/>
  <outline>
    <contour>
      <point x="33" y="0" type="line"/>
      <point x="33" y="67" type="line"/>
      <point x="326" y="446" type="line"/>
      <point x="42" y="446" type="line"/>
      <point x="42" y="516" type="line"/>
      <point x="423" y="516" type="line"/>
      <point x="423" y="456" type="line"/>
      <point x="124" y="70" type="line"/>
      <point x="431" y="70" type="line"/>
      <point x="431" y="0" type="line"/>
    </contour>
    <contour>
      <point x="188" y="609" type="line"/>
      <point x="273" y="779" type="line"/>
      <point x="346" y="744" type="line"/>
      <point x="240" y="585" type="line"/>
    </contour>
  </outline>
</glyph>
<glyph name="Zdotaccent" format="2">
  <advance width="580"/>
  <unicode hex="017B"/>
  <outline>
    <contour>
      <point x="36" y="0" type="line"/>
      <point x="36" y="76" type="line"/>
      <point x="439" y="624" type="line"/>
      <point x="57" y="624" type="line"/>
      <point x="57" y="698" type="line"/>
      <point x="530" y="698" type="line"/>
      <point x="530" y="622" type="line"/>
      <point x="126" y="74" type="line"/>
      <point x="544" y="74" type="line"/>
      <point x="544" y="0" type="line"/>
    </contour>
    <contour>
      <point x="298" y="780" type="qcurve" smooth="yes"/>
      <point x="242" y="780"/>
      <point x="242" y="833" type="qcurve" smooth="yes"/>
      <point x="242" y="847" type="line" smooth="yes"/>
      <point x="242" y="900"/>
      <point x="298" y="900" type="qcurve" smooth="yes"/>
      <point x="354" y="900"/>
      <point x="354" y="847" type="qcurve" smooth="yes"/>
      <point x="354" y="833" type="line" smooth="yes"/>
      <point x="354" y="780"/>
    </contour>
  </outline>
</glyph>
<glyph name="zcaron" format="2">
  <advance width="464"/>
  <unicode hex="017E"/>
  <outline>
    <contour>
      <point x="33" y="0" type="line"/>
      <point x="33" y="67" type="line"/>
      <point x="326" y="446" type="line"/>
      <point x="42" y="446" type="line"/>
      <point x="42" y="516" type="line"/>
      <point x="423" y="516" type="line"/>
      <point x="423" y="456" type="line"/>
      <point x="124" y="70" type="line"/>
      <point x="431" y="70" type="line"/>
      <point x="431" y="0" type="line"/>
    </contour>
    <contour>
      <point x="183" y="599" type="line"/>
      <point x="72" y="742" type="line"/>
      <point x="116" y="773" type="line"/>
      <point x="233" y="656" type="line"/>
      <point x="350" y="773" type="line"/>
      <point x="394" y="742" type="line"/>
      <point x="283" y="599" type="line"/>
    </contour>
  </outline>
</glyph>
<glyph name="Schwa" format="2">
  <advance width="708"/>
  <unicode hex="018F"/>
  <outline>
    <contour>
      <point x="353" y="-12" type="qcurve" smooth="yes"/>
      <point x="215" y="-12"/>
      <point x="58" y="169"/>
      <point x="58" y="349" type="qcurve" smooth="yes"/>
      <point x="58" y="371" type="line"/>
      <point x="561" y="371" type="line"/>
      <point x="561" y="401" type="line" smooth="yes"/>
      <point x="561" y="511"/>
      <point x="451" y="635"/>
      <point x="359" y="635" type="qcurve" smooth="yes"/>
      <point x="223" y="635"/>
      <point x="159" y="498" type="qcurve"/>
      <point x="89" y="532" type="line"/>
      <point x="120" y="610"/>
      <point x="263" y="710"/>
      <point x="360" y="710" type="qcurve" smooth="yes"/>
      <point x="500" y="710"/>
      <point x="650" y="517"/>
      <point x="650" y="349" type="qcurve" smooth="yes"/>
      <point x="650" y="180"/>
      <point x="491" y="-12"/>
    </contour>
    <contour>
      <point x="353" y="63" type="qcurve" smooth="yes"/>
      <point x="439" y="63"/>
      <point x="561" y="191"/>
      <point x="561" y="302" type="qcurve"/>
      <point x="145" y="302" type="line"/>
      <point x="145" y="191"/>
      <point x="206" y="127" type="qcurve"/>
      <point x="265" y="63"/>
    </contour>
  </outline>
</glyph>
<glyph name="aringacute" format="2">
  <advance width="526"/>
  <unicode hex="01FB"/>
  <outline>
    <contour>
      <point x="264" y="814" type="line"/>
      <point x="223" y="840" type="line"/>
      <point x="298" y="956" type="line"/>
      <point x="358" y="919" type="line"/>
    </contour>
    <contour>
      <point x="253" y="566" type="qcurve" smooth="yes"/>
      <point x="205" y="566"/>
      <point x="137" y="632"/>
      <point x="137" y="681" type="qcurve" smooth="yes"/>
      <point x="137" y="731"/>
      <point x="205" y="796"/>
      <point x="253" y="796" type="qcurve" smooth="yes"/>
      <point x="301" y="796"/>
      <point x="336" y="764" type="qcurve"/>
      <point x="369" y="731"/>
      <point x="369" y="681" type="qcurve" smooth="yes"/>
      <point x="369" y="632"/>
      <point x="301" y="566"/>
    </contour>
    <contour>
      <point x="253" y="615" type="qcurve"/>
      <point x="311" y="618"/>
      <point x="311" y="670" type="qcurve" smooth="yes"/>
      <point x="311" y="692" type="line"/>
      <point x="307" y="747"/>
      <point x="253" y="747" type="qcurve"/>
      <point x="195" y="745"/>
      <point x="195" y="692" type="qcurve" smooth="yes"/>
      <point x="195" y="670" type="line"/>
      <point x="199" y="615"/>
    </contour>
    <contour>
      <point x="217" y="-12" type="qcurve" smooth="yes"/>
      <point x="135" y="-12"/>
      <point x="44" y="72"/>
      <point x="44" y="144" type="qcurve" smooth="yes"/>
      <point x="44" y="295"/>
      <point x="264" y="295" type="qcurve" smooth="yes"/>
      <point x="366" y="295" type="line"/>
      <point x="366" y="346" type="line" smooth="yes"/>
      <point x="366" y="459"/>
      <point x="244" y="459" type="qcurve" smooth="yes"/>
      <point x="158" y="459"/>
      <point x="113" y="382" type="qcurve"/>
      <point x="65" y="427" type="line"/>
      <point x="86" y="470"/>
      <point x="178" y="528"/>
      <point x="248" y="528" type="qcurve" smooth="yes"/>
      <point x="342" y="528"/>
      <point x="446" y="436"/>
      <point x="446" y="354" type="qcurve" smooth="yes"/>
      <point x="446" y="0" type="line"/>
      <point x="371" y="0" type="line"/>
      <point x="371" y="84" type="line"/>
      <point x="366" y="84" type="line"/>
      <point x="348" y="36"/>
      <point x="271" y="-12"/>
    </contour>
    <contour>
      <point x="230" y="56" type="qcurve"/>
      <point x="290" y="56"/>
      <point x="366" y="110"/>
      <point x="366" y="150" type="qcurve" smooth="yes"/>
      <point x="366" y="235" type="line"/>
      <point x="260" y="235" type="line" smooth="yes"/>
      <point x="128" y="235"/>
      <point x="128" y="157" type="qcurve" smooth="yes"/>
      <point x="128" y="136" type="line" smooth="yes"/>
      <point x="128" y="60"/>
    </contour>
  </outline>
</glyph>
<glyph name="AEacute" format="2">
  <advance width="907"/>
  <unicode hex="01FC"/>
  <outline>
    <contour>
      <point x="546" y="779" type="line"/>
      <point x="631" y="949" type="line"/>
      <point x="704" y="914" type="line"/>
      <point x="598" y="755" type="line"/>
    </contour>
    <contour>
      <point x="417" y="0" type="line"/>
      <point x="417" y="205" type="line"/>
      <point x="192" y="205" type="line"/>
      <point x="90" y="0" type="line"/>
      <point x="4" y="0" type="line"/>
      <point x="361" y="698" type="line"/>
      <point x="843" y="698" type="line"/>
      <point x="843" y="624" type="line"/>
      <point x="500" y="624" type="line"/>
      <point x="500" y="390" type="line"/>
      <point x="823" y="390" type="line"/>
      <point x="823" y="316" type="line"/>
      <point x="500" y="316" type="line"/>
      <point x="500" y="74" type="line"/>
      <point x="843" y="74" type="line"/>
      <point x="843" y="0" type="line"/>
    </contour>
    <contour>
      <point x="417" y="624" type="line"/>
      <point x="404" y="624" type="line"/>
      <point x="227" y="279" type="line"/>
      <point x="417" y="279" type="line"/>
    </contour>
  </outline>
</glyph>
<glyph name="u0218" format="2">
  <advance width="581"/>
  <unicode hex="0218"/>
  <outline>
    <contour>
      <point x="220" y="-245" type="line"/>
      <point x="240" y="-225"/>
      <point x="264" y="-190"/>
      <point x="271" y="-167" type="qcurve"/>
      <point x="236" y="-157"/>
      <point x="236" y="-123" type="qcurve" smooth="yes"/>
      <point x="236" y="-113" type="line"/>
      <point x="238" y="-66"/>
      <point x="287" y="-66" type="qcurve"/>
      <point x="338" y="-69"/>
      <point x="338" y="-113" type="qcurve" smooth="yes"/>
      <point x="338" y="-124" type="line" smooth="yes"/>
      <point x="338" y="-188"/>
      <point x="278" y="-245" type="qcurve"/>
    </contour>
    <contour>
      <point x="289" y="-12" type="qcurve" smooth="yes"/>
      <point x="130" y="-12"/>
      <point x="42" y="110" type="qcurve"/>
      <point x="104" y="162" type="line"/>
      <point x="140" y="113"/>
      <point x="231" y="62"/>
      <point x="292" y="62" type="qcurve" smooth="yes"/>
      <point x="367" y="62"/>
      <point x="446" y="134"/>
      <point x="446" y="194" type="qcurve" smooth="yes"/>
      <point x="446" y="244"/>
      <point x="385" y="299"/>
      <point x="317" y="314" type="qcurve" smooth="yes"/>
      <point x="260" y="327" type="line" smooth="yes"/>
      <point x="164" y="348"/>
      <point x="63" y="438"/>
      <point x="63" y="519" type="qcurve" smooth="yes"/>
      <point x="63" y="611"/>
      <point x="192" y="710"/>
      <point x="294" y="710" type="qcurve" smooth="yes"/>
      <point x="447" y="710"/>
      <point x="525" y="596" type="qcurve"/>
      <point x="462" y="550" type="line"/>
      <point x="433" y="590"/>
      <point x="351" y="636"/>
      <point x="290" y="636" type="qcurve" smooth="yes"/>
      <point x="223" y="636"/>
      <point x="146" y="579"/>
      <point x="146" y="522" type="qcurve" smooth="yes"/>
      <point x="146" y="472"/>
      <point x="211" y="420"/>
      <point x="277" y="406" type="qcurve" smooth="yes"/>
      <point x="334" y="393" type="line"/>
      <point x="529" y="354"/>
      <point x="529" y="198" type="qcurve" smooth="yes"/>
      <point x="529" y="102"/>
      <point x="402" y="-12"/>
    </contour>
  </outline>
</glyph>
<glyph name="u0237" format="2">
  <advance width="250"/>
  <unicode hex="0237"/>
  <outline>
    <contour>
      <point x="1" y="-200" type="line"/>
      <point x="1" y="-130" type="line"/>
      <point x="85" y="-130" type="line"/>
      <point x="85" y="516" type="line"/>
      <point x="165" y="516" type="line"/>
      <point x="165" y="-80" type="line" smooth="yes"/>
      <point x="165" y="-134"/>
      <point x="111" y="-200"/>
      <point x="53" y="-200" type="qcurve" smooth="yes"/>
    </contour>
  </outline>
</glyph>
<glyph name="caron" format="2">
  <advance width="600"/>
  <unicode hex="02C7"/>
  <outline>
    <contour>
      <point x="250" y="599" type="line"/>
      <point x="139" y="742" type="line"/>
      <point x="183" y="773" type="line"/>
      <point x="300" y="656" type="line"/>
      <point x="417" y="773" type="line"/>
      <point x="461" y="742" type="line"/>
      <point x="350" y="599" type="line"/>
    </contour>
  </outline>
</glyph>
<glyph name="gravecmb" format="2">
  <unicode hex="0300"/>
  <outline>
    <contour>
      <point x="-112" y="744" type="line"/>
      <point x="-39" y="779" type="line"/>
      <point x="46" y="609" type="line"/>
      <point x="-6" y="585" type="line"/>
    </contour>
  </outline>
</glyph>
<glyph name="acutecmb" format="2">
  <unicode hex="0301"/>
  <outline>
    <contour>
      <point x="-44" y="609" type="line"/>
      <point x="41" y="779" type="line"/>
      <point x="114" y="744" type="line"/>
      <point x="8" y="585" type="line"/>
    </contour>
  </outline>
</glyph>
<glyph name="tildecomb" format="2">
  <advance width="0"/>
  <unicode hex="0303"/>
  <outline>
    <contour>
      <point x="74" y="612" type="qcurve" smooth="yes"/>
      <point x="50" y="612"/>
      <point x="15" y="626"/>
      <point x="1" y="635" type="qcurve"/>
      <point x="-49" y="662"/>
      <point x="-76" y="662" type="qcurve" smooth="yes"/>
      <point x="-93" y="662"/>
      <point x="-119" y="648"/>
      <point x="-134" y="635" type="qcurve"/>
      <point x="-167" y="675" type="line"/>
      <point x="-132" y="728"/>
      <point x="-72" y="728" type="qcurve" smooth="yes"/>
      <point x="-48" y="728"/>
      <point x="-13" y="714"/>
      <point x="1" y="705" type="qcurve"/>
      <point x="51" y="678"/>
      <point x="78" y="678" type="qcurve" smooth="yes"/>
      <point x="95" y="678"/>
      <point x="121" y="692"/>
      <point x="136" y="705" type="qcurve"/>
      <point x="169" y="665" type="line"/>
      <point x="134" y="612"/>
    </contour>
  </outline>
</glyph>
<glyph name="brevecomb" format="2">
  <unicode hex="0306"/>
  <outline>
    <contour>
      <point x="1" y="596" type="qcurve" smooth="yes"/>
      <point x="-118" y="596"/>
      <point x="-151" y="721" type="qcurve"/>
      <point x="-106" y="743" type="line"/>
      <point x="-85" y="710" type="line"/>
      <point x="-73" y="688"/>
      <point x="-37" y="659"/>
      <point x="1" y="659" type="qcurve" smooth="yes"/>
      <point x="39" y="659"/>
      <point x="74" y="687"/>
      <point x="87" y="710" type="qcurve"/>
      <point x="108" y="743" type="line"/>
      <point x="153" y="721" type="line"/>
      <point x="142" y="677"/>
      <point x="111" y="638" type="qcurve"/>
      <point x="74" y="596"/>
    </contour>
  </outline>
</glyph>
<glyph name="dieresiscmb" format="2">
  <unicode hex="0308"/>
  <outline>
    <contour>
      <point x="-92" y="618" type="qcurve" smooth="yes"/>
      <point x="-141" y="618"/>
      <point x="-141" y="664" type="qcurve" smooth="yes"/>
      <point x="-141" y="675" type="line" smooth="yes"/>
      <point x="-141" y="721"/>
      <point x="-92" y="721" type="qcurve" smooth="yes"/>
      <point x="-43" y="721"/>
      <point x="-43" y="675" type="qcurve" smooth="yes"/>
      <point x="-43" y="664" type="line" smooth="yes"/>
      <point x="-43" y="618"/>
    </contour>
    <contour>
      <point x="94" y="618" type="qcurve" smooth="yes"/>
      <point x="45" y="618"/>
      <point x="45" y="664" type="qcurve" smooth="yes"/>
      <point x="45" y="675" type="line" smooth="yes"/>
      <point x="45" y="721"/>
      <point x="94" y="721" type="qcurve" smooth="yes"/>
      <point x="143" y="721"/>
      <point x="143" y="675" type="qcurve" smooth="yes"/>
      <point x="143" y="664" type="line" smooth="yes"/>
      <point x="143" y="618"/>
    </contour>
  </outline>
</glyph>
<glyph name="hookabovecomb" format="2">
  <advance width="0"/>
  <unicode hex="0309"/>
  <outline>
    <contour>
      <point x="-24" y="600" type="line"/>
      <point x="34" y="704" type="line"/>
      <point x="-84" y="704" type="line"/>
      <point x="-84" y="765" type="line"/>
      <point x="25" y="765" type="line" smooth="yes"/>
      <point x="95" y="765"/>
      <point x="95" y="710" type="qcurve" smooth="yes"/>
      <point x="95" y="667"/>
      <point x="46" y="607" type="qcurve" smooth="yes"/>
      <point x="22" y="577" type="line"/>
    </contour>
  </outline>
</glyph>
<glyph name="ringcomb" format="2">
  <unicode hex="030A"/>
  <outline>
    <contour>
      <point x="1" y="625" type="qcurve"/>
      <point x="59" y="628"/>
      <point x="59" y="680" type="qcurve" smooth="yes"/>
      <point x="59" y="702" type="line"/>
      <point x="55" y="757"/>
      <point x="1" y="757" type="qcurve"/>
      <point x="-57" y="755"/>
      <point x="-57" y="702" type="qcurve" smooth="yes"/>
      <point x="-57" y="680" type="line"/>
      <point x="-53" y="625"/>
    </contour>
    <contour>
      <point x="1" y="576" type="qcurve" smooth="yes"/>
      <point x="-47" y="576"/>
      <point x="-115" y="642"/>
      <point x="-115" y="691" type="qcurve" smooth="yes"/>
      <point x="-115" y="741"/>
      <point x="-47" y="806"/>
      <point x="1" y="806" type="qcurve" smooth="yes"/>
      <point x="49" y="806"/>
      <point x="84" y="774" type="qcurve"/>
      <point x="117" y="741"/>
      <point x="117" y="691" type="qcurve" smooth="yes"/>
      <point x="117" y="642"/>
      <point x="49" y="576"/>
    </contour>
  </outline>
</glyph>
<glyph name="hungarumlautcmb" format="2">
  <unicode hex="030B"/>
  <outline>
    <contour>
      <point x="-120" y="608" type="line"/>
      <point x="-35" y="778" type="line"/>
      <point x="34" y="745" type="line"/>
      <point x="-72" y="586" type="line"/>
    </contour>
    <contour>
      <point x="40" y="608" type="line"/>
      <point x="125" y="778" type="line"/>
      <point x="194" y="745" type="line"/>
      <point x="88" y="586" type="line"/>
    </contour>
  </outline>
</glyph>
<glyph name="u0312" format="2">
  <unicode hex="0312"/>
  <outline>
    <contour>
      <point x="2" y="595" type="qcurve"/>
      <point x="-49" y="599"/>
      <point x="-49" y="642" type="qcurve" smooth="yes"/>
      <point x="-49" y="653" type="line" smooth="yes"/>
      <point x="-49" y="717"/>
      <point x="11" y="774" type="qcurve"/>
      <point x="69" y="774" type="line"/>
      <point x="49" y="754"/>
      <point x="25" y="719"/>
      <point x="18" y="696" type="qcurve"/>
      <point x="53" y="687"/>
      <point x="53" y="652" type="qcurve" smooth="yes"/>
      <point x="53" y="642" type="line"/>
      <point x="52" y="595"/>
    </contour>
  </outline>
</glyph>
<glyph name="u0315" format="2">
  <unicode hex="0315"/>
  <outline>
    <contour>
      <point x="1" y="555" type="line"/>
      <point x="13" y="740" type="line"/>
      <point x="106" y="740" type="line"/>
      <point x="54" y="555" type="line"/>
    </contour>
  </outline>
</glyph>
<glyph name="u031B" format="2">
  <unicode hex="031B"/>
  <outline>
    <contour>
      <point x="-77" y="463" type="line"/>
      <point x="-77" y="516" type="line"/>
      <point x="6" y="516" type="line"/>
      <point x="6" y="628" type="line"/>
      <point x="77" y="628" type="line"/>
      <point x="77" y="526" type="line" smooth="yes"/>
      <point x="77" y="500"/>
      <point x="52" y="463"/>
      <point x="14" y="463" type="qcurve" smooth="yes"/>
    </contour>
  </outline>
</glyph>
<glyph name="dotbelowcmb" format="2">
  <unicode hex="0323"/>
  <outline>
    <contour>
      <point x="0" y="-169" type="qcurve" smooth="yes"/>
      <point x="-51" y="-169"/>
      <point x="-51" y="-123" type="qcurve" smooth="yes"/>
      <point x="-51" y="-112" type="line" smooth="yes"/>
      <point x="-51" y="-66"/>
      <point x="0" y="-66" type="qcurve" smooth="yes"/>
      <point x="51" y="-66"/>
      <point x="51" y="-112" type="qcurve" smooth="yes"/>
      <point x="51" y="-123" type="line" smooth="yes"/>
      <point x="51" y="-169"/>
    </contour>
  </outline>
</glyph>
<glyph name="commaaccentcomb" format="2">
  <unicode hex="0326"/>
  <outline>
    <contour>
      <point x="-67" y="-245" type="line"/>
      <point x="-47" y="-225"/>
      <point x="-23" y="-190"/>
      <point x="-16" y="-167" type="qcurve"/>
      <point x="-51" y="-157"/>
      <point x="-51" y="-123" type="qcurve" smooth="yes"/>
      <point x="-51" y="-113" type="line"/>
      <point x="-49" y="-66"/>
      <point x="0" y="-66" type="qcurve"/>
      <point x="51" y="-69"/>
      <point x="51" y="-113" type="qcurve" smooth="yes"/>
      <point x="51" y="-124" type="line" smooth="yes"/>
      <point x="51" y="-188"/>
      <point x="-9" y="-245" type="qcurve"/>
    </contour>
  </outline>
</glyph>
<glyph name="dialytikatonos" format="2">
  <advance width="600"/>
  <unicode hex="0385"/>
  <outline>
    <contour>
      <point x="305" y="585" type="line"/>
      <point x="256" y="592" type="line"/>
      <point x="285" y="780" type="line"/>
      <point x="357" y="769" type="line"/>
    </contour>
    <contour>
      <point x="183" y="618" type="qcurve" smooth="yes"/>
      <point x="160" y="618"/>
      <point x="138" y="643"/>
      <point x="138" y="664" type="qcurve" smooth="yes"/>
      <point x="138" y="675" type="line" smooth="yes"/>
      <point x="138" y="696"/>
      <point x="160" y="721"/>
      <point x="183" y="721" type="qcurve" smooth="yes"/>
      <point x="206" y="721"/>
      <point x="228" y="696"/>
      <point x="228" y="675" type="qcurve" smooth="yes"/>
      <point x="228" y="664" type="line" smooth="yes"/>
      <point x="228" y="643"/>
      <point x="206" y="618"/>
    </contour>
    <contour>
      <point x="417" y="618" type="qcurve" smooth="yes"/>
      <point x="394" y="618"/>
      <point x="372" y="643"/>
      <point x="372" y="664" type="qcurve" smooth="yes"/>
      <point x="372" y="675" type="line" smooth="yes"/>
      <point x="372" y="696"/>
      <point x="394" y="721"/>
      <point x="417" y="721" type="qcurve" smooth="yes"/>
      <point x="440" y="721"/>
      <point x="462" y="696"/>
      <point x="462" y="675" type="qcurve" smooth="yes"/>
      <point x="462" y="664" type="line" smooth="yes"/>
      <point x="462" y="643"/>
      <point x="440" y="618"/>
    </contour>
  </outline>
</glyph>
<glyph name="Iotatonos" format="2">
  <advance width="470"/>
  <unicode hex="038A"/>
  <outline>
    <contour>
      <point x="193" y="0" type="line"/>
      <point x="193" y="698" type="line"/>
      <point x="277" y="698" type="line"/>
      <point x="277" y="0" type="line"/>
    </contour>
    <contour>
      <point x="165" y="769" type="line"/>
      <point x="113" y="585" type="line"/>
      <point x="56" y="592" type="line"/>
      <point x="85" y="780" type="line"/>
    </contour>
  </outline>
</glyph>
<glyph name="Omicrontonos" format="2">
  <advance width="712"/>
  <unicode hex="038C"/>
  <outline>
    <contour>
      <point x="358" y="63" type="qcurve" smooth="yes"/>
      <point x="403" y="63"/>
      <point x="479" y="95"/>
      <point x="534" y="155"/>
      <point x="564" y="239"/>
      <point x="564" y="291" type="qcurve" smooth="yes"/>
      <point x="564" y="407" type="line" smooth="yes"/>
      <point x="564" y="459"/>
      <point x="534" y="543"/>
      <point x="479" y="603"/>
      <point x="403" y="635"/>
      <point x="358" y="635" type="qcurve" smooth="yes"/>
      <point x="313" y="635"/>
      <point x="237" y="603"/>
      <point x="182" y="543"/>
      <point x="152" y="459"/>
      <point x="152" y="407" type="qcurve" smooth="yes"/>
      <point x="152" y="291" type="line" smooth="yes"/>
      <point x="152" y="239"/>
      <point x="182" y="155"/>
      <point x="237" y="95"/>
      <point x="313" y="63"/>
    </contour>
    <contour>
      <point x="358" y="-12" type="qcurve" smooth="yes"/>
      <point x="290" y="-12"/>
      <point x="181" y="35"/>
      <point x="104" y="126"/>
      <point x="62" y="261"/>
      <point x="62" y="349" type="qcurve" smooth="yes"/>
      <point x="62" y="437"/>
      <point x="104" y="571"/>
      <point x="181" y="663"/>
      <point x="290" y="710"/>
      <point x="358" y="710" type="qcurve" smooth="yes"/>
      <point x="425" y="710"/>
      <point x="535" y="663"/>
      <point x="612" y="571"/>
      <point x="654" y="437"/>
      <point x="654" y="349" type="qcurve" smooth="yes"/>
      <point x="654" y="261"/>
      <point x="612" y="126"/>
      <point x="535" y="35"/>
      <point x="425" y="-12"/>
    </contour>
    <contour>
      <point x="33" y="585" type="line"/>
      <point x="-24" y="592" type="line"/>
      <point x="5" y="780" type="line"/>
      <point x="85" y="769" type="line"/>
    </contour>
  </outline>
</glyph>
<glyph name="Upsilontonos" format="2">
  <advance width="677"/>
  <unicode hex="038E"/>
  <outline>
    <contour>
      <point x="33" y="585" type="line"/>
      <point x="-24" y="592" type="line"/>
      <point x="5" y="780" type="line"/>
      <point x="85" y="769" type="line"/>
    </contour>
    <contour>
      <point x="337" y="0" type="line"/>
      <point x="337" y="276" type="line"/>
      <point x="97" y="698" type="line"/>
      <point x="193" y="698" type="line"/>
      <point x="379" y="362" type="line"/>
      <point x="382" y="362" type="line"/>
      <point x="568" y="698" type="line"/>
      <point x="664" y="698" type="line"/>
      <point x="421" y="279" type="line"/>
      <point x="421" y="0" type="line"/>
    </contour>
  </outline>
</glyph>
<glyph name="Theta" format="2">
  <advance width="708"/>
  <unicode hex="0398"/>
  <outline>
    <contour>
      <point x="203" y="316" type="line"/>
      <point x="203" y="390" type="line"/>
      <point x="505" y="390" type="line"/>
      <point x="505" y="316" type="line"/>
    </contour>
    <contour>
      <point x="354" y="63" type="qcurve" smooth="yes"/>
      <point x="399" y="63"/>
      <point x="475" y="95"/>
      <point x="530" y="155"/>
      <point x="560" y="239"/>
      <point x="560" y="291" type="qcurve" smooth="yes"/>
      <point x="560" y="407" type="line" smooth="yes"/>
      <point x="560" y="459"/>
      <point x="530" y="543"/>
      <point x="475" y="603"/>
      <point x="399" y="635"/>
      <point x="354" y="635" type="qcurve" smooth="yes"/>
      <point x="309" y="635"/>
      <point x="233" y="603"/>
      <point x="178" y="543"/>
      <point x="148" y="459"/>
      <point x="148" y="407" type="qcurve" smooth="yes"/>
      <point x="148" y="291" type="line" smooth="yes"/>
      <point x="148" y="239"/>
      <point x="178" y="155"/>
      <point x="233" y="95"/>
      <point x="309" y="63"/>
    </contour>
    <contour>
      <point x="354" y="-12" type="qcurve" smooth="yes"/>
      <point x="286" y="-12"/>
      <point x="177" y="35"/>
      <point x="100" y="126"/>
      <point x="58" y="261"/>
      <point x="58" y="349" type="qcurve" smooth="yes"/>
      <point x="58" y="437"/>
      <point x="100" y="571"/>
      <point x="177" y="663"/>
      <point x="286" y="710"/>
      <point x="354" y="710" type="qcurve" smooth="yes"/>
      <point x="421" y="710"/>
      <point x="531" y="663"/>
      <point x="608" y="571"/>
      <point x="650" y="437"/>
      <point x="650" y="349" type="qcurve" smooth="yes"/>
      <point x="650" y="261"/>
      <point x="608" y="126"/>
      <point x="531" y="35"/>
      <point x="421" y="-12"/>
    </contour>
  </outline>
</glyph>
<glyph name="Iotadieresis" format="2">
  <advance width="270"/>
  <unicode hex="03AA"/>
  <outline>
    <contour>
      <point x="42" y="788" type="qcurve" smooth="yes"/>
      <point x="16" y="788"/>
      <point x="-8" y="814"/>
      <point x="-8" y="835" type="qcurve" smooth="yes"/>
      <point x="-8" y="847" type="line" smooth="yes"/>
      <point x="-8" y="868"/>
      <point x="16" y="894"/>
      <point x="42" y="894" type="qcurve" smooth="yes"/>
      <point x="68" y="894"/>
      <point x="92" y="868"/>
      <point x="92" y="847" type="qcurve" smooth="yes"/>
      <point x="92" y="835" type="line" smooth="yes"/>
      <point x="92" y="814"/>
      <point x="68" y="788"/>
    </contour>
    <contour>
      <point x="228" y="788" type="qcurve" smooth="yes"/>
      <point x="202" y="788"/>
      <point x="178" y="814"/>
      <point x="178" y="835" type="qcurve" smooth="yes"/>
      <point x="178" y="847" type="line" smooth="yes"/>
      <point x="178" y="868"/>
      <point x="202" y="894"/>
      <point x="228" y="894" type="qcurve" smooth="yes"/>
      <point x="254" y="894"/>
      <point x="278" y="868"/>
      <point x="278" y="847" type="qcurve" smooth="yes"/>
      <point x="278" y="835" type="line" smooth="yes"/>
      <point x="278" y="814"/>
      <point x="254" y="788"/>
    </contour>
    <contour>
      <point x="93" y="0" type="line"/>
      <point x="93" y="698" type="line"/>
      <point x="177" y="698" type="line"/>
      <point x="177" y="0" type="line"/>
    </contour>
  </outline>
</glyph>
<glyph name="alphatonos" format="2">
  <advance width="644"/>
  <unicode hex="03AC"/>
  <outline>
    <contour>
      <point x="257" y="59" type="qcurve" smooth="yes"/>
      <point x="279" y="59"/>
      <point x="316" y="69"/>
      <point x="346" y="95"/>
      <point x="372" y="139"/>
      <point x="384" y="173" type="qcurve" smooth="yes"/>
      <point x="415" y="258" type="line"/>
      <point x="384" y="343" type="line" smooth="yes"/>
      <point x="372" y="377"/>
      <point x="346" y="421"/>
      <point x="316" y="447"/>
      <point x="279" y="457"/>
      <point x="257" y="457" type="qcurve" smooth="yes"/>
      <point x="233" y="457"/>
      <point x="190" y="436"/>
      <point x="156" y="396"/>
      <point x="136" y="334"/>
      <point x="136" y="294" type="qcurve" smooth="yes"/>
      <point x="136" y="222" type="line" smooth="yes"/>
      <point x="136" y="181"/>
      <point x="156" y="120"/>
      <point x="190" y="80"/>
      <point x="233" y="59"/>
    </contour>
    <contour>
      <point x="608" y="0" type="line"/>
      <point x="563" y="0" type="line" smooth="yes"/>
      <point x="522" y="0"/>
      <point x="479" y="38"/>
      <point x="471" y="83" type="qcurve" smooth="yes"/>
      <point x="454" y="184" type="line"/>
      <point x="450" y="184" type="line"/>
      <point x="430" y="87"/>
      <point x="338" y="-12"/>
      <point x="257" y="-12" type="qcurve" smooth="yes"/>
      <point x="210" y="-12"/>
      <point x="134" y="27"/>
      <point x="80" y="97"/>
      <point x="50" y="197"/>
      <point x="50" y="258" type="qcurve" smooth="yes"/>
      <point x="50" y="319"/>
      <point x="80" y="419"/>
      <point x="134" y="489"/>
      <point x="210" y="528"/>
      <point x="257" y="528" type="qcurve" smooth="yes"/>
      <point x="337" y="528"/>
      <point x="431" y="432"/>
      <point x="452" y="332" type="qcurve"/>
      <point x="456" y="332" type="line"/>
      <point x="485" y="443" type="line"/>
      <point x="512" y="516" type="line"/>
      <point x="600" y="516" type="line"/>
      <point x="491" y="260" type="line"/>
      <point x="554" y="70" type="line"/>
      <point x="608" y="70" type="line"/>
    </contour>
    <contour>
      <point x="293" y="585" type="line"/>
      <point x="236" y="592" type="line"/>
      <point x="265" y="780" type="line"/>
      <point x="345" y="769" type="line"/>
    </contour>
  </outline>
</glyph>
<glyph name="epsilontonos" format="2">
  <advance width="518"/>
  <unicode hex="03AD"/>
  <outline>
    <contour>
      <point x="299" y="585" type="line"/>
      <point x="242" y="592" type="line"/>
      <point x="271" y="780" type="line"/>
      <point x="351" y="769" type="line"/>
    </contour>
    <contour>
      <point x="490" y="99" type="line"/>
      <point x="427" y="-12"/>
      <point x="266" y="-12" type="qcurve" smooth="yes"/>
      <point x="161" y="-12"/>
      <point x="60" y="70"/>
      <point x="60" y="137" type="qcurve" smooth="yes"/>
      <point x="60" y="191"/>
      <point x="124" y="254"/>
      <point x="187" y="265" type="qcurve"/>
      <point x="187" y="269" type="line"/>
      <point x="133" y="275"/>
      <point x="71" y="331"/>
      <point x="71" y="379" type="qcurve" smooth="yes"/>
      <point x="71" y="411"/>
      <point x="99" y="465"/>
      <point x="152" y="505"/>
      <point x="227" y="528"/>
      <point x="275" y="528" type="qcurve" smooth="yes"/>
      <point x="350" y="528"/>
      <point x="458" y="474"/>
      <point x="485" y="427" type="qcurve"/>
      <point x="427" y="381" type="line"/>
      <point x="407" y="417"/>
      <point x="330" y="457"/>
      <point x="274" y="457" type="qcurve" smooth="yes"/>
      <point x="242" y="457"/>
      <point x="198" y="445"/>
      <point x="170" y="425"/>
      <point x="157" y="399"/>
      <point x="157" y="386" type="qcurve" smooth="yes"/>
      <point x="157" y="374" type="line" smooth="yes"/>
      <point x="157" y="342"/>
      <point x="209" y="300"/>
      <point x="255" y="300" type="qcurve" smooth="yes"/>
      <point x="377" y="300" type="line"/>
      <point x="377" y="233" type="line"/>
      <point x="255" y="233" type="line" smooth="yes"/>
      <point x="146" y="233"/>
      <point x="146" y="153" type="qcurve" smooth="yes"/>
      <point x="146" y="141" type="line" smooth="yes"/>
      <point x="146" y="102"/>
      <point x="208" y="59"/>
      <point x="271" y="59" type="qcurve" smooth="yes"/>
      <point x="389" y="59"/>
      <point x="433" y="140" type="qcurve"/>
    </contour>
  </outline>
</glyph>
<glyph name="upsilondieresistonos" format="2">
  <advance width="568"/>
  <unicode hex="03B0"/>
  <outline>
    <contour>
      <point x="295" y="585" type="line"/>
      <point x="246" y="592" type="line"/>
      <point x="275" y="780" type="line"/>
      <point x="347" y="769" type="line"/>
    </contour>
    <contour>
      <point x="173" y="618" type="qcurve" smooth="yes"/>
      <point x="150" y="618"/>
      <point x="128" y="643"/>
      <point x="128" y="664" type="qcurve" smooth="yes"/>
      <point x="128" y="675" type="line" smooth="yes"/>
      <point x="128" y="696"/>
      <point x="150" y="721"/>
      <point x="173" y="721" type="qcurve" smooth="yes"/>
      <point x="196" y="721"/>
      <point x="218" y="696"/>
      <point x="218" y="675" type="qcurve" smooth="yes"/>
      <point x="218" y="664" type="line" smooth="yes"/>
      <point x="218" y="643"/>
      <point x="196" y="618"/>
    </contour>
    <contour>
      <point x="407" y="618" type="qcurve" smooth="yes"/>
      <point x="384" y="618"/>
      <point x="362" y="643"/>
      <point x="362" y="664" type="qcurve" smooth="yes"/>
      <point x="362" y="675" type="line" smooth="yes"/>
      <point x="362" y="696"/>
      <point x="384" y="721"/>
      <point x="407" y="721" type="qcurve" smooth="yes"/>
      <point x="430" y="721"/>
      <point x="452" y="696"/>
      <point x="452" y="675" type="qcurve" smooth="yes"/>
      <point x="452" y="664" type="line" smooth="yes"/>
      <point x="452" y="643"/>
      <point x="430" y="618"/>
    </contour>
    <contour>
      <point x="160" y="234" type="line" smooth="yes"/>
      <point x="160" y="143"/>
      <point x="218" y="59"/>
      <point x="284" y="59" type="qcurve" smooth="yes"/>
      <point x="350" y="59"/>
      <point x="408" y="143"/>
      <point x="408" y="234" type="qcurve" smooth="yes"/>
      <point x="408" y="516" type="line"/>
      <point x="488" y="516" type="line"/>
      <point x="488" y="246" type="line" smooth="yes"/>
      <point x="488" y="112"/>
      <point x="386" y="-12"/>
      <point x="284" y="-12" type="qcurve" smooth="yes"/>
      <point x="182" y="-12"/>
      <point x="80" y="112"/>
      <point x="80" y="246" type="qcurve" smooth="yes"/>
      <point x="80" y="516" type="line"/>
      <point x="160" y="516" type="line"/>
    </contour>
  </outline>
</glyph>
<glyph name="beta" format="2">
  <advance width="584"/>
  <unicode hex="03B2"/>
  <outline>
    <contour>
      <point x="246" y="438" type="line"/>
      <point x="293" y="438" type="line" smooth="yes"/>
      <point x="353" y="438"/>
      <point x="408" y="500"/>
      <point x="408" y="551" type="qcurve" smooth="yes"/>
      <point x="408" y="575" type="line" smooth="yes"/>
      <point x="408" y="623"/>
      <point x="351" y="680"/>
      <point x="291" y="680" type="qcurve" smooth="yes"/>
      <point x="227" y="680"/>
      <point x="165" y="608"/>
      <point x="165" y="527" type="qcurve" smooth="yes"/>
      <point x="165" y="137" type="line" smooth="yes"/>
      <point x="165" y="119"/>
      <point x="186" y="90"/>
      <point x="222" y="70"/>
      <point x="270" y="60"/>
      <point x="296" y="60" type="qcurve" smooth="yes"/>
      <point x="366" y="60"/>
      <point x="444" y="133"/>
      <point x="444" y="202" type="qcurve" smooth="yes"/>
      <point x="444" y="226" type="line" smooth="yes"/>
      <point x="444" y="295"/>
      <point x="366" y="368"/>
      <point x="298" y="368" type="qcurve" smooth="yes"/>
      <point x="246" y="368" type="line"/>
    </contour>
    <contour>
      <point x="85" y="521" type="line" smooth="yes"/>
      <point x="85" y="626"/>
      <point x="192" y="752"/>
      <point x="296" y="752" type="qcurve" smooth="yes"/>
      <point x="341" y="752"/>
      <point x="414" y="727"/>
      <point x="466" y="681"/>
      <point x="494" y="615"/>
      <point x="494" y="574" type="qcurve" smooth="yes"/>
      <point x="494" y="536"/>
      <point x="470" y="477"/>
      <point x="432" y="436"/>
      <point x="384" y="411"/>
      <point x="360" y="407" type="qcurve"/>
      <point x="360" y="403" type="line"/>
      <point x="390" y="399"/>
      <point x="451" y="376"/>
      <point x="500" y="331"/>
      <point x="530" y="261"/>
      <point x="530" y="211" type="qcurve" smooth="yes"/>
      <point x="530" y="164"/>
      <point x="501" y="82"/>
      <point x="445" y="22"/>
      <point x="366" y="-12"/>
      <point x="316" y="-12" type="qcurve" smooth="yes"/>
      <point x="266" y="-12"/>
      <point x="191" y="24"/>
      <point x="169" y="60" type="qcurve"/>
      <point x="165" y="60" type="line"/>
      <point x="165" y="-200" type="line"/>
      <point x="85" y="-200" type="line"/>
    </contour>
  </outline>
</glyph>
<glyph name="delta" format="2">
  <advance width="560"/>
  <unicode hex="03B4"/>
  <outline>
    <contour>
      <point x="259" y="670" type="line"/>
      <point x="189" y="675" type="line"/>
      <point x="189" y="671" type="line"/>
      <point x="332" y="557" type="line" smooth="yes"/>
      <point x="383" y="516"/>
      <point x="452" y="444"/>
      <point x="495" y="372"/>
      <point x="513" y="299"/>
      <point x="513" y="259" type="qcurve" smooth="yes"/>
      <point x="513" y="196"/>
      <point x="479" y="96"/>
      <point x="417" y="25"/>
      <point x="332" y="-12"/>
      <point x="280" y="-12" type="qcurve" smooth="yes"/>
      <point x="228" y="-12"/>
      <point x="142" y="26"/>
      <point x="81" y="95"/>
      <point x="47" y="191"/>
      <point x="47" y="250" type="qcurve" smooth="yes"/>
      <point x="47" y="315"/>
      <point x="82" y="415"/>
      <point x="141" y="482"/>
      <point x="219" y="516"/>
      <point x="262" y="516" type="qcurve"/>
      <point x="262" y="521" type="line"/>
      <point x="117" y="647" type="line"/>
      <point x="117" y="740" type="line"/>
      <point x="459" y="740" type="line"/>
      <point x="459" y="670" type="line"/>
    </contour>
    <contour>
      <point x="427" y="241" type="line" smooth="yes"/>
      <point x="427" y="278"/>
      <point x="417" y="338"/>
      <point x="390" y="394"/>
      <point x="340" y="451"/>
      <point x="301" y="487" type="qcurve"/>
      <point x="265" y="482"/>
      <point x="204" y="451"/>
      <point x="159" y="399"/>
      <point x="133" y="325"/>
      <point x="133" y="277" type="qcurve" smooth="yes"/>
      <point x="133" y="223" type="line" smooth="yes"/>
      <point x="133" y="140"/>
      <point x="215" y="59"/>
      <point x="280" y="59" type="qcurve" smooth="yes"/>
      <point x="312" y="59"/>
      <point x="366" y="79"/>
      <point x="405" y="120"/>
      <point x="427" y="181"/>
      <point x="427" y="223" type="qcurve" smooth="yes"/>
    </contour>
  </outline>
</glyph>
<glyph name="u03BC" format="2">
  <advance width="578"/>
  <unicode hex="03BC"/>
  <outline>
    <contour>
      <point x="85" y="-200" type="line"/>
      <point x="85" y="516" type="line"/>
      <point x="165" y="516" type="line"/>
      <point x="165" y="199" type="line" smooth="yes"/>
      <point x="165" y="60"/>
      <point x="283" y="60" type="qcurve" smooth="yes"/>
      <point x="307" y="60"/>
      <point x="352" y="72"/>
      <point x="387" y="97"/>
      <point x="408" y="134"/>
      <point x="408" y="160" type="qcurve" smooth="yes"/>
      <point x="408" y="516" type="line"/>
      <point x="488" y="516" type="line"/>
      <point x="488" y="70" type="line"/>
      <point x="547" y="70" type="line"/>
      <point x="547" y="0" type="line"/>
      <point x="493" y="0" type="line" smooth="yes"/>
      <point x="451" y="0"/>
      <point x="408" y="47"/>
      <point x="408" y="84" type="qcurve"/>
      <point x="404" y="84" type="line"/>
      <point x="368" y="-12"/>
      <point x="278" y="-12" type="qcurve" smooth="yes"/>
      <point x="230" y="-12"/>
      <point x="166" y="39"/>
      <point x="152" y="84" type="qcurve"/>
      <point x="148" y="84" type="line"/>
      <point x="165" y="-65" type="line"/>
      <point x="165" y="-200" type="line"/>
    </contour>
  </outline>
</glyph>
<glyph name="xi" format="2">
  <advance width="456"/>
  <unicode hex="03BE"/>
  <outline>
    <contour>
      <point x="295" y="670" type="line" smooth="yes"/>
      <point x="241" y="670"/>
      <point x="176" y="604"/>
      <point x="176" y="542" type="qcurve" smooth="yes"/>
      <point x="176" y="528" type="line" smooth="yes"/>
      <point x="176" y="475"/>
      <point x="232" y="419"/>
      <point x="286" y="419" type="qcurve" smooth="yes"/>
      <point x="373" y="419" type="line"/>
      <point x="373" y="349" type="line"/>
      <point x="286" y="349" type="line" smooth="yes"/>
      <point x="207" y="349"/>
      <point x="140" y="283"/>
      <point x="140" y="223" type="qcurve" smooth="yes"/>
      <point x="140" y="209" type="line" smooth="yes"/>
      <point x="140" y="159"/>
      <point x="201" y="98"/>
      <point x="270" y="80" type="qcurve" smooth="yes"/>
      <point x="346" y="60" type="line" smooth="yes"/>
      <point x="381" y="51"/>
      <point x="413" y="12"/>
      <point x="413" y="-14" type="qcurve" smooth="yes"/>
      <point x="413" y="-27"/>
      <point x="408" y="-47" type="qcurve" smooth="yes"/>
      <point x="378" y="-159" type="line"/>
      <point x="302" y="-140" type="line"/>
      <point x="336" y="-13" type="line"/>
      <point x="260" y="6" type="line" smooth="yes"/>
      <point x="203" y="20"/>
      <point x="124" y="56"/>
      <point x="76" y="106"/>
      <point x="54" y="172"/>
      <point x="54" y="216" type="qcurve" smooth="yes"/>
      <point x="54" y="282"/>
      <point x="135" y="375"/>
      <point x="207" y="384" type="qcurve"/>
      <point x="207" y="388" type="line"/>
      <point x="147" y="403"/>
      <point x="90" y="475"/>
      <point x="90" y="535" type="qcurve" smooth="yes"/>
      <point x="90" y="582"/>
      <point x="137" y="648"/>
      <point x="182" y="663" type="qcurve"/>
      <point x="182" y="670" type="line"/>
      <point x="45" y="670" type="line"/>
      <point x="45" y="740" type="line"/>
      <point x="428" y="740" type="line"/>
      <point x="428" y="670" type="line"/>
    </contour>
  </outline>
</glyph>
<glyph name="omicron" format="2">
  <advance width="560"/>
  <unicode hex="03BF"/>
  <outline>
    <contour>
      <point x="280" y="-12" type="qcurve" smooth="yes"/>
      <point x="228" y="-12"/>
      <point x="142" y="26"/>
      <point x="81" y="97"/>
      <point x="47" y="196"/>
      <point x="47" y="258" type="qcurve" smooth="yes"/>
      <point x="47" y="319"/>
      <point x="81" y="419"/>
      <point x="142" y="490"/>
      <point x="228" y="528"/>
      <point x="280" y="528" type="qcurve" smooth="yes"/>
      <point x="332" y="528"/>
      <point x="417" y="490"/>
      <point x="479" y="419"/>
      <point x="513" y="319"/>
      <point x="513" y="258" type="qcurve" smooth="yes"/>
      <point x="513" y="196"/>
      <point x="479" y="97"/>
      <point x="417" y="26"/>
      <point x="332" y="-12"/>
    </contour>
    <contour>
      <point x="280" y="59" type="qcurve" smooth="yes"/>
      <point x="345" y="59"/>
      <point x="427" y="139"/>
      <point x="427" y="221" type="qcurve" smooth="yes"/>
      <point x="427" y="295" type="line" smooth="yes"/>
      <point x="427" y="377"/>
      <point x="345" y="457"/>
      <point x="280" y="457" type="qcurve" smooth="yes"/>
      <point x="215" y="457"/>
      <point x="133" y="377"/>
      <point x="133" y="295" type="qcurve" smooth="yes"/>
      <point x="133" y="221" type="line" smooth="yes"/>
      <point x="133" y="139"/>
      <point x="215" y="59"/>
    </contour>
  </outline>
</glyph>
<glyph name="sigma" format="2">
  <advance width="583"/>
  <unicode hex="03C3"/>
  <outline>
    <contour>
      <point x="420" y="446" type="line"/>
      <point x="420" y="439" type="line"/>
      <point x="470" y="416"/>
      <point x="513" y="325"/>
      <point x="513" y="252" type="qcurve" smooth="yes"/>
      <point x="513" y="193"/>
      <point x="479" y="95"/>
      <point x="417" y="26"/>
      <point x="332" y="-12"/>
      <point x="280" y="-12" type="qcurve" smooth="yes"/>
      <point x="228" y="-12"/>
      <point x="142" y="26"/>
      <point x="81" y="95"/>
      <point x="47" y="193"/>
      <point x="47" y="252" type="qcurve" smooth="yes"/>
      <point x="47" y="311"/>
      <point x="79" y="409"/>
      <point x="141" y="478"/>
      <point x="233" y="516"/>
      <point x="292" y="516" type="qcurve" smooth="yes"/>
      <point x="558" y="516" type="line"/>
      <point x="558" y="446" type="line"/>
    </contour>
    <contour>
      <point x="292" y="446" type="line" smooth="yes"/>
      <point x="218" y="446"/>
      <point x="133" y="365"/>
      <point x="133" y="283" type="qcurve" smooth="yes"/>
      <point x="133" y="221" type="line" smooth="yes"/>
      <point x="133" y="139"/>
      <point x="215" y="59"/>
      <point x="280" y="59" type="qcurve" smooth="yes"/>
      <point x="345" y="59"/>
      <point x="427" y="139"/>
      <point x="427" y="221" type="qcurve" smooth="yes"/>
      <point x="427" y="283" type="line" smooth="yes"/>
      <point x="427" y="338"/>
      <point x="395" y="412"/>
      <point x="362" y="446" type="qcurve"/>
    </contour>
  </outline>
</glyph>
<glyph name="iotadieresis" format="2">
  <advance width="295"/>
  <unicode hex="03CA"/>
  <outline>
    <contour>
      <point x="40" y="618" type="qcurve" smooth="yes"/>
      <point x="14" y="618"/>
      <point x="-9" y="643"/>
      <point x="-9" y="664" type="qcurve" smooth="yes"/>
      <point x="-9" y="675" type="line" smooth="yes"/>
      <point x="-9" y="696"/>
      <point x="14" y="721"/>
      <point x="40" y="721" type="qcurve" smooth="yes"/>
      <point x="66" y="721"/>
      <point x="89" y="696"/>
      <point x="89" y="675" type="qcurve" smooth="yes"/>
      <point x="89" y="664" type="line" smooth="yes"/>
      <point x="89" y="643"/>
      <point x="66" y="618"/>
    </contour>
    <contour>
      <point x="226" y="618" type="qcurve" smooth="yes"/>
      <point x="200" y="618"/>
      <point x="177" y="643"/>
      <point x="177" y="664" type="qcurve" smooth="yes"/>
      <point x="177" y="675" type="line" smooth="yes"/>
      <point x="177" y="696"/>
      <point x="200" y="721"/>
      <point x="226" y="721" type="qcurve" smooth="yes"/>
      <point x="252" y="721"/>
      <point x="275" y="696"/>
      <point x="275" y="675" type="qcurve" smooth="yes"/>
      <point x="275" y="664" type="line" smooth="yes"/>
      <point x="275" y="643"/>
      <point x="252" y="618"/>
    </contour>
    <contour>
      <point x="270" y="0" type="line"/>
      <point x="170" y="0" type="line" smooth="yes"/>
      <point x="128" y="0"/>
      <point x="85" y="47"/>
      <point x="85" y="85" type="qcurve" smooth="yes"/>
      <point x="85" y="516" type="line"/>
      <point x="165" y="516" type="line"/>
      <point x="165" y="70" type="line"/>
      <point x="270" y="70" type="line"/>
    </contour>
  </outline>
</glyph>
<glyph name="upsilondieresis" format="2">
  <advance width="568"/>
  <unicode hex="03CB"/>
  <outline>
    <contour>
      <point x="160" y="234" type="line" smooth="yes"/>
      <point x="160" y="143"/>
      <point x="218" y="59"/>
      <point x="284" y="59" type="qcurve" smooth="yes"/>
      <point x="350" y="59"/>
      <point x="408" y="143"/>
      <point x="408" y="234" type="qcurve" smooth="yes"/>
      <point x="408" y="516" type="line"/>
      <point x="488" y="516" type="line"/>
      <point x="488" y="246" type="line" smooth="yes"/>
      <point x="488" y="112"/>
      <point x="386" y="-12"/>
      <point x="284" y="-12" type="qcurve" smooth="yes"/>
      <point x="182" y="-12"/>
      <point x="80" y="112"/>
      <point x="80" y="246" type="qcurve" smooth="yes"/>
      <point x="80" y="516" type="line"/>
      <point x="160" y="516" type="line"/>
    </contour>
    <contour>
      <point x="192" y="618" type="qcurve" smooth="yes"/>
      <point x="166" y="618"/>
      <point x="143" y="643"/>
      <point x="143" y="664" type="qcurve" smooth="yes"/>
      <point x="143" y="675" type="line" smooth="yes"/>
      <point x="143" y="696"/>
      <point x="166" y="721"/>
      <point x="192" y="721" type="qcurve" smooth="yes"/>
      <point x="218" y="721"/>
      <point x="241" y="696"/>
      <point x="241" y="675" type="qcurve" smooth="yes"/>
      <point x="241" y="664" type="line" smooth="yes"/>
      <point x="241" y="643"/>
      <point x="218" y="618"/>
    </contour>
    <contour>
      <point x="378" y="618" type="qcurve" smooth="yes"/>
      <point x="352" y="618"/>
      <point x="329" y="643"/>
      <point x="329" y="664" type="qcurve" smooth="yes"/>
      <point x="329" y="675" type="line" smooth="yes"/>
      <point x="329" y="696"/>
      <point x="352" y="721"/>
      <point x="378" y="721" type="qcurve" smooth="yes"/>
      <point x="404" y="721"/>
      <point x="427" y="696"/>
      <point x="427" y="675" type="qcurve" smooth="yes"/>
      <point x="427" y="664" type="line" smooth="yes"/>
      <point x="427" y="643"/>
      <point x="404" y="618"/>
    </contour>
  </outline>
</glyph>
<glyph name="u0400" format="2">
  <advance width="583"/>
  <unicode hex="0400"/>
  <outline>
    <contour>
      <point x="93" y="0" type="line"/>
      <point x="93" y="698" type="line"/>
      <point x="519" y="698" type="line"/>
      <point x="519" y="624" type="line"/>
      <point x="177" y="624" type="line"/>
      <point x="177" y="390" type="line"/>
      <point x="499" y="390" type="line"/>
      <point x="499" y="316" type="line"/>
      <point x="177" y="316" type="line"/>
      <point x="177" y="74" type="line"/>
      <point x="519" y="74" type="line"/>
      <point x="519" y="0" type="line"/>
    </contour>
    <contour>
      <point x="191" y="914" type="line"/>
      <point x="264" y="949" type="line"/>
      <point x="349" y="779" type="line"/>
      <point x="297" y="755" type="line"/>
    </contour>
  </outline>
</glyph>
<glyph name="Djecyr" format="2">
  <advance width="786"/>
  <unicode hex="0402"/>
  <outline>
    <contour>
      <point x="509" y="-164" type="line"/>
      <point x="509" y="-90" type="line"/>
      <point x="593" y="-90" type="line"/>
      <point x="617" y="-71"/>
      <point x="644" y="1"/>
      <point x="644" y="64" type="qcurve" smooth="yes"/>
      <point x="644" y="190" type="line" smooth="yes"/>
      <point x="644" y="282"/>
      <point x="560" y="364"/>
      <point x="479" y="364" type="qcurve" smooth="yes"/>
      <point x="385" y="364"/>
      <point x="328" y="341" type="qcurve"/>
      <point x="328" y="0" type="line"/>
      <point x="244" y="0" type="line"/>
      <point x="244" y="624" type="line"/>
      <point x="22" y="624" type="line"/>
      <point x="22" y="698" type="line"/>
      <point x="550" y="698" type="line"/>
      <point x="550" y="624" type="line"/>
      <point x="328" y="624" type="line"/>
      <point x="328" y="415" type="line"/>
      <point x="333" y="415" type="line"/>
      <point x="394" y="438"/>
      <point x="482" y="438" type="qcurve" smooth="yes"/>
      <point x="608" y="438"/>
      <point x="728" y="317"/>
      <point x="728" y="190" type="qcurve" smooth="yes"/>
      <point x="728" y="64" type="line" smooth="yes"/>
      <point x="728" y="-56"/>
      <point x="639" y="-164"/>
      <point x="555" y="-164" type="qcurve" smooth="yes"/>
    </contour>
  </outline>
</glyph>
<glyph name="Eukrcyr" format="2">
  <advance width="631"/>
  <unicode hex="0404"/>
  <outline>
    <contour>
      <point x="344" y="-12" type="qcurve" smooth="yes"/>
      <point x="206" y="-12"/>
      <point x="58" y="169"/>
      <point x="58" y="345" type="qcurve" smooth="yes"/>
      <point x="58" y="521"/>
      <point x="206" y="710"/>
      <point x="344" y="710" type="qcurve" smooth="yes"/>
      <point x="521" y="710"/>
      <point x="589" y="557" type="qcurve"/>
      <point x="521" y="516" type="line"/>
      <point x="476" y="635"/>
      <point x="344" y="635" type="qcurve" smooth="yes"/>
      <point x="248" y="635"/>
      <point x="148" y="505"/>
      <point x="148" y="390" type="qcurve"/>
      <point x="442" y="390" type="line"/>
      <point x="442" y="316" type="line"/>
      <point x="148" y="316" type="line"/>
      <point x="148" y="293" type="line" smooth="yes"/>
      <point x="148" y="185"/>
      <point x="248" y="63"/>
      <point x="344" y="63" type="qcurve" smooth="yes"/>
      <point x="416" y="63"/>
      <point x="506" y="131"/>
      <point x="527" y="189" type="qcurve"/>
      <point x="594" y="147" type="line"/>
      <point x="561" y="72"/>
      <point x="437" y="-12"/>
    </contour>
  </outline>
</glyph>
<glyph name="Iukrcyr" format="2">
  <advance width="270"/>
  <unicode hex="0406"/>
  <outline>
    <contour>
      <point x="93" y="0" type="line"/>
      <point x="93" y="698" type="line"/>
      <point x="177" y="698" type="line"/>
      <point x="177" y="0" type="line"/>
    </contour>
  </outline>
</glyph>
<glyph name="u0407" format="2">
  <advance width="270"/>
  <unicode hex="0407"/>
  <outline>
    <contour>
      <point x="93" y="0" type="line"/>
      <point x="93" y="698" type="line"/>
      <point x="177" y="698" type="line"/>
      <point x="177" y="0" type="line"/>
    </contour>
    <contour>
      <point x="43" y="788" type="qcurve" smooth="yes"/>
      <point x="-7" y="788"/>
      <point x="-7" y="835" type="qcurve" smooth="yes"/>
      <point x="-7" y="847" type="line" smooth="yes"/>
      <point x="-7" y="894"/>
      <point x="43" y="894" type="qcurve" smooth="yes"/>
      <point x="93" y="894"/>
      <point x="93" y="847" type="qcurve" smooth="yes"/>
      <point x="93" y="835" type="line" smooth="yes"/>
      <point x="93" y="788"/>
    </contour>
    <contour>
      <point x="229" y="788" type="qcurve" smooth="yes"/>
      <point x="179" y="788"/>
      <point x="179" y="835" type="qcurve" smooth="yes"/>
      <point x="179" y="847" type="line" smooth="yes"/>
      <point x="179" y="894"/>
      <point x="229" y="894" type="qcurve" smooth="yes"/>
      <point x="279" y="894"/>
      <point x="279" y="847" type="qcurve" smooth="yes"/>
      <point x="279" y="835" type="line" smooth="yes"/>
      <point x="279" y="788"/>
    </contour>
  </outline>
</glyph>
<glyph name="afii10058" format="2">
  <advance width="1014"/>
  <unicode hex="0409"/>
  <outline>
    <contour>
      <point x="487" y="0" type="line"/>
      <point x="487" y="624" type="line"/>
      <point x="251" y="624" type="line"/>
      <point x="251" y="499" type="line" smooth="yes"/>
      <point x="251" y="283"/>
      <point x="226" y="185" type="qcurve"/>
      <point x="202" y="82"/>
      <point x="155" y="41" type="qcurve"/>
      <point x="118" y="0"/>
      <point x="46" y="0" type="qcurve" smooth="yes"/>
      <point x="10" y="0" type="line"/>
      <point x="10" y="74" type="line"/>
      <point x="82" y="74" type="line"/>
      <point x="128" y="114"/>
      <point x="150" y="208" type="qcurve" smooth="yes"/>
      <point x="171" y="297"/>
      <point x="171" y="505" type="qcurve" smooth="yes"/>
      <point x="171" y="698" type="line"/>
      <point x="571" y="698" type="line"/>
      <point x="571" y="418" type="line"/>
      <point x="779" y="418" type="line" smooth="yes"/>
      <point x="873" y="418"/>
      <point x="974" y="309"/>
      <point x="974" y="209" type="qcurve" smooth="yes"/>
      <point x="974" y="109"/>
      <point x="873" y="0"/>
      <point x="779" y="0" type="qcurve" smooth="yes"/>
    </contour>
    <contour>
      <point x="779" y="74" type="line" smooth="yes"/>
      <point x="884" y="74"/>
      <point x="884" y="183" type="qcurve" smooth="yes"/>
      <point x="884" y="235" type="line" smooth="yes"/>
      <point x="884" y="290"/>
      <point x="829" y="344"/>
      <point x="779" y="344" type="qcurve" smooth="yes"/>
      <point x="571" y="344" type="line"/>
      <point x="571" y="74" type="line"/>
    </contour>
  </outline>
</glyph>
<glyph name="afii10060" format="2">
  <advance width="796"/>
  <unicode hex="040B"/>
  <outline>
    <contour>
      <point x="654" y="0" type="line"/>
      <point x="654" y="190" type="line" smooth="yes"/>
      <point x="654" y="282"/>
      <point x="569" y="364"/>
      <point x="484" y="364" type="qcurve" smooth="yes"/>
      <point x="384" y="364"/>
      <point x="328" y="341" type="qcurve"/>
      <point x="328" y="0" type="line"/>
      <point x="244" y="0" type="line"/>
      <point x="244" y="624" type="line"/>
      <point x="22" y="624" type="line"/>
      <point x="22" y="698" type="line"/>
      <point x="550" y="698" type="line"/>
      <point x="550" y="624" type="line"/>
      <point x="328" y="624" type="line"/>
      <point x="328" y="415" type="line"/>
      <point x="333" y="415" type="line"/>
      <point x="393" y="438"/>
      <point x="498" y="438" type="qcurve" smooth="yes"/>
      <point x="738" y="438"/>
      <point x="738" y="190" type="qcurve" smooth="yes"/>
      <point x="738" y="0" type="line"/>
    </contour>
  </outline>
</glyph>
<glyph name="Ushortcyr" format="2">
  <advance width="595"/>
  <unicode hex="040E"/>
  <outline>
    <contour>
      <point x="144" y="0" type="line"/>
      <point x="144" y="74" type="line"/>
      <point x="245" y="74" type="line"/>
      <point x="278" y="157" type="line"/>
      <point x="20" y="698" type="line"/>
      <point x="111" y="698" type="line"/>
      <point x="262" y="380" type="line"/>
      <point x="314" y="259" type="line"/>
      <point x="319" y="259" type="line"/>
      <point x="363" y="382" type="line"/>
      <point x="489" y="698" type="line"/>
      <point x="575" y="698" type="line"/>
      <point x="331" y="89" type="line"/>
      <point x="311" y="36"/>
      <point x="255" y="0"/>
      <point x="199" y="0" type="qcurve" smooth="yes"/>
    </contour>
    <contour>
      <point x="306" y="766" type="qcurve" smooth="yes"/>
      <point x="209" y="766"/>
      <point x="169" y="844" type="qcurve" smooth="yes"/>
      <point x="149" y="882" type="line"/>
      <point x="219" y="913" type="line"/>
      <point x="254" y="831" type="line"/>
      <point x="282" y="825"/>
      <point x="306" y="825" type="qcurve" smooth="yes"/>
      <point x="330" y="825"/>
      <point x="358" y="831" type="qcurve"/>
      <point x="393" y="913" type="line"/>
      <point x="463" y="882" type="line"/>
      <point x="443" y="844" type="line" smooth="yes"/>
      <point x="403" y="766"/>
    </contour>
  </outline>
</glyph>
<glyph name="afii10019" format="2">
  <advance width="653"/>
  <unicode hex="0412"/>
  <outline>
    <contour>
      <point x="93" y="0" type="line"/>
      <point x="93" y="698" type="line"/>
      <point x="380" y="698" type="line" smooth="yes"/>
      <point x="467" y="698"/>
      <point x="566" y="600"/>
      <point x="566" y="518" type="qcurve" smooth="yes"/>
      <point x="566" y="446"/>
      <point x="527" y="408" type="qcurve"/>
      <point x="490" y="374"/>
      <point x="453" y="370" type="qcurve"/>
      <point x="453" y="364" type="line"/>
      <point x="494" y="364"/>
      <point x="540" y="326" type="qcurve"/>
      <point x="590" y="281"/>
      <point x="590" y="202" type="qcurve" smooth="yes"/>
      <point x="590" y="117"/>
      <point x="488" y="0"/>
      <point x="410" y="0" type="qcurve" smooth="yes"/>
    </contour>
    <contour>
      <point x="370" y="396" type="line"/>
      <point x="476" y="399"/>
      <point x="476" y="493" type="qcurve" smooth="yes"/>
      <point x="476" y="527" type="line" smooth="yes"/>
      <point x="476" y="574"/>
      <point x="420" y="624"/>
      <point x="370" y="624" type="qcurve" smooth="yes"/>
      <point x="177" y="624" type="line"/>
      <point x="177" y="396" type="line"/>
    </contour>
    <contour>
      <point x="384" y="74" type="line" smooth="yes"/>
      <point x="438" y="74"/>
      <point x="500" y="129"/>
      <point x="500" y="182" type="qcurve" smooth="yes"/>
      <point x="500" y="216" type="line" smooth="yes"/>
      <point x="500" y="269"/>
      <point x="438" y="324"/>
      <point x="384" y="324" type="qcurve" smooth="yes"/>
      <point x="177" y="324" type="line"/>
      <point x="177" y="74" type="line"/>
    </contour>
  </outline>
</glyph>
<glyph name="u0414" format="2">
  <advance width="726"/>
  <unicode hex="0414"/>
  <outline>
    <contour>
      <point x="512" y="624" type="line"/>
      <point x="256" y="624" type="line"/>
      <point x="256" y="487" type="line" smooth="yes"/>
      <point x="256" y="195"/>
      <point x="181" y="79" type="qcurve"/>
      <point x="181" y="74" type="line"/>
      <point x="512" y="74" type="line"/>
    </contour>
    <contour>
      <point x="617" y="-150" type="line"/>
      <point x="617" y="0" type="line"/>
      <point x="87" y="0" type="line"/>
      <point x="87" y="-150" type="line"/>
      <point x="10" y="-150" type="line"/>
      <point x="10" y="74" type="line"/>
      <point x="83" y="74" type="line"/>
      <point x="128" y="137"/>
      <point x="176" y="338"/>
      <point x="176" y="493" type="qcurve" smooth="yes"/>
      <point x="176" y="698" type="line"/>
      <point x="596" y="698" type="line"/>
      <point x="596" y="74" type="line"/>
      <point x="694" y="74" type="line"/>
      <point x="694" y="-150" type="line"/>
    </contour>
  </outline>
</glyph>
<glyph name="Iecyr" format="2">
  <advance width="583"/>
  <unicode hex="0415"/>
  <outline>
    <contour>
      <point x="93" y="0" type="line"/>
      <point x="93" y="698" type="line"/>
      <point x="519" y="698" type="line"/>
      <point x="519" y="624" type="line"/>
      <point x="177" y="624" type="line"/>
      <point x="177" y="390" type="line"/>
      <point x="499" y="390" type="line"/>
      <point x="499" y="316" type="line"/>
      <point x="177" y="316" type="line"/>
      <point x="177" y="74" type="line"/>
      <point x="519" y="74" type="line"/>
      <point x="519" y="0" type="line"/>
    </contour>
  </outline>
</glyph>
<glyph name="u0419" format="2">
  <advance width="707"/>
  <unicode hex="0419"/>
  <outline>
    <contour>
      <point x="532" y="0" type="line"/>
      <point x="532" y="438" type="line"/>
      <point x="540" y="581" type="line"/>
      <point x="537" y="581" type="line"/>
      <point x="467" y="455" type="line"/>
      <point x="169" y="0" type="line"/>
      <point x="93" y="0" type="line"/>
      <point x="93" y="698" type="line"/>
      <point x="175" y="698" type="line"/>
      <point x="175" y="260" type="line"/>
      <point x="167" y="117" type="line"/>
      <point x="170" y="117" type="line"/>
      <point x="240" y="243" type="line"/>
      <point x="538" y="698" type="line"/>
      <point x="614" y="698" type="line"/>
      <point x="614" y="0" type="line"/>
    </contour>
    <contour>
      <point x="351" y="766" type="qcurve" smooth="yes"/>
      <point x="254" y="766"/>
      <point x="214" y="844" type="qcurve" smooth="yes"/>
      <point x="194" y="882" type="line"/>
      <point x="264" y="913" type="line"/>
      <point x="299" y="831" type="line"/>
      <point x="327" y="825"/>
      <point x="351" y="825" type="qcurve" smooth="yes"/>
      <point x="375" y="825"/>
      <point x="403" y="831" type="qcurve"/>
      <point x="438" y="913" type="line"/>
      <point x="508" y="882" type="line"/>
      <point x="488" y="844" type="line" smooth="yes"/>
      <point x="448" y="766"/>
    </contour>
  </outline>
</glyph>
<glyph name="afii10031" format="2">
  <advance width="707"/>
  <unicode hex="041D"/>
  <outline>
    <contour>
      <point x="530" y="0" type="line"/>
      <point x="530" y="316" type="line"/>
      <point x="177" y="316" type="line"/>
      <point x="177" y="0" type="line"/>
      <point x="93" y="0" type="line"/>
      <point x="93" y="698" type="line"/>
      <point x="177" y="698" type="line"/>
      <point x="177" y="390" type="line"/>
      <point x="530" y="390" type="line"/>
      <point x="530" y="698" type="line"/>
      <point x="614" y="698" type="line"/>
      <point x="614" y="0" type="line"/>
    </contour>
  </outline>
</glyph>
<glyph name="Ucyr" format="2">
  <advance width="595"/>
  <unicode hex="0423"/>
  <outline>
    <contour>
      <point x="144" y="0" type="line"/>
      <point x="144" y="74" type="line"/>
      <point x="245" y="74" type="line"/>
      <point x="278" y="157" type="line"/>
      <point x="20" y="698" type="line"/>
      <point x="111" y="698" type="line"/>
      <point x="262" y="380" type="line"/>
      <point x="314" y="259" type="line"/>
      <point x="319" y="259" type="line"/>
      <point x="363" y="382" type="line"/>
      <point x="489" y="698" type="line"/>
      <point x="575" y="698" type="line"/>
      <point x="331" y="89" type="line"/>
      <point x="311" y="36"/>
      <point x="255" y="0"/>
      <point x="199" y="0" type="qcurve" smooth="yes"/>
    </contour>
  </outline>
</glyph>
<glyph name="Efcyr" format="2">
  <advance width="844"/>
  <unicode hex="0424"/>
  <outline>
    <contour>
      <point x="494" y="131" type="line" smooth="yes"/>
      <point x="589" y="131"/>
      <point x="704" y="238"/>
      <point x="704" y="317" type="qcurve" smooth="yes"/>
      <point x="704" y="379" type="line" smooth="yes"/>
      <point x="704" y="459"/>
      <point x="589" y="565"/>
      <point x="494" y="565" type="qcurve" smooth="yes"/>
      <point x="462" y="565" type="line"/>
      <point x="462" y="131" type="line"/>
    </contour>
    <contour>
      <point x="382" y="565" type="line"/>
      <point x="350" y="565" type="line" smooth="yes"/>
      <point x="256" y="565"/>
      <point x="140" y="459"/>
      <point x="140" y="379" type="qcurve" smooth="yes"/>
      <point x="140" y="317" type="line" smooth="yes"/>
      <point x="140" y="238"/>
      <point x="255" y="131"/>
      <point x="349" y="131" type="qcurve" smooth="yes"/>
      <point x="382" y="131" type="line"/>
    </contour>
    <contour>
      <point x="380" y="-29" type="line"/>
      <point x="380" y="61" type="line"/>
      <point x="349" y="61" type="line" smooth="yes"/>
      <point x="210" y="61"/>
      <point x="50" y="224"/>
      <point x="50" y="348" type="qcurve" smooth="yes"/>
      <point x="50" y="470"/>
      <point x="130" y="553" type="qcurve" smooth="yes"/>
      <point x="211" y="635"/>
      <point x="350" y="635" type="qcurve" smooth="yes"/>
      <point x="380" y="635" type="line"/>
      <point x="380" y="725" type="line"/>
      <point x="464" y="725" type="line"/>
      <point x="464" y="635" type="line"/>
      <point x="494" y="635" type="line" smooth="yes"/>
      <point x="564" y="635"/>
      <point x="676" y="592"/>
      <point x="715" y="553" type="qcurve"/>
      <point x="794" y="470"/>
      <point x="794" y="348" type="qcurve" smooth="yes"/>
      <point x="794" y="224"/>
      <point x="715" y="143" type="qcurve" smooth="yes"/>
      <point x="676" y="104"/>
      <point x="564" y="61"/>
      <point x="494" y="61" type="qcurve" smooth="yes"/>
      <point x="464" y="61" type="line"/>
      <point x="464" y="-29" type="line"/>
    </contour>
  </outline>
</glyph>
<glyph name="afii10042" format="2">
  <advance width="956"/>
  <unicode hex="0428"/>
  <outline>
    <contour>
      <point x="93" y="0" type="line"/>
      <point x="93" y="698" type="line"/>
      <point x="177" y="698" type="line"/>
      <point x="177" y="74" type="line"/>
      <point x="436" y="74" type="line"/>
      <point x="436" y="698" type="line"/>
      <point x="520" y="698" type="line"/>
      <point x="520" y="74" type="line"/>
      <point x="779" y="74" type="line"/>
      <point x="779" y="698" type="line"/>
      <point x="863" y="698" type="line"/>
      <point x="863" y="0" type="line"/>
    </contour>
  </outline>
</glyph>
<glyph name="Ereversedcyr" format="2">
  <advance width="631"/>
  <unicode hex="042D"/>
  <outline>
    <contour>
      <point x="287" y="-12" type="qcurve" smooth="yes"/>
      <point x="194" y="-12"/>
      <point x="70" y="72"/>
      <point x="37" y="147" type="qcurve"/>
      <point x="104" y="189" type="line"/>
      <point x="125" y="131"/>
      <point x="215" y="63"/>
      <point x="287" y="63" type="qcurve" smooth="yes"/>
      <point x="383" y="63"/>
      <point x="483" y="194"/>
      <point x="483" y="302" type="qcurve" smooth="yes"/>
      <point x="483" y="316" type="line"/>
      <point x="189" y="316" type="line"/>
      <point x="189" y="390" type="line"/>
      <point x="483" y="390" type="line"/>
      <point x="483" y="405" type="line" smooth="yes"/>
      <point x="483" y="513"/>
      <point x="383" y="635"/>
      <point x="287" y="635" type="qcurve" smooth="yes"/>
      <point x="218" y="635"/>
      <point x="131" y="571"/>
      <point x="110" y="516" type="qcurve"/>
      <point x="42" y="557" type="line"/>
      <point x="111" y="710"/>
      <point x="287" y="710" type="qcurve" smooth="yes"/>
      <point x="425" y="710"/>
      <point x="573" y="529"/>
      <point x="573" y="353" type="qcurve" smooth="yes"/>
      <point x="573" y="177"/>
      <point x="425" y="-12"/>
    </contour>
  </outline>
</glyph>
<glyph name="afii10049" format="2">
  <advance width="640"/>
  <unicode hex="042F"/>
  <outline>
    <contour>
      <point x="463" y="0" type="line"/>
      <point x="463" y="300" type="line"/>
      <point x="310" y="300" type="line"/>
      <point x="192" y="70" type="line" smooth="yes"/>
      <point x="172" y="30"/>
      <point x="132" y="0"/>
      <point x="103" y="0" type="qcurve" smooth="yes"/>
      <point x="41" y="0" type="line"/>
      <point x="41" y="74" type="line"/>
      <point x="101" y="74" type="line"/>
      <point x="187" y="241" type="line" smooth="yes"/>
      <point x="203" y="272"/>
      <point x="232" y="303"/>
      <point x="255" y="308" type="qcurve"/>
      <point x="255" y="313" type="line"/>
      <point x="161" y="317"/>
      <point x="74" y="421"/>
      <point x="74" y="500" type="qcurve" smooth="yes"/>
      <point x="74" y="597"/>
      <point x="176" y="698"/>
      <point x="269" y="698" type="qcurve" smooth="yes"/>
      <point x="547" y="698" type="line"/>
      <point x="547" y="0" type="line"/>
    </contour>
    <contour>
      <point x="463" y="624" type="line"/>
      <point x="269" y="624" type="line"/>
      <point x="164" y="620"/>
      <point x="164" y="524" type="qcurve" smooth="yes"/>
      <point x="164" y="472" type="line"/>
      <point x="167" y="372"/>
      <point x="269" y="372" type="qcurve" smooth="yes"/>
      <point x="463" y="372" type="line"/>
    </contour>
  </outline>
</glyph>
<glyph name="u0431" format="2">
  <advance width="564"/>
  <unicode hex="0431"/>
  <outline>
    <contour>
      <point x="288" y="59" type="qcurve" smooth="yes"/>
      <point x="350" y="59"/>
      <point x="390" y="99" type="qcurve"/>
      <point x="431" y="143"/>
      <point x="431" y="216" type="qcurve" smooth="yes"/>
      <point x="431" y="279" type="line" smooth="yes"/>
      <point x="431" y="363"/>
      <point x="349" y="445"/>
      <point x="280" y="445" type="qcurve" smooth="yes"/>
      <point x="208" y="445"/>
      <point x="137" y="374"/>
      <point x="137" y="317" type="qcurve" smooth="yes"/>
      <point x="137" y="225" type="line" smooth="yes"/>
      <point x="137" y="141"/>
      <point x="219" y="59"/>
    </contour>
    <contour>
      <point x="284" y="-12" type="qcurve" smooth="yes"/>
      <point x="51" y="-12"/>
      <point x="51" y="307" type="qcurve" smooth="yes"/>
      <point x="51" y="529"/>
      <point x="174" y="726"/>
      <point x="314" y="735" type="qcurve"/>
      <point x="476" y="748" type="line"/>
      <point x="476" y="667" type="line"/>
      <point x="390" y="660"/>
      <point x="218" y="648"/>
      <point x="144" y="543"/>
      <point x="135" y="411" type="qcurve"/>
      <point x="139" y="411" type="line"/>
      <point x="162" y="464"/>
      <point x="235" y="516"/>
      <point x="295" y="516" type="qcurve" smooth="yes"/>
      <point x="393" y="516"/>
      <point x="517" y="377"/>
      <point x="517" y="251" type="qcurve" smooth="yes"/>
      <point x="517" y="133"/>
      <point x="388" y="-12"/>
    </contour>
  </outline>
</glyph>
<glyph name="u0434" format="2">
  <advance width="597"/>
  <unicode hex="0434"/>
  <outline>
    <contour>
      <point x="405" y="446" type="line"/>
      <point x="212" y="446" type="line"/>
      <point x="212" y="363" type="line" smooth="yes"/>
      <point x="212" y="177"/>
      <point x="153" y="70" type="qcurve"/>
      <point x="405" y="70" type="line"/>
    </contour>
    <contour>
      <point x="498" y="-140" type="line"/>
      <point x="498" y="0" type="line"/>
      <point x="81" y="0" type="line"/>
      <point x="81" y="-140" type="line"/>
      <point x="8" y="-140" type="line"/>
      <point x="8" y="70" type="line"/>
      <point x="67" y="70" type="line"/>
      <point x="136" y="181"/>
      <point x="136" y="367" type="qcurve" smooth="yes"/>
      <point x="136" y="516" type="line"/>
      <point x="485" y="516" type="line"/>
      <point x="485" y="70" type="line"/>
      <point x="571" y="70" type="line"/>
      <point x="571" y="-140" type="line"/>
    </contour>
  </outline>
</glyph>
<glyph name="u0437" format="2">
  <advance width="501"/>
  <unicode hex="0437"/>
  <outline>
    <contour>
      <point x="231" y="-12" type="qcurve" smooth="yes"/>
      <point x="152" y="-12"/>
      <point x="57" y="42"/>
      <point x="28" y="92" type="qcurve"/>
      <point x="88" y="140" type="line"/>
      <point x="130" y="59"/>
      <point x="231" y="59" type="qcurve" smooth="yes"/>
      <point x="294" y="59"/>
      <point x="355" y="105"/>
      <point x="355" y="141" type="qcurve" smooth="yes"/>
      <point x="355" y="153" type="line" smooth="yes"/>
      <point x="355" y="192"/>
      <point x="302" y="233"/>
      <point x="254" y="233" type="qcurve" smooth="yes"/>
      <point x="144" y="233" type="line"/>
      <point x="144" y="300" type="line"/>
      <point x="244" y="300" type="line"/>
      <point x="344" y="303"/>
      <point x="344" y="373" type="qcurve" smooth="yes"/>
      <point x="344" y="385" type="line" smooth="yes"/>
      <point x="344" y="457"/>
      <point x="229" y="457" type="qcurve" smooth="yes"/>
      <point x="135" y="457"/>
      <point x="92" y="381" type="qcurve"/>
      <point x="39" y="426" type="line"/>
      <point x="91" y="528"/>
      <point x="233" y="528" type="qcurve" smooth="yes"/>
      <point x="334" y="528"/>
      <point x="430" y="454"/>
      <point x="430" y="389" type="qcurve" smooth="yes"/>
      <point x="430" y="297"/>
      <point x="331" y="274" type="qcurve"/>
      <point x="331" y="270" type="line"/>
      <point x="386" y="261"/>
      <point x="441" y="199"/>
      <point x="441" y="150" type="qcurve" smooth="yes"/>
      <point x="441" y="75"/>
      <point x="328" y="-12"/>
    </contour>
  </outline>
</glyph>
<glyph name="afii10074" format="2">
  <advance width="588"/>
  <unicode hex="0438"/>
  <outline>
    <contour>
      <point x="425" y="0" type="line"/>
      <point x="425" y="286" type="line"/>
      <point x="433" y="410" type="line"/>
      <point x="429" y="410" type="line"/>
      <point x="365" y="300" type="line"/>
      <point x="159" y="0" type="line"/>
      <point x="85" y="0" type="line"/>
      <point x="85" y="516" type="line"/>
      <point x="163" y="516" type="line"/>
      <point x="163" y="230" type="line"/>
      <point x="155" y="106" type="line"/>
      <point x="159" y="106" type="line"/>
      <point x="223" y="216" type="line"/>
      <point x="429" y="516" type="line"/>
      <point x="503" y="516" type="line"/>
      <point x="503" y="0" type="line"/>
    </contour>
  </outline>
</glyph>
<glyph name="u0439" format="2">
  <advance width="588"/>
  <unicode hex="0439"/>
  <outline>
    <contour>
      <point x="425" y="0" type="line"/>
      <point x="425" y="286" type="line"/>
      <point x="433" y="410" type="line"/>
      <point x="429" y="410" type="line"/>
      <point x="365" y="300" type="line"/>
      <point x="159" y="0" type="line"/>
      <point x="85" y="0" type="line"/>
      <point x="85" y="516" type="line"/>
      <point x="163" y="516" type="line"/>
      <point x="163" y="230" type="line"/>
      <point x="155" y="106" type="line"/>
      <point x="159" y="106" type="line"/>
      <point x="223" y="216" type="line"/>
      <point x="429" y="516" type="line"/>
      <point x="503" y="516" type="line"/>
      <point x="503" y="0" type="line"/>
    </contour>
    <contour>
      <point x="296" y="596" type="qcurve" smooth="yes"/>
      <point x="199" y="596"/>
      <point x="159" y="674" type="qcurve" smooth="yes"/>
      <point x="139" y="712" type="line"/>
      <point x="209" y="743" type="line"/>
      <point x="244" y="661" type="line"/>
      <point x="272" y="655"/>
      <point x="296" y="655" type="qcurve" smooth="yes"/>
      <point x="320" y="655"/>
      <point x="348" y="661" type="qcurve"/>
      <point x="383" y="743" type="line"/>
      <point x="453" y="712" type="line"/>
      <point x="433" y="674" type="line" smooth="yes"/>
      <point x="393" y="596"/>
    </contour>
  </outline>
</glyph>
<glyph name="elcyr" format="2">
  <advance width="565"/>
  <unicode hex="043B"/>
  <outline>
    <contour>
      <point x="400" y="0" type="line"/>
      <point x="400" y="446" type="line"/>
      <point x="207" y="446" type="line"/>
      <point x="207" y="367" type="line" smooth="yes"/>
      <point x="207" y="99"/>
      <point x="136" y="34" type="qcurve"/>
      <point x="104" y="0"/>
      <point x="39" y="0" type="qcurve" smooth="yes"/>
      <point x="8" y="0" type="line"/>
      <point x="8" y="70" type="line"/>
      <point x="76" y="70" type="line"/>
      <point x="131" y="142"/>
      <point x="131" y="369" type="qcurve" smooth="yes"/>
      <point x="131" y="516" type="line"/>
      <point x="480" y="516" type="line"/>
      <point x="480" y="0" type="line"/>
    </contour>
  </outline>
</glyph>
<glyph name="afii10079" format="2">
  <advance width="588"/>
  <unicode hex="043D"/>
  <outline>
    <contour>
      <point x="423" y="0" type="line"/>
      <point x="423" y="231" type="line"/>
      <point x="165" y="231" type="line"/>
      <point x="165" y="0" type="line"/>
      <point x="85" y="0" type="line"/>
      <point x="85" y="516" type="line"/>
      <point x="165" y="516" type="line"/>
      <point x="165" y="301" type="line"/>
      <point x="423" y="301" type="line"/>
      <point x="423" y="516" type="line"/>
      <point x="503" y="516" type="line"/>
      <point x="503" y="0" type="line"/>
    </contour>
  </outline>
</glyph>
<glyph name="afii10081" format="2">
  <advance width="573"/>
  <unicode hex="043F"/>
  <outline>
    <contour>
      <point x="408" y="0" type="line"/>
      <point x="408" y="446" type="line"/>
      <point x="165" y="446" type="line"/>
      <point x="165" y="0" type="line"/>
      <point x="85" y="0" type="line"/>
      <point x="85" y="516" type="line"/>
      <point x="488" y="516" type="line"/>
      <point x="488" y="0" type="line"/>
    </contour>
  </outline>
</glyph>
<glyph name="afii10082" format="2">
  <advance width="580"/>
  <unicode hex="0440"/>
  <outline>
    <contour>
      <point x="85" y="-200" type="line"/>
      <point x="85" y="516" type="line"/>
      <point x="165" y="516" type="line"/>
      <point x="165" y="432" type="line"/>
      <point x="169" y="432" type="line"/>
      <point x="212" y="528"/>
      <point x="320" y="528" type="qcurve" smooth="yes"/>
      <point x="416" y="528"/>
      <point x="530" y="383"/>
      <point x="530" y="258" type="qcurve" smooth="yes"/>
      <point x="530" y="134"/>
      <point x="416" y="-12"/>
      <point x="320" y="-12" type="qcurve" smooth="yes"/>
      <point x="215" y="-12"/>
      <point x="169" y="84" type="qcurve"/>
      <point x="165" y="84" type="line"/>
      <point x="165" y="-200" type="line"/>
    </contour>
    <contour>
      <point x="298" y="60" type="qcurve" smooth="yes"/>
      <point x="366" y="60"/>
      <point x="444" y="145"/>
      <point x="444" y="214" type="qcurve" smooth="yes"/>
      <point x="444" y="302" type="line" smooth="yes"/>
      <point x="444" y="371"/>
      <point x="366" y="456"/>
      <point x="298" y="456" type="qcurve" smooth="yes"/>
      <point x="244" y="456"/>
      <point x="165" y="399"/>
      <point x="165" y="357" type="qcurve" smooth="yes"/>
      <point x="165" y="165" type="line" smooth="yes"/>
      <point x="165" y="116"/>
      <point x="244" y="60"/>
    </contour>
  </outline>
</glyph>
<glyph name="afii10087" format="2">
  <advance width="507"/>
  <unicode hex="0445"/>
  <outline>
    <contour>
      <point x="392" y="0" type="line"/>
      <point x="258" y="202" type="line"/>
      <point x="255" y="202" type="line"/>
      <point x="110" y="0" type="line"/>
      <point x="21" y="0" type="line"/>
      <point x="212" y="260" type="line"/>
      <point x="29" y="516" type="line"/>
      <point x="123" y="516" type="line"/>
      <point x="254" y="324" type="line"/>
      <point x="257" y="324" type="line"/>
      <point x="393" y="516" type="line"/>
      <point x="482" y="516" type="line"/>
      <point x="300" y="266" type="line"/>
      <point x="486" y="0" type="line"/>
    </contour>
  </outline>
</glyph>
<glyph name="u0447" format="2">
  <advance width="538"/>
  <unicode hex="0447"/>
  <outline>
    <contour>
      <point x="373" y="0" type="line"/>
      <point x="373" y="237" type="line"/>
      <point x="368" y="237" type="line"/>
      <point x="345" y="210"/>
      <point x="274" y="175"/>
      <point x="217" y="175" type="qcurve" smooth="yes"/>
      <point x="138" y="175"/>
      <point x="50" y="254"/>
      <point x="50" y="334" type="qcurve" smooth="yes"/>
      <point x="50" y="516" type="line"/>
      <point x="130" y="516" type="line"/>
      <point x="130" y="341" type="line" smooth="yes"/>
      <point x="130" y="247"/>
      <point x="241" y="247" type="qcurve" smooth="yes"/>
      <point x="298" y="247"/>
      <point x="373" y="278"/>
      <point x="373" y="310" type="qcurve" smooth="yes"/>
      <point x="373" y="516" type="line"/>
      <point x="453" y="516" type="line"/>
      <point x="453" y="0" type="line"/>
    </contour>
  </outline>
</glyph>
<glyph name="afii10093" format="2">
  <advance width="724"/>
  <unicode hex="044B"/>
  <outline>
    <contour>
      <point x="85" y="0" type="line"/>
      <point x="85" y="516" type="line"/>
      <point x="165" y="516" type="line"/>
      <point x="165" y="329" type="line"/>
      <point x="302" y="329" type="line" smooth="yes"/>
      <point x="380" y="329"/>
      <point x="472" y="241"/>
      <point x="472" y="164" type="qcurve" smooth="yes"/>
      <point x="472" y="86"/>
      <point x="382" y="0"/>
      <point x="303" y="0" type="qcurve" smooth="yes"/>
    </contour>
    <contour>
      <point x="559" y="0" type="line"/>
      <point x="559" y="516" type="line"/>
      <point x="639" y="516" type="line"/>
      <point x="639" y="0" type="line"/>
    </contour>
    <contour>
      <point x="291" y="70" type="line" smooth="yes"/>
      <point x="386" y="70"/>
      <point x="386" y="144" type="qcurve" smooth="yes"/>
      <point x="386" y="186" type="line" smooth="yes"/>
      <point x="386" y="226"/>
      <point x="336" y="259"/>
      <point x="291" y="259" type="qcurve" smooth="yes"/>
      <point x="165" y="259" type="line"/>
      <point x="165" y="70" type="line"/>
    </contour>
  </outline>
</glyph>
<glyph name="u044C" format="2">
  <advance width="520"/>
  <unicode hex="044C"/>
  <outline>
    <contour>
      <point x="301" y="70" type="line" smooth="yes"/>
      <point x="396" y="70"/>
      <point x="396" y="144" type="qcurve" smooth="yes"/>
      <point x="396" y="186" type="line" smooth="yes"/>
      <point x="396" y="226"/>
      <point x="346" y="259"/>
      <point x="301" y="259" type="qcurve" smooth="yes"/>
      <point x="165" y="259" type="line"/>
      <point x="165" y="70" type="line"/>
    </contour>
    <contour>
      <point x="85" y="0" type="line"/>
      <point x="85" y="516" type="line"/>
      <point x="165" y="516" type="line"/>
      <point x="165" y="329" type="line"/>
      <point x="312" y="329" type="line" smooth="yes"/>
      <point x="390" y="329"/>
      <point x="482" y="241"/>
      <point x="482" y="164" type="qcurve" smooth="yes"/>
      <point x="482" y="86"/>
      <point x="392" y="0"/>
      <point x="313" y="0" type="qcurve" smooth="yes"/>
    </contour>
  </outline>
</glyph>
<glyph name="afii10095" format="2">
  <advance width="511"/>
  <unicode hex="044D"/>
  <outline>
    <contour>
      <point x="230" y="-12" type="qcurve" smooth="yes"/>
      <point x="83" y="-12"/>
      <point x="33" y="109" type="qcurve"/>
      <point x="100" y="143" type="line"/>
      <point x="130" y="59"/>
      <point x="230" y="59" type="qcurve" smooth="yes"/>
      <point x="305" y="59"/>
      <point x="378" y="145"/>
      <point x="378" y="214" type="qcurve" smooth="yes"/>
      <point x="378" y="227" type="line"/>
      <point x="154" y="227" type="line"/>
      <point x="154" y="294" type="line"/>
      <point x="378" y="294" type="line"/>
      <point x="378" y="302" type="line" smooth="yes"/>
      <point x="378" y="371"/>
      <point x="305" y="457"/>
      <point x="230" y="457" type="qcurve" smooth="yes"/>
      <point x="124" y="457"/>
      <point x="86" y="367" type="qcurve"/>
      <point x="28" y="406" type="line"/>
      <point x="81" y="528"/>
      <point x="230" y="528" type="qcurve" smooth="yes"/>
      <point x="343" y="528"/>
      <point x="464" y="383"/>
      <point x="464" y="258" type="qcurve" smooth="yes"/>
      <point x="464" y="134"/>
      <point x="343" y="-12"/>
    </contour>
  </outline>
</glyph>
<glyph name="u0450" format="2">
  <advance width="549"/>
  <unicode hex="0450"/>
  <outline>
    <contour>
      <point x="416" y="309" type="line" smooth="yes"/>
      <point x="416" y="378"/>
      <point x="341" y="461"/>
      <point x="279" y="461" type="qcurve" smooth="yes"/>
      <point x="213" y="461"/>
      <point x="131" y="373"/>
      <point x="131" y="305" type="qcurve" smooth="yes"/>
      <point x="131" y="298" type="line"/>
      <point x="416" y="298" type="line"/>
    </contour>
    <contour>
      <point x="279" y="-12" type="qcurve" smooth="yes"/>
      <point x="173" y="-12"/>
      <point x="111" y="62" type="qcurve"/>
      <point x="47" y="134"/>
      <point x="47" y="258" type="qcurve" smooth="yes"/>
      <point x="47" y="380"/>
      <point x="173" y="528"/>
      <point x="279" y="528" type="qcurve" smooth="yes"/>
      <point x="380" y="528"/>
      <point x="442" y="457" type="qcurve"/>
      <point x="502" y="386"/>
      <point x="502" y="276" type="qcurve" smooth="yes"/>
      <point x="502" y="238" type="line"/>
      <point x="131" y="238" type="line"/>
      <point x="131" y="214" type="line" smooth="yes"/>
      <point x="131" y="148"/>
      <point x="212" y="58"/>
      <point x="284" y="58" type="qcurve" smooth="yes"/>
      <point x="382" y="58"/>
      <point x="426" y="147" type="qcurve"/>
      <point x="483" y="106" type="line"/>
      <point x="458" y="52"/>
      <point x="352" y="-12"/>
    </contour>
    <contour>
      <point x="167" y="744" type="line"/>
      <point x="240" y="779" type="line"/>
      <point x="325" y="609" type="line"/>
      <point x="273" y="585" type="line"/>
    </contour>
  </outline>
</glyph>
<glyph name="afii10100" format="2">
  <advance width="435"/>
  <unicode hex="0453"/>
  <outline>
    <contour>
      <point x="205" y="609" type="line"/>
      <point x="290" y="779" type="line"/>
      <point x="363" y="744" type="line"/>
      <point x="257" y="585" type="line"/>
    </contour>
    <contour>
      <point x="85" y="0" type="line"/>
      <point x="85" y="516" type="line"/>
      <point x="411" y="516" type="line"/>
      <point x="411" y="446" type="line"/>
      <point x="165" y="446" type="line"/>
      <point x="165" y="0" type="line"/>
    </contour>
  </outline>
</glyph>
<glyph name="afii10101" format="2">
  <advance width="511"/>
  <unicode hex="0454"/>
  <outline>
    <contour>
      <point x="281" y="-12" type="qcurve" smooth="yes"/>
      <point x="167" y="-12"/>
      <point x="47" y="134"/>
      <point x="47" y="258" type="qcurve" smooth="yes"/>
      <point x="47" y="383"/>
      <point x="167" y="528"/>
      <point x="281" y="528" type="qcurve" smooth="yes"/>
      <point x="428" y="528"/>
      <point x="478" y="407" type="qcurve"/>
      <point x="411" y="373" type="line"/>
      <point x="381" y="457"/>
      <point x="281" y="457" type="qcurve" smooth="yes"/>
      <point x="205" y="457"/>
      <point x="133" y="370"/>
      <point x="133" y="302" type="qcurve" smooth="yes"/>
      <point x="133" y="294" type="line"/>
      <point x="357" y="294" type="line"/>
      <point x="357" y="227" type="line"/>
      <point x="133" y="227" type="line"/>
      <point x="133" y="214" type="line" smooth="yes"/>
      <point x="133" y="147"/>
      <point x="205" y="59"/>
      <point x="281" y="59" type="qcurve" smooth="yes"/>
      <point x="382" y="59"/>
      <point x="425" y="149" type="qcurve"/>
      <point x="483" y="110" type="line"/>
      <point x="458" y="53"/>
      <point x="358" y="-12"/>
    </contour>
  </outline>
</glyph>
<glyph name="u0459" format="2">
  <advance width="805"/>
  <unicode hex="0459"/>
  <outline>
    <contour>
      <point x="586" y="70" type="line" smooth="yes"/>
      <point x="681" y="70"/>
      <point x="681" y="144" type="qcurve" smooth="yes"/>
      <point x="681" y="186" type="line" smooth="yes"/>
      <point x="681" y="226"/>
      <point x="631" y="259"/>
      <point x="586" y="259" type="qcurve" smooth="yes"/>
      <point x="460" y="259" type="line"/>
      <point x="460" y="70" type="line"/>
    </contour>
    <contour>
      <point x="380" y="0" type="line"/>
      <point x="380" y="446" type="line"/>
      <point x="207" y="446" type="line"/>
      <point x="207" y="367" type="line" smooth="yes"/>
      <point x="207" y="99"/>
      <point x="136" y="34" type="qcurve"/>
      <point x="104" y="0"/>
      <point x="39" y="0" type="qcurve" smooth="yes"/>
      <point x="8" y="0" type="line"/>
      <point x="8" y="70" type="line"/>
      <point x="76" y="70" type="line"/>
      <point x="131" y="142"/>
      <point x="131" y="369" type="qcurve" smooth="yes"/>
      <point x="131" y="516" type="line"/>
      <point x="460" y="516" type="line"/>
      <point x="460" y="329" type="line"/>
      <point x="597" y="329" type="line" smooth="yes"/>
      <point x="675" y="329"/>
      <point x="767" y="241"/>
      <point x="767" y="164" type="qcurve" smooth="yes"/>
      <point x="767" y="86"/>
      <point x="677" y="0"/>
      <point x="598" y="0" type="qcurve" smooth="yes"/>
    </contour>
  </outline>
</glyph>
<glyph name="u045A" format="2">
  <advance width="832"/>
  <unicode hex="045A"/>
  <outline>
    <contour>
      <point x="613" y="70" type="line" smooth="yes"/>
      <point x="708" y="70"/>
      <point x="708" y="144" type="qcurve" smooth="yes"/>
      <point x="708" y="186" type="line" smooth="yes"/>
      <point x="708" y="226"/>
      <point x="658" y="259"/>
      <point x="613" y="259" type="qcurve" smooth="yes"/>
      <point x="487" y="259" type="line"/>
      <point x="487" y="70" type="line"/>
    </contour>
    <contour>
      <point x="407" y="0" type="line"/>
      <point x="407" y="231" type="line"/>
      <point x="165" y="231" type="line"/>
      <point x="165" y="0" type="line"/>
      <point x="85" y="0" type="line"/>
      <point x="85" y="516" type="line"/>
      <point x="165" y="516" type="line"/>
      <point x="165" y="301" type="line"/>
      <point x="407" y="301" type="line"/>
      <point x="407" y="516" type="line"/>
      <point x="487" y="516" type="line"/>
      <point x="487" y="329" type="line"/>
      <point x="624" y="329" type="line" smooth="yes"/>
      <point x="702" y="329"/>
      <point x="794" y="241"/>
      <point x="794" y="164" type="qcurve" smooth="yes"/>
      <point x="794" y="86"/>
      <point x="704" y="0"/>
      <point x="625" y="0" type="qcurve" smooth="yes"/>
    </contour>
  </outline>
</glyph>
<glyph name="fitacyr" format="2">
  <advance width="560"/>
  <unicode hex="0473"/>
  <outline>
    <contour>
      <point x="280" y="59" type="qcurve" smooth="yes"/>
      <point x="346" y="59"/>
      <point x="427" y="139"/>
      <point x="427" y="221" type="qcurve" smooth="yes"/>
      <point x="427" y="231" type="line"/>
      <point x="133" y="231" type="line"/>
      <point x="133" y="221" type="line" smooth="yes"/>
      <point x="133" y="139"/>
      <point x="214" y="59"/>
    </contour>
    <contour>
      <point x="427" y="293" type="line"/>
      <point x="427" y="377"/>
      <point x="346" y="457"/>
      <point x="280" y="457" type="qcurve" smooth="yes"/>
      <point x="214" y="457"/>
      <point x="133" y="377"/>
      <point x="133" y="293" type="qcurve"/>
    </contour>
    <contour>
      <point x="280" y="-12" type="qcurve" smooth="yes"/>
      <point x="177" y="-12"/>
      <point x="112" y="62" type="qcurve" smooth="yes"/>
      <point x="47" y="134"/>
      <point x="47" y="258" type="qcurve" smooth="yes"/>
      <point x="47" y="380"/>
      <point x="177" y="528"/>
      <point x="280" y="528" type="qcurve" smooth="yes"/>
      <point x="384" y="528"/>
      <point x="513" y="380"/>
      <point x="513" y="258" type="qcurve" smooth="yes"/>
      <point x="513" y="134"/>
      <point x="448" y="62" type="qcurve"/>
      <point x="384" y="-12"/>
    </contour>
  </outline>
</glyph>
<glyph name="zhetailcyr" format="2">
  <advance width="775"/>
  <unicode hex="0497"/>
  <outline>
    <contour>
      <point x="683" y="-140" type="line"/>
      <point x="683" y="0" type="line"/>
      <point x="673" y="0" type="line" smooth="yes"/>
      <point x="646" y="0"/>
      <point x="602" y="29"/>
      <point x="585" y="70" type="qcurve" smooth="yes"/>
      <point x="517" y="232" type="line"/>
      <point x="425" y="232" type="line"/>
      <point x="425" y="0" type="line"/>
      <point x="345" y="0" type="line"/>
      <point x="345" y="232" type="line"/>
      <point x="253" y="232" type="line"/>
      <point x="185" y="70" type="line" smooth="yes"/>
      <point x="168" y="29"/>
      <point x="124" y="0"/>
      <point x="97" y="0" type="qcurve" smooth="yes"/>
      <point x="40" y="0" type="line"/>
      <point x="40" y="70" type="line"/>
      <point x="100" y="70" type="line"/>
      <point x="158" y="209" type="line"/>
      <point x="181" y="260"/>
      <point x="221" y="264" type="qcurve"/>
      <point x="221" y="268" type="line"/>
      <point x="182" y="279"/>
      <point x="160" y="327" type="qcurve" smooth="yes"/>
      <point x="107" y="446" type="line"/>
      <point x="47" y="446" type="line"/>
      <point x="47" y="516" type="line"/>
      <point x="94" y="516" type="line" smooth="yes"/>
      <point x="154" y="516"/>
      <point x="184" y="453" type="qcurve"/>
      <point x="253" y="300" type="line"/>
      <point x="345" y="300" type="line"/>
      <point x="345" y="516" type="line"/>
      <point x="425" y="516" type="line"/>
      <point x="425" y="300" type="line"/>
      <point x="517" y="300" type="line"/>
      <point x="586" y="453" type="line"/>
      <point x="616" y="516"/>
      <point x="676" y="516" type="qcurve" smooth="yes"/>
      <point x="723" y="516" type="line"/>
      <point x="723" y="446" type="line"/>
      <point x="663" y="446" type="line"/>
      <point x="610" y="327" type="line" smooth="yes"/>
      <point x="589" y="279"/>
      <point x="549" y="268" type="qcurve"/>
      <point x="549" y="264" type="line"/>
      <point x="590" y="260"/>
      <point x="612" y="209" type="qcurve" smooth="yes"/>
      <point x="670" y="70" type="line"/>
      <point x="756" y="70" type="line"/>
      <point x="756" y="-140" type="line"/>
    </contour>
  </outline>
</glyph>
<glyph name="kadescendercyrillic" format="2">
  <advance width="556"/>
  <unicode hex="049B"/>
  <outline>
    <contour>
      <point x="464" y="-140" type="line"/>
      <point x="464" y="0" type="line"/>
      <point x="452" y="0" type="line" smooth="yes"/>
      <point x="426" y="0"/>
      <point x="383" y="28"/>
      <point x="363" y="63" type="qcurve" smooth="yes"/>
      <point x="268" y="232" type="line"/>
      <point x="165" y="232" type="line"/>
      <point x="165" y="0" type="line"/>
      <point x="85" y="0" type="line"/>
      <point x="85" y="516" type="line"/>
      <point x="165" y="516" type="line"/>
      <point x="165" y="300" type="line"/>
      <point x="268" y="300" type="line"/>
      <point x="368" y="458" type="line" smooth="yes"/>
      <point x="390" y="494"/>
      <point x="427" y="516"/>
      <point x="455" y="516" type="qcurve" smooth="yes"/>
      <point x="502" y="516" type="line"/>
      <point x="502" y="446" type="line"/>
      <point x="440" y="446" type="line"/>
      <point x="359" y="318" type="line" smooth="yes"/>
      <point x="344" y="294"/>
      <point x="322" y="273"/>
      <point x="303" y="268" type="qcurve"/>
      <point x="303" y="264" type="line"/>
      <point x="324" y="262"/>
      <point x="355" y="239"/>
      <point x="372" y="210" type="qcurve" smooth="yes"/>
      <point x="451" y="70" type="line"/>
      <point x="537" y="70" type="line"/>
      <point x="537" y="-140" type="line"/>
    </contour>
  </outline>
</glyph>
<glyph name="kaverticalstrokecyrillic" format="2">
  <advance width="580"/>
  <unicode hex="049D"/>
  <outline>
    <contour>
      <point x="482" y="0" type="line" smooth="yes"/>
      <point x="456" y="0"/>
      <point x="413" y="27"/>
      <point x="394" y="63" type="qcurve" smooth="yes"/>
      <point x="308" y="232" type="line"/>
      <point x="269" y="232" type="line"/>
      <point x="269" y="115" type="line"/>
      <point x="209" y="115" type="line"/>
      <point x="209" y="232" type="line"/>
      <point x="165" y="232" type="line"/>
      <point x="165" y="0" type="line"/>
      <point x="85" y="0" type="line"/>
      <point x="85" y="516" type="line"/>
      <point x="165" y="516" type="line"/>
      <point x="165" y="300" type="line"/>
      <point x="209" y="300" type="line"/>
      <point x="209" y="418" type="line"/>
      <point x="269" y="418" type="line"/>
      <point x="269" y="300" type="line"/>
      <point x="308" y="300" type="line"/>
      <point x="398" y="458" type="line" smooth="yes"/>
      <point x="418" y="494"/>
      <point x="458" y="516"/>
      <point x="485" y="516" type="qcurve" smooth="yes"/>
      <point x="532" y="516" type="line"/>
      <point x="532" y="446" type="line"/>
      <point x="470" y="446" type="line"/>
      <point x="396" y="318" type="line" smooth="yes"/>
      <point x="382" y="293"/>
      <point x="360" y="272"/>
      <point x="343" y="268" type="qcurve"/>
      <point x="343" y="264" type="line"/>
      <point x="366" y="262"/>
      <point x="395" y="240"/>
      <point x="410" y="210" type="qcurve" smooth="yes"/>
      <point x="481" y="70" type="line"/>
      <point x="540" y="70" type="line"/>
      <point x="540" y="0" type="line"/>
    </contour>
  </outline>
</glyph>
<glyph name="Kabashkircyrillic" format="2">
  <advance width="773"/>
  <unicode hex="04A0"/>
  <outline>
    <contour>
      <point x="669" y="0" type="line" smooth="yes"/>
      <point x="645" y="0"/>
      <point x="601" y="27"/>
      <point x="578" y="65" type="qcurve" smooth="yes"/>
      <point x="424" y="317" type="line"/>
      <point x="288" y="317" type="line"/>
      <point x="288" y="0" type="line"/>
      <point x="204" y="0" type="line"/>
      <point x="204" y="624" type="line"/>
      <point x="22" y="624" type="line"/>
      <point x="22" y="698" type="line"/>
      <point x="288" y="698" type="line"/>
      <point x="288" y="389" type="line"/>
      <point x="424" y="389" type="line"/>
      <point x="564" y="628" type="line" smooth="yes"/>
      <point x="587" y="666"/>
      <point x="631" y="698"/>
      <point x="663" y="698" type="qcurve" smooth="yes"/>
      <point x="709" y="698" type="line"/>
      <point x="709" y="624" type="line"/>
      <point x="646" y="624" type="line"/>
      <point x="522" y="412" type="line" smooth="yes"/>
      <point x="505" y="383"/>
      <point x="480" y="361"/>
      <point x="463" y="356" type="qcurve"/>
      <point x="463" y="351" type="line"/>
      <point x="486" y="347"/>
      <point x="520" y="321"/>
      <point x="540" y="287" type="qcurve" smooth="yes"/>
      <point x="670" y="74" type="line"/>
      <point x="731" y="74" type="line"/>
      <point x="731" y="0" type="line"/>
    </contour>
  </outline>
</glyph>
<glyph name="u04A1" format="2">
  <advance width="620"/>
  <unicode hex="04A1"/>
  <outline>
    <contour>
      <point x="522" y="0" type="line" smooth="yes"/>
      <point x="496" y="0"/>
      <point x="453" y="28"/>
      <point x="433" y="63" type="qcurve" smooth="yes"/>
      <point x="338" y="232" type="line"/>
      <point x="235" y="232" type="line"/>
      <point x="235" y="0" type="line"/>
      <point x="155" y="0" type="line"/>
      <point x="155" y="446" type="line"/>
      <point x="20" y="446" type="line"/>
      <point x="20" y="516" type="line"/>
      <point x="235" y="516" type="line"/>
      <point x="235" y="300" type="line"/>
      <point x="338" y="300" type="line"/>
      <point x="438" y="458" type="line" smooth="yes"/>
      <point x="460" y="494"/>
      <point x="497" y="516"/>
      <point x="525" y="516" type="qcurve" smooth="yes"/>
      <point x="572" y="516" type="line"/>
      <point x="572" y="446" type="line"/>
      <point x="510" y="446" type="line"/>
      <point x="429" y="318" type="line" smooth="yes"/>
      <point x="414" y="294"/>
      <point x="392" y="273"/>
      <point x="373" y="268" type="qcurve"/>
      <point x="373" y="264" type="line"/>
      <point x="394" y="262"/>
      <point x="425" y="239"/>
      <point x="442" y="210" type="qcurve" smooth="yes"/>
      <point x="521" y="70" type="line"/>
      <point x="580" y="70" type="line"/>
      <point x="580" y="0" type="line"/>
    </contour>
  </outline>
</glyph>
<glyph name="u04A2" format="2">
  <advance width="744"/>
  <unicode hex="04A2"/>
  <outline>
    <contour>
      <point x="635" y="-150" type="line"/>
      <point x="635" y="0" type="line"/>
      <point x="530" y="0" type="line"/>
      <point x="530" y="316" type="line"/>
      <point x="177" y="316" type="line"/>
      <point x="177" y="0" type="line"/>
      <point x="93" y="0" type="line"/>
      <point x="93" y="698" type="line"/>
      <point x="177" y="698" type="line"/>
      <point x="177" y="390" type="line"/>
      <point x="530" y="390" type="line"/>
      <point x="530" y="698" type="line"/>
      <point x="614" y="698" type="line"/>
      <point x="614" y="74" type="line"/>
      <point x="712" y="74" type="line"/>
      <point x="712" y="-150" type="line"/>
    </contour>
  </outline>
</glyph>
<glyph name="esdescendercyrillic" format="2">
  <advance width="503"/>
  <unicode hex="04AB"/>
  <outline>
    <contour>
      <point x="242" y="-140" type="line"/>
      <point x="242" y="-9" type="line"/>
      <point x="148" y="3"/>
      <point x="47" y="145"/>
      <point x="47" y="258" type="qcurve" smooth="yes"/>
      <point x="47" y="383"/>
      <point x="169" y="528"/>
      <point x="277" y="528" type="qcurve" smooth="yes"/>
      <point x="420" y="528"/>
      <point x="470" y="407" type="qcurve"/>
      <point x="403" y="373" type="line"/>
      <point x="373" y="457"/>
      <point x="277" y="457" type="qcurve" smooth="yes"/>
      <point x="205" y="457"/>
      <point x="133" y="370"/>
      <point x="133" y="302" type="qcurve" smooth="yes"/>
      <point x="133" y="214" type="line" smooth="yes"/>
      <point x="133" y="146"/>
      <point x="206" y="59"/>
      <point x="277" y="59" type="qcurve" smooth="yes"/>
      <point x="375" y="59"/>
      <point x="417" y="149" type="qcurve"/>
      <point x="475" y="110" type="line"/>
      <point x="431" y="11"/>
      <point x="315" y="-9" type="qcurve"/>
      <point x="315" y="-140" type="line"/>
    </contour>
  </outline>
</glyph>
<glyph name="Ustraightcyrillic" format="2">
  <advance width="593"/>
  <unicode hex="04AE"/>
  <outline>
    <contour>
      <point x="253" y="0" type="line"/>
      <point x="253" y="276" type="line"/>
      <point x="13" y="698" type="line"/>
      <point x="109" y="698" type="line"/>
      <point x="295" y="362" type="line"/>
      <point x="298" y="362" type="line"/>
      <point x="484" y="698" type="line"/>
      <point x="580" y="698" type="line"/>
      <point x="337" y="279" type="line"/>
      <point x="337" y="0" type="line"/>
    </contour>
  </outline>
</glyph>
<glyph name="Chetailcyr" format="2">
  <advance width="682"/>
  <unicode hex="04B6"/>
  <outline>
    <contour>
      <point x="573" y="-150" type="line"/>
      <point x="573" y="0" type="line"/>
      <point x="468" y="0" type="line"/>
      <point x="468" y="275" type="line"/>
      <point x="463" y="275" type="line"/>
      <point x="404" y="252"/>
      <point x="299" y="252" type="qcurve" smooth="yes"/>
      <point x="58" y="252"/>
      <point x="58" y="500" type="qcurve" smooth="yes"/>
      <point x="58" y="698" type="line"/>
      <point x="142" y="698" type="line"/>
      <point x="142" y="500" type="line" smooth="yes"/>
      <point x="142" y="408"/>
      <point x="227" y="326"/>
      <point x="312" y="326" type="qcurve" smooth="yes"/>
      <point x="413" y="326"/>
      <point x="468" y="349" type="qcurve"/>
      <point x="468" y="698" type="line"/>
      <point x="552" y="698" type="line"/>
      <point x="552" y="74" type="line"/>
      <point x="650" y="74" type="line"/>
      <point x="650" y="-150" type="line"/>
    </contour>
  </outline>
</glyph>
<glyph name="Cheverticalstrokecyrillic" format="2">
  <advance width="645"/>
  <unicode hex="04B8"/>
  <outline>
    <contour>
      <point x="468" y="0" type="line"/>
      <point x="468" y="275" type="line"/>
      <point x="463" y="275" type="line"/>
      <point x="415" y="257"/>
      <point x="338" y="252" type="qcurve"/>
      <point x="338" y="112" type="line"/>
      <point x="274" y="112" type="line"/>
      <point x="274" y="253" type="line"/>
      <point x="58" y="265"/>
      <point x="58" y="500" type="qcurve" smooth="yes"/>
      <point x="58" y="698" type="line"/>
      <point x="142" y="698" type="line"/>
      <point x="142" y="500" type="line" smooth="yes"/>
      <point x="142" y="419"/>
      <point x="208" y="336"/>
      <point x="274" y="328" type="qcurve"/>
      <point x="274" y="493" type="line"/>
      <point x="338" y="493" type="line"/>
      <point x="338" y="326" type="line"/>
      <point x="420" y="330"/>
      <point x="468" y="349" type="qcurve"/>
      <point x="468" y="698" type="line"/>
      <point x="552" y="698" type="line"/>
      <point x="552" y="0" type="line"/>
    </contour>
  </outline>
</glyph>
<glyph name="chevertcyr" format="2">
  <advance width="538"/>
  <unicode hex="04B9"/>
  <outline>
    <contour>
      <point x="373" y="0" type="line"/>
      <point x="373" y="235" type="line"/>
      <point x="368" y="235" type="line"/>
      <point x="336" y="196"/>
      <point x="282" y="181" type="qcurve"/>
      <point x="282" y="89" type="line"/>
      <point x="222" y="89" type="line"/>
      <point x="222" y="175" type="line"/>
      <point x="220" y="175" type="line" smooth="yes"/>
      <point x="50" y="175"/>
      <point x="50" y="334" type="qcurve" smooth="yes"/>
      <point x="50" y="516" type="line"/>
      <point x="130" y="516" type="line"/>
      <point x="130" y="341" type="line" smooth="yes"/>
      <point x="130" y="256"/>
      <point x="222" y="248" type="qcurve"/>
      <point x="222" y="392" type="line"/>
      <point x="282" y="392" type="line"/>
      <point x="282" y="248" type="line"/>
      <point x="373" y="258"/>
      <point x="373" y="310" type="qcurve" smooth="yes"/>
      <point x="373" y="516" type="line"/>
      <point x="453" y="516" type="line"/>
      <point x="453" y="0" type="line"/>
    </contour>
  </outline>
</glyph>
